%TF.GenerationSoftware,KiCad,Pcbnew,9.0.6*%
%TF.CreationDate,2026-04-09T11:08:06+02:00*%
%TF.ProjectId,Smartlock archi electro V3,536d6172-746c-46f6-936b-206172636869,rev?*%
%TF.SameCoordinates,Original*%
%TF.FileFunction,Soldermask,Top*%
%TF.FilePolarity,Negative*%
%FSLAX46Y46*%
G04 Gerber Fmt 4.6, Leading zero omitted, Abs format (unit mm)*
G04 Created by KiCad (PCBNEW 9.0.6) date 2026-04-09 11:08:06*
%MOMM*%
%LPD*%
G01*
G04 APERTURE LIST*
%ADD10R,2.900000X5.400000*%
%ADD11C,1.800000*%
%ADD12C,0.800000*%
%ADD13C,6.400000*%
%ADD14R,2.000000X2.000000*%
%ADD15C,1.000000*%
%ADD16R,1.377000X1.132500*%
%ADD17R,0.800000X0.900000*%
%ADD18R,0.900000X0.800000*%
%ADD19R,1.132500X1.377000*%
%ADD20R,3.610000X1.260000*%
%ADD21R,4.500000X1.650000*%
%ADD22R,1.250000X0.700000*%
%ADD23R,0.806500X0.864000*%
%ADD24O,2.045000X0.588000*%
%ADD25R,1.701000X1.207500*%
%ADD26R,1.700000X1.700000*%
%ADD27C,1.700000*%
%ADD28R,5.400000X2.900000*%
%ADD29R,1.260000X3.610000*%
%ADD30R,1.207500X1.701000*%
%ADD31R,1.500000X3.000000*%
G04 APERTURE END LIST*
D10*
%TO.C,L3*%
X115750000Y-111500000D03*
X126250000Y-111500000D03*
%TD*%
D11*
%TO.C,U?*%
X151130000Y-68599000D03*
X151130000Y-71101000D03*
%TD*%
D12*
%TO.C,REF\u002A\u002A*%
X105804000Y-130556000D03*
X106506944Y-128858944D03*
X106506944Y-132253056D03*
X108204000Y-128156000D03*
D13*
X108204000Y-130556000D03*
D12*
X108204000Y-132956000D03*
X109901056Y-128858944D03*
X109901056Y-132253056D03*
X110604000Y-130556000D03*
%TD*%
D14*
%TO.C,D2*%
X137500000Y-107950000D03*
X141900000Y-107950000D03*
%TD*%
D15*
%TO.C,REF\u002A\u002A*%
X119380000Y-89916000D03*
%TD*%
D11*
%TO.C,U?*%
X132061000Y-85090000D03*
X129559000Y-85090000D03*
%TD*%
%TO.C,U?*%
X143510000Y-127000000D03*
X143510000Y-129502000D03*
%TD*%
D16*
%TO.C,R31*%
X156000000Y-76500000D03*
X156000000Y-74500000D03*
%TD*%
D14*
%TO.C,D11*%
X139000000Y-81200000D03*
X139000000Y-76800000D03*
%TD*%
D17*
%TO.C,C_T2*%
X114200000Y-103500000D03*
X112800000Y-103500000D03*
%TD*%
D18*
%TO.C,C_T3*%
X137160000Y-98998000D03*
X137160000Y-97598000D03*
%TD*%
D19*
%TO.C,R2*%
X143510000Y-73660000D03*
X141510000Y-73660000D03*
%TD*%
D11*
%TO.C,U?*%
X185420000Y-69888000D03*
X185420000Y-72390000D03*
%TD*%
D20*
%TO.C,C1*%
X175020000Y-88900000D03*
X181610000Y-88900000D03*
%TD*%
%TO.C,C4*%
X175705000Y-80010000D03*
X182295000Y-80010000D03*
%TD*%
D16*
%TO.C,R22*%
X148590000Y-127270000D03*
X148590000Y-129270000D03*
%TD*%
D11*
%TO.C,U?*%
X137160000Y-129502000D03*
X137160000Y-127000000D03*
%TD*%
D20*
%TO.C,C3*%
X115795000Y-92000000D03*
X109205000Y-92000000D03*
%TD*%
D19*
%TO.C,R11*%
X169180000Y-119380000D03*
X171180000Y-119380000D03*
%TD*%
D11*
%TO.C,U?*%
X129578000Y-78740000D03*
X132080000Y-78740000D03*
%TD*%
D17*
%TO.C,C_T4*%
X155200000Y-105000000D03*
X153800000Y-105000000D03*
%TD*%
D21*
%TO.C,C_O2*%
X130230000Y-124460000D03*
X121230000Y-124460000D03*
%TD*%
D15*
%TO.C,REF\u002A\u002A*%
X167640000Y-80010000D03*
%TD*%
D19*
%TO.C,R12*%
X162830000Y-121920000D03*
X164830000Y-121920000D03*
%TD*%
D11*
%TO.C,U?*%
X170180000Y-69850000D03*
X170180000Y-72352000D03*
%TD*%
D14*
%TO.C,D4*%
X122200000Y-81500000D03*
X117800000Y-81500000D03*
%TD*%
D16*
%TO.C,R1*%
X147320000Y-79010000D03*
X147320000Y-81010000D03*
%TD*%
D12*
%TO.C,REF\u002A\u002A*%
X184036000Y-130556000D03*
X184738944Y-128858944D03*
X184738944Y-132253056D03*
X186436000Y-128156000D03*
D13*
X186436000Y-130556000D03*
D12*
X186436000Y-132956000D03*
X188133056Y-128858944D03*
X188133056Y-132253056D03*
X188836000Y-130556000D03*
%TD*%
D22*
%TO.C,Q1*%
X144500000Y-79370000D03*
X144500000Y-77470000D03*
X142500000Y-78420000D03*
%TD*%
D23*
%TO.C,R_SC3*%
X112746500Y-86500000D03*
X114253500Y-86500000D03*
%TD*%
D12*
%TO.C,REF\u002A\u002A*%
X105296000Y-71120000D03*
X105998944Y-69422944D03*
X105998944Y-72817056D03*
X107696000Y-68720000D03*
D13*
X107696000Y-71120000D03*
D12*
X107696000Y-73520000D03*
X109393056Y-69422944D03*
X109393056Y-72817056D03*
X110096000Y-71120000D03*
%TD*%
D24*
%TO.C,U4*%
X157430000Y-102095000D03*
X157430000Y-103365000D03*
X157430000Y-104635000D03*
X157430000Y-105905000D03*
X162570000Y-105905000D03*
X162570000Y-104635000D03*
X162570000Y-103365000D03*
X162570000Y-102095000D03*
%TD*%
D25*
%TO.C,R_SC1*%
X171000000Y-97979000D03*
X171000000Y-95021000D03*
%TD*%
D26*
%TO.C,U?*%
X143510000Y-68580000D03*
D27*
X141009500Y-68580000D03*
X138509500Y-68580000D03*
X136009000Y-68580000D03*
%TD*%
D28*
%TO.C,L2*%
X140000000Y-111760000D03*
X140000000Y-122260000D03*
%TD*%
D25*
%TO.C,R40*%
X165000000Y-96215000D03*
X165000000Y-99173000D03*
%TD*%
D15*
%TO.C,REF\u002A\u002A*%
X171450000Y-100330000D03*
%TD*%
D29*
%TO.C,C_O3*%
X162000000Y-78295000D03*
X162000000Y-71705000D03*
%TD*%
D25*
%TO.C,R_SC2*%
X121412000Y-95967000D03*
X121412000Y-93009000D03*
%TD*%
D24*
%TO.C,U2*%
X117930000Y-100095000D03*
X117930000Y-101365000D03*
X117930000Y-102635000D03*
X117930000Y-103905000D03*
X123070000Y-103905000D03*
X123070000Y-102635000D03*
X123070000Y-101365000D03*
X123070000Y-100095000D03*
%TD*%
D16*
%TO.C,R4*%
X145796000Y-92186000D03*
X145796000Y-90186000D03*
%TD*%
D20*
%TO.C,C_O1*%
X152160000Y-127000000D03*
X158750000Y-127000000D03*
%TD*%
D11*
%TO.C,U?*%
X141500000Y-86500000D03*
X144000000Y-86500000D03*
X146500000Y-86500000D03*
%TD*%
D25*
%TO.C,R30*%
X130000000Y-110479000D03*
X130000000Y-107521000D03*
%TD*%
D14*
%TO.C,D3*%
X164200000Y-82500000D03*
X159800000Y-82500000D03*
%TD*%
D15*
%TO.C,REF\u002A\u002A*%
X125730000Y-78740000D03*
%TD*%
D19*
%TO.C,R3*%
X138430000Y-73660000D03*
X136430000Y-73660000D03*
%TD*%
D15*
%TO.C,REF\u002A\u002A*%
X121920000Y-98044000D03*
%TD*%
D10*
%TO.C,L4*%
X161950000Y-94500000D03*
X151050000Y-94500000D03*
%TD*%
D15*
%TO.C,REF\u002A\u002A*%
X148590000Y-123190000D03*
%TD*%
D14*
%TO.C,D1*%
X161500000Y-114800000D03*
X161500000Y-119200000D03*
%TD*%
D15*
%TO.C,REF\u002A\u002A*%
X170180000Y-85090000D03*
%TD*%
D20*
%TO.C,C2*%
X125205000Y-93980000D03*
X131795000Y-93980000D03*
%TD*%
D24*
%TO.C,U3*%
X135070000Y-105405000D03*
X135070000Y-104135000D03*
X135070000Y-102865000D03*
X135070000Y-101595000D03*
X129930000Y-101595000D03*
X129930000Y-102865000D03*
X129930000Y-104135000D03*
X129930000Y-105405000D03*
%TD*%
D11*
%TO.C,U?*%
X177800000Y-69850000D03*
X177800000Y-72352000D03*
%TD*%
D30*
%TO.C,R_PD1*%
X148381000Y-76200000D03*
X151339000Y-76200000D03*
%TD*%
D23*
%TO.C,R42*%
X125493000Y-73660000D03*
X127000000Y-73660000D03*
%TD*%
D28*
%TO.C,L1*%
X153000000Y-109220000D03*
X153000000Y-119720000D03*
%TD*%
D14*
%TO.C,D10*%
X159800000Y-86000000D03*
X164200000Y-86000000D03*
%TD*%
D20*
%TO.C,C_O4*%
X121295000Y-75000000D03*
X114705000Y-75000000D03*
%TD*%
D19*
%TO.C,R32*%
X156500000Y-79500000D03*
X154500000Y-79500000D03*
%TD*%
D18*
%TO.C,C_T1*%
X167000000Y-110200000D03*
X167000000Y-111600000D03*
%TD*%
D31*
%TO.C,U5*%
X140208000Y-101266000D03*
X142748000Y-101266000D03*
X142748000Y-91266000D03*
X140208000Y-91266000D03*
%TD*%
D16*
%TO.C,R21*%
X148590000Y-132350000D03*
X148590000Y-134350000D03*
%TD*%
D25*
%TO.C,R_SC4*%
X167500000Y-97479000D03*
X167500000Y-94521000D03*
%TD*%
%TO.C,R41*%
X161450000Y-107971000D03*
X161450000Y-110929000D03*
%TD*%
D24*
%TO.C,U1*%
X168430000Y-103045000D03*
X168430000Y-104315000D03*
X168430000Y-105585000D03*
X168430000Y-106855000D03*
X173570000Y-106855000D03*
X173570000Y-105585000D03*
X173570000Y-104315000D03*
X173570000Y-103045000D03*
%TD*%
M02*
