%TF.GenerationSoftware,KiCad,Pcbnew,9.0.6*%
%TF.CreationDate,2026-04-09T11:08:06+02:00*%
%TF.ProjectId,Smartlock archi electro V3,536d6172-746c-46f6-936b-206172636869,rev?*%
%TF.SameCoordinates,Original*%
%TF.FileFunction,Soldermask,Bot*%
%TF.FilePolarity,Negative*%
%FSLAX46Y46*%
G04 Gerber Fmt 4.6, Leading zero omitted, Abs format (unit mm)*
G04 Created by KiCad (PCBNEW 9.0.6) date 2026-04-09 11:08:06*
%MOMM*%
%LPD*%
G01*
G04 APERTURE LIST*
%ADD10C,1.800000*%
%ADD11C,0.800000*%
%ADD12C,6.400000*%
%ADD13R,1.700000X1.700000*%
%ADD14C,1.700000*%
G04 APERTURE END LIST*
D10*
%TO.C,U?*%
X151130000Y-68599000D03*
X151130000Y-71101000D03*
%TD*%
D11*
%TO.C,REF\u002A\u002A*%
X105804000Y-130556000D03*
X106506944Y-128858944D03*
X106506944Y-132253056D03*
X108204000Y-128156000D03*
D12*
X108204000Y-130556000D03*
D11*
X108204000Y-132956000D03*
X109901056Y-128858944D03*
X109901056Y-132253056D03*
X110604000Y-130556000D03*
%TD*%
D10*
%TO.C,U?*%
X132061000Y-85090000D03*
X129559000Y-85090000D03*
%TD*%
%TO.C,U?*%
X143510000Y-127000000D03*
X143510000Y-129502000D03*
%TD*%
%TO.C,U?*%
X185420000Y-69888000D03*
X185420000Y-72390000D03*
%TD*%
%TO.C,U?*%
X137160000Y-129502000D03*
X137160000Y-127000000D03*
%TD*%
%TO.C,U?*%
X129578000Y-78740000D03*
X132080000Y-78740000D03*
%TD*%
%TO.C,U?*%
X170180000Y-69850000D03*
X170180000Y-72352000D03*
%TD*%
D11*
%TO.C,REF\u002A\u002A*%
X184036000Y-130556000D03*
X184738944Y-128858944D03*
X184738944Y-132253056D03*
X186436000Y-128156000D03*
D12*
X186436000Y-130556000D03*
D11*
X186436000Y-132956000D03*
X188133056Y-128858944D03*
X188133056Y-132253056D03*
X188836000Y-130556000D03*
%TD*%
%TO.C,REF\u002A\u002A*%
X105296000Y-71120000D03*
X105998944Y-69422944D03*
X105998944Y-72817056D03*
X107696000Y-68720000D03*
D12*
X107696000Y-71120000D03*
D11*
X107696000Y-73520000D03*
X109393056Y-69422944D03*
X109393056Y-72817056D03*
X110096000Y-71120000D03*
%TD*%
D13*
%TO.C,U?*%
X143510000Y-68580000D03*
D14*
X141009500Y-68580000D03*
X138509500Y-68580000D03*
X136009000Y-68580000D03*
%TD*%
D10*
%TO.C,U?*%
X141500000Y-86500000D03*
X144000000Y-86500000D03*
X146500000Y-86500000D03*
%TD*%
%TO.C,U?*%
X177800000Y-69850000D03*
X177800000Y-72352000D03*
%TD*%
M02*
