%TF.GenerationSoftware,KiCad,Pcbnew,9.0.6*%
%TF.CreationDate,2026-04-09T11:08:06+02:00*%
%TF.ProjectId,Smartlock archi electro V3,536d6172-746c-46f6-936b-206172636869,rev?*%
%TF.SameCoordinates,Original*%
%TF.FileFunction,Paste,Top*%
%TF.FilePolarity,Positive*%
%FSLAX46Y46*%
G04 Gerber Fmt 4.6, Leading zero omitted, Abs format (unit mm)*
G04 Created by KiCad (PCBNEW 9.0.6) date 2026-04-09 11:08:06*
%MOMM*%
%LPD*%
G01*
G04 APERTURE LIST*
%ADD10C,0.000000*%
%ADD11R,2.900000X5.400000*%
%ADD12R,2.000000X2.000000*%
%ADD13R,1.377000X1.132500*%
%ADD14R,0.800000X0.900000*%
%ADD15R,0.900000X0.800000*%
%ADD16R,1.132500X1.377000*%
%ADD17R,3.610000X1.260000*%
%ADD18R,4.500000X1.650000*%
%ADD19R,1.250000X0.700000*%
%ADD20R,0.806500X0.864000*%
%ADD21O,2.045000X0.588000*%
%ADD22R,1.701000X1.207500*%
%ADD23R,5.400000X2.900000*%
%ADD24R,1.260000X3.610000*%
%ADD25R,1.207500X1.701000*%
%ADD26R,1.500000X3.000000*%
G04 APERTURE END LIST*
D10*
%TO.C,R31*%
G36*
X156690000Y-73850000D02*
G01*
X156690000Y-75000000D01*
X156640000Y-75050000D01*
X156220000Y-75050000D01*
X156220000Y-74605000D01*
X155770000Y-74605000D01*
X155770000Y-75045000D01*
X155360000Y-75050000D01*
X155310000Y-75000000D01*
X155310000Y-73850000D01*
X155360000Y-73800000D01*
X156640000Y-73800000D01*
X156690000Y-73850000D01*
G37*
G36*
X155770000Y-76395000D02*
G01*
X156220000Y-76395000D01*
X156220000Y-75955000D01*
X156640000Y-75950000D01*
X156690000Y-76000000D01*
X156690000Y-77150000D01*
X156640000Y-77200000D01*
X155360000Y-77200000D01*
X155310000Y-77150000D01*
X155310000Y-76000000D01*
X155360000Y-75950000D01*
X155770000Y-75945000D01*
X155770000Y-76395000D01*
G37*
%TO.C,R2*%
G36*
X142060000Y-73020000D02*
G01*
X142060000Y-73440000D01*
X141615000Y-73440000D01*
X141615000Y-73890000D01*
X142055000Y-73890000D01*
X142060000Y-74300000D01*
X142010000Y-74350000D01*
X140860000Y-74350000D01*
X140810000Y-74300000D01*
X140810000Y-73020000D01*
X140860000Y-72970000D01*
X142010000Y-72970000D01*
X142060000Y-73020000D01*
G37*
G36*
X144210000Y-73020000D02*
G01*
X144210000Y-74300000D01*
X144160000Y-74350000D01*
X143010000Y-74350000D01*
X142960000Y-74300000D01*
X142955000Y-73890000D01*
X143405000Y-73890000D01*
X143405000Y-73440000D01*
X142965000Y-73440000D01*
X142960000Y-73020000D01*
X143010000Y-72970000D01*
X144160000Y-72970000D01*
X144210000Y-73020000D01*
G37*
%TO.C,R22*%
G36*
X149280000Y-126620000D02*
G01*
X149280000Y-127770000D01*
X149230000Y-127820000D01*
X148820000Y-127825000D01*
X148820000Y-127375000D01*
X148370000Y-127375000D01*
X148370000Y-127815000D01*
X147950000Y-127820000D01*
X147900000Y-127770000D01*
X147900000Y-126620000D01*
X147950000Y-126570000D01*
X149230000Y-126570000D01*
X149280000Y-126620000D01*
G37*
G36*
X148370000Y-129165000D02*
G01*
X148820000Y-129165000D01*
X148820000Y-128725000D01*
X149230000Y-128720000D01*
X149280000Y-128770000D01*
X149280000Y-129920000D01*
X149230000Y-129970000D01*
X147950000Y-129970000D01*
X147900000Y-129920000D01*
X147900000Y-128770000D01*
X147950000Y-128720000D01*
X148370000Y-128720000D01*
X148370000Y-129165000D01*
G37*
%TO.C,R11*%
G36*
X169730000Y-118740000D02*
G01*
X169735000Y-119150000D01*
X169285000Y-119150000D01*
X169285000Y-119600000D01*
X169725000Y-119600000D01*
X169730000Y-120020000D01*
X169680000Y-120070000D01*
X168530000Y-120070000D01*
X168480000Y-120020000D01*
X168480000Y-118740000D01*
X168530000Y-118690000D01*
X169680000Y-118690000D01*
X169730000Y-118740000D01*
G37*
G36*
X171880000Y-118740000D02*
G01*
X171880000Y-120020000D01*
X171830000Y-120070000D01*
X170680000Y-120070000D01*
X170630000Y-120020000D01*
X170630000Y-119600000D01*
X171075000Y-119600000D01*
X171075000Y-119150000D01*
X170635000Y-119150000D01*
X170630000Y-118740000D01*
X170680000Y-118690000D01*
X171830000Y-118690000D01*
X171880000Y-118740000D01*
G37*
%TO.C,R12*%
G36*
X163380000Y-121280000D02*
G01*
X163385000Y-121690000D01*
X162935000Y-121690000D01*
X162935000Y-122140000D01*
X163375000Y-122140000D01*
X163380000Y-122560000D01*
X163330000Y-122610000D01*
X162180000Y-122610000D01*
X162130000Y-122560000D01*
X162130000Y-121280000D01*
X162180000Y-121230000D01*
X163330000Y-121230000D01*
X163380000Y-121280000D01*
G37*
G36*
X165530000Y-121280000D02*
G01*
X165530000Y-122560000D01*
X165480000Y-122610000D01*
X164330000Y-122610000D01*
X164280000Y-122560000D01*
X164280000Y-122140000D01*
X164725000Y-122140000D01*
X164725000Y-121690000D01*
X164285000Y-121690000D01*
X164280000Y-121280000D01*
X164330000Y-121230000D01*
X165480000Y-121230000D01*
X165530000Y-121280000D01*
G37*
%TO.C,R1*%
G36*
X148010000Y-78360000D02*
G01*
X148010000Y-79510000D01*
X147960000Y-79560000D01*
X147550000Y-79565000D01*
X147550000Y-79115000D01*
X147100000Y-79115000D01*
X147100000Y-79555000D01*
X146680000Y-79560000D01*
X146630000Y-79510000D01*
X146630000Y-78360000D01*
X146680000Y-78310000D01*
X147960000Y-78310000D01*
X148010000Y-78360000D01*
G37*
G36*
X147100000Y-80905000D02*
G01*
X147550000Y-80905000D01*
X147550000Y-80465000D01*
X147960000Y-80460000D01*
X148010000Y-80510000D01*
X148010000Y-81660000D01*
X147960000Y-81710000D01*
X146680000Y-81710000D01*
X146630000Y-81660000D01*
X146630000Y-80510000D01*
X146680000Y-80460000D01*
X147100000Y-80460000D01*
X147100000Y-80905000D01*
G37*
%TO.C,R_SC3*%
G36*
X113155000Y-86100000D02*
G01*
X113155000Y-86342000D01*
X112785000Y-86342000D01*
X112785000Y-86672000D01*
X113155000Y-86672000D01*
X113155000Y-86900000D01*
X113105000Y-86950000D01*
X112305000Y-86950000D01*
X112255000Y-86900000D01*
X112255000Y-86100000D01*
X112305000Y-86050000D01*
X113105000Y-86050000D01*
X113155000Y-86100000D01*
G37*
G36*
X114745000Y-86100000D02*
G01*
X114745000Y-86900000D01*
X114695000Y-86950000D01*
X113895000Y-86950000D01*
X113845000Y-86900000D01*
X113845000Y-86658000D01*
X114215000Y-86658000D01*
X114215000Y-86328000D01*
X113845000Y-86328000D01*
X113845000Y-86100000D01*
X113895000Y-86050000D01*
X114695000Y-86050000D01*
X114745000Y-86100000D01*
G37*
%TO.C,R_SC1*%
G36*
X171850500Y-94517500D02*
G01*
X171850500Y-95525000D01*
X171750500Y-95625000D01*
X171389000Y-95625000D01*
X171289000Y-95525000D01*
X171289000Y-95314500D01*
X171189000Y-95214500D01*
X170811000Y-95214500D01*
X170711000Y-95314500D01*
X170711000Y-95525000D01*
X170611000Y-95625000D01*
X170249500Y-95625000D01*
X170149500Y-95525000D01*
X170149500Y-94517500D01*
X170249500Y-94417500D01*
X171750500Y-94417500D01*
X171850500Y-94517500D01*
G37*
G36*
X170711000Y-97475000D02*
G01*
X170711000Y-97685500D01*
X170811000Y-97785500D01*
X171189000Y-97785500D01*
X171289000Y-97685500D01*
X171289000Y-97475000D01*
X171389000Y-97375000D01*
X171750500Y-97375000D01*
X171850500Y-97475000D01*
X171850500Y-98482500D01*
X171750500Y-98582500D01*
X170249500Y-98582500D01*
X170149500Y-98482500D01*
X170149500Y-97475000D01*
X170249500Y-97375000D01*
X170611000Y-97375000D01*
X170711000Y-97475000D01*
G37*
%TO.C,R40*%
G36*
X165850500Y-95711500D02*
G01*
X165850500Y-96719000D01*
X165750500Y-96819000D01*
X165389000Y-96819000D01*
X165289000Y-96719000D01*
X165289000Y-96508500D01*
X165189000Y-96408500D01*
X164811000Y-96408500D01*
X164711000Y-96508500D01*
X164711000Y-96719000D01*
X164611000Y-96819000D01*
X164249500Y-96819000D01*
X164149500Y-96719000D01*
X164149500Y-95711500D01*
X164249500Y-95611500D01*
X165750500Y-95611500D01*
X165850500Y-95711500D01*
G37*
G36*
X164711000Y-98669000D02*
G01*
X164711000Y-98879500D01*
X164811000Y-98979500D01*
X165189000Y-98979500D01*
X165289000Y-98879500D01*
X165289000Y-98669000D01*
X165389000Y-98569000D01*
X165750500Y-98569000D01*
X165850500Y-98669000D01*
X165850500Y-99676500D01*
X165750500Y-99776500D01*
X164249500Y-99776500D01*
X164149500Y-99676500D01*
X164149500Y-98669000D01*
X164249500Y-98569000D01*
X164611000Y-98569000D01*
X164711000Y-98669000D01*
G37*
%TO.C,R_SC2*%
G36*
X122262500Y-92505500D02*
G01*
X122262500Y-93513000D01*
X122162500Y-93613000D01*
X121801000Y-93613000D01*
X121701000Y-93513000D01*
X121701000Y-93302500D01*
X121601000Y-93202500D01*
X121223000Y-93202500D01*
X121123000Y-93302500D01*
X121123000Y-93513000D01*
X121023000Y-93613000D01*
X120661500Y-93613000D01*
X120561500Y-93513000D01*
X120561500Y-92505500D01*
X120661500Y-92405500D01*
X122162500Y-92405500D01*
X122262500Y-92505500D01*
G37*
G36*
X121123000Y-95463000D02*
G01*
X121123000Y-95673500D01*
X121223000Y-95773500D01*
X121601000Y-95773500D01*
X121701000Y-95673500D01*
X121701000Y-95463000D01*
X121801000Y-95363000D01*
X122162500Y-95363000D01*
X122262500Y-95463000D01*
X122262500Y-96470500D01*
X122162500Y-96570500D01*
X120661500Y-96570500D01*
X120561500Y-96470500D01*
X120561500Y-95463000D01*
X120661500Y-95363000D01*
X121023000Y-95363000D01*
X121123000Y-95463000D01*
G37*
%TO.C,R4*%
G36*
X146486000Y-89536000D02*
G01*
X146486000Y-90686000D01*
X146436000Y-90736000D01*
X146016000Y-90736000D01*
X146016000Y-90291000D01*
X145566000Y-90291000D01*
X145566000Y-90731000D01*
X145156000Y-90736000D01*
X145106000Y-90686000D01*
X145106000Y-89536000D01*
X145156000Y-89486000D01*
X146436000Y-89486000D01*
X146486000Y-89536000D01*
G37*
G36*
X145566000Y-92081000D02*
G01*
X146016000Y-92081000D01*
X146016000Y-91641000D01*
X146436000Y-91636000D01*
X146486000Y-91686000D01*
X146486000Y-92836000D01*
X146436000Y-92886000D01*
X145156000Y-92886000D01*
X145106000Y-92836000D01*
X145106000Y-91686000D01*
X145156000Y-91636000D01*
X145566000Y-91631000D01*
X145566000Y-92081000D01*
G37*
%TO.C,R30*%
G36*
X130850500Y-107017500D02*
G01*
X130850500Y-108025000D01*
X130750500Y-108125000D01*
X130389000Y-108125000D01*
X130289000Y-108025000D01*
X130289000Y-107814500D01*
X130189000Y-107714500D01*
X129811000Y-107714500D01*
X129711000Y-107814500D01*
X129711000Y-108025000D01*
X129611000Y-108125000D01*
X129249500Y-108125000D01*
X129149500Y-108025000D01*
X129149500Y-107017500D01*
X129249500Y-106917500D01*
X130750500Y-106917500D01*
X130850500Y-107017500D01*
G37*
G36*
X129711000Y-109975000D02*
G01*
X129711000Y-110185500D01*
X129811000Y-110285500D01*
X130189000Y-110285500D01*
X130289000Y-110185500D01*
X130289000Y-109975000D01*
X130389000Y-109875000D01*
X130750500Y-109875000D01*
X130850500Y-109975000D01*
X130850500Y-110982500D01*
X130750500Y-111082500D01*
X129249500Y-111082500D01*
X129149500Y-110982500D01*
X129149500Y-109975000D01*
X129249500Y-109875000D01*
X129611000Y-109875000D01*
X129711000Y-109975000D01*
G37*
%TO.C,R3*%
G36*
X136980000Y-73020000D02*
G01*
X136980000Y-73440000D01*
X136535000Y-73440000D01*
X136535000Y-73890000D01*
X136975000Y-73890000D01*
X136980000Y-74300000D01*
X136930000Y-74350000D01*
X135780000Y-74350000D01*
X135730000Y-74300000D01*
X135730000Y-73020000D01*
X135780000Y-72970000D01*
X136930000Y-72970000D01*
X136980000Y-73020000D01*
G37*
G36*
X139130000Y-73020000D02*
G01*
X139130000Y-74300000D01*
X139080000Y-74350000D01*
X137930000Y-74350000D01*
X137880000Y-74300000D01*
X137875000Y-73890000D01*
X138325000Y-73890000D01*
X138325000Y-73440000D01*
X137885000Y-73440000D01*
X137880000Y-73020000D01*
X137930000Y-72970000D01*
X139080000Y-72970000D01*
X139130000Y-73020000D01*
G37*
%TO.C,R_PD1*%
G36*
X148985000Y-75449500D02*
G01*
X148985000Y-75811000D01*
X148885000Y-75911000D01*
X148674500Y-75911000D01*
X148574500Y-76011000D01*
X148574500Y-76389000D01*
X148674500Y-76489000D01*
X148885000Y-76489000D01*
X148985000Y-76589000D01*
X148985000Y-76950500D01*
X148885000Y-77050500D01*
X147877500Y-77050500D01*
X147777500Y-76950500D01*
X147777500Y-75449500D01*
X147877500Y-75349500D01*
X148885000Y-75349500D01*
X148985000Y-75449500D01*
G37*
G36*
X151942500Y-75449500D02*
G01*
X151942500Y-76950500D01*
X151842500Y-77050500D01*
X150835000Y-77050500D01*
X150735000Y-76950500D01*
X150735000Y-76589000D01*
X150835000Y-76489000D01*
X151045500Y-76489000D01*
X151145500Y-76389000D01*
X151145500Y-76011000D01*
X151045500Y-75911000D01*
X150835000Y-75911000D01*
X150735000Y-75811000D01*
X150735000Y-75449500D01*
X150835000Y-75349500D01*
X151842500Y-75349500D01*
X151942500Y-75449500D01*
G37*
%TO.C,R42*%
G36*
X125901500Y-73260000D02*
G01*
X125901500Y-73502000D01*
X125531500Y-73502000D01*
X125531500Y-73832000D01*
X125901500Y-73832000D01*
X125901500Y-74060000D01*
X125851500Y-74110000D01*
X125051500Y-74110000D01*
X125001500Y-74060000D01*
X125001500Y-73260000D01*
X125051500Y-73210000D01*
X125851500Y-73210000D01*
X125901500Y-73260000D01*
G37*
G36*
X127491500Y-73260000D02*
G01*
X127491500Y-74060000D01*
X127441500Y-74110000D01*
X126641500Y-74110000D01*
X126591500Y-74060000D01*
X126591500Y-73818000D01*
X126961500Y-73818000D01*
X126961500Y-73488000D01*
X126591500Y-73488000D01*
X126591500Y-73260000D01*
X126641500Y-73210000D01*
X127441500Y-73210000D01*
X127491500Y-73260000D01*
G37*
%TO.C,R32*%
G36*
X155050000Y-78860000D02*
G01*
X155050000Y-79280000D01*
X154605000Y-79280000D01*
X154605000Y-79730000D01*
X155045000Y-79730000D01*
X155050000Y-80140000D01*
X155000000Y-80190000D01*
X153850000Y-80190000D01*
X153800000Y-80140000D01*
X153800000Y-78860000D01*
X153850000Y-78810000D01*
X155000000Y-78810000D01*
X155050000Y-78860000D01*
G37*
G36*
X157200000Y-78860000D02*
G01*
X157200000Y-80140000D01*
X157150000Y-80190000D01*
X156000000Y-80190000D01*
X155950000Y-80140000D01*
X155945000Y-79730000D01*
X156395000Y-79730000D01*
X156395000Y-79280000D01*
X155955000Y-79280000D01*
X155950000Y-78860000D01*
X156000000Y-78810000D01*
X157150000Y-78810000D01*
X157200000Y-78860000D01*
G37*
%TO.C,R21*%
G36*
X149280000Y-131700000D02*
G01*
X149280000Y-132850000D01*
X149230000Y-132900000D01*
X148820000Y-132905000D01*
X148820000Y-132455000D01*
X148370000Y-132455000D01*
X148370000Y-132895000D01*
X147950000Y-132900000D01*
X147900000Y-132850000D01*
X147900000Y-131700000D01*
X147950000Y-131650000D01*
X149230000Y-131650000D01*
X149280000Y-131700000D01*
G37*
G36*
X148370000Y-134245000D02*
G01*
X148820000Y-134245000D01*
X148820000Y-133805000D01*
X149230000Y-133800000D01*
X149280000Y-133850000D01*
X149280000Y-135000000D01*
X149230000Y-135050000D01*
X147950000Y-135050000D01*
X147900000Y-135000000D01*
X147900000Y-133850000D01*
X147950000Y-133800000D01*
X148370000Y-133800000D01*
X148370000Y-134245000D01*
G37*
%TO.C,R_SC4*%
G36*
X168350500Y-94017500D02*
G01*
X168350500Y-95025000D01*
X168250500Y-95125000D01*
X167889000Y-95125000D01*
X167789000Y-95025000D01*
X167789000Y-94814500D01*
X167689000Y-94714500D01*
X167311000Y-94714500D01*
X167211000Y-94814500D01*
X167211000Y-95025000D01*
X167111000Y-95125000D01*
X166749500Y-95125000D01*
X166649500Y-95025000D01*
X166649500Y-94017500D01*
X166749500Y-93917500D01*
X168250500Y-93917500D01*
X168350500Y-94017500D01*
G37*
G36*
X167211000Y-96975000D02*
G01*
X167211000Y-97185500D01*
X167311000Y-97285500D01*
X167689000Y-97285500D01*
X167789000Y-97185500D01*
X167789000Y-96975000D01*
X167889000Y-96875000D01*
X168250500Y-96875000D01*
X168350500Y-96975000D01*
X168350500Y-97982500D01*
X168250500Y-98082500D01*
X166749500Y-98082500D01*
X166649500Y-97982500D01*
X166649500Y-96975000D01*
X166749500Y-96875000D01*
X167111000Y-96875000D01*
X167211000Y-96975000D01*
G37*
%TO.C,R41*%
G36*
X162300500Y-107467500D02*
G01*
X162300500Y-108475000D01*
X162200500Y-108575000D01*
X161839000Y-108575000D01*
X161739000Y-108475000D01*
X161739000Y-108264500D01*
X161639000Y-108164500D01*
X161261000Y-108164500D01*
X161161000Y-108264500D01*
X161161000Y-108475000D01*
X161061000Y-108575000D01*
X160699500Y-108575000D01*
X160599500Y-108475000D01*
X160599500Y-107467500D01*
X160699500Y-107367500D01*
X162200500Y-107367500D01*
X162300500Y-107467500D01*
G37*
G36*
X161161000Y-110425000D02*
G01*
X161161000Y-110635500D01*
X161261000Y-110735500D01*
X161639000Y-110735500D01*
X161739000Y-110635500D01*
X161739000Y-110425000D01*
X161839000Y-110325000D01*
X162200500Y-110325000D01*
X162300500Y-110425000D01*
X162300500Y-111432500D01*
X162200500Y-111532500D01*
X160699500Y-111532500D01*
X160599500Y-111432500D01*
X160599500Y-110425000D01*
X160699500Y-110325000D01*
X161061000Y-110325000D01*
X161161000Y-110425000D01*
G37*
%TD*%
D11*
%TO.C,L3*%
X115750000Y-111500000D03*
X126250000Y-111500000D03*
%TD*%
D12*
%TO.C,D2*%
X137500000Y-107950000D03*
X141900000Y-107950000D03*
%TD*%
D13*
%TO.C,R31*%
X156000000Y-76500000D03*
X156000000Y-74500000D03*
%TD*%
D12*
%TO.C,D11*%
X139000000Y-81200000D03*
X139000000Y-76800000D03*
%TD*%
D14*
%TO.C,C_T2*%
X114200000Y-103500000D03*
X112800000Y-103500000D03*
%TD*%
D15*
%TO.C,C_T3*%
X137160000Y-98998000D03*
X137160000Y-97598000D03*
%TD*%
D16*
%TO.C,R2*%
X143510000Y-73660000D03*
X141510000Y-73660000D03*
%TD*%
D17*
%TO.C,C1*%
X175020000Y-88900000D03*
X181610000Y-88900000D03*
%TD*%
%TO.C,C4*%
X175705000Y-80010000D03*
X182295000Y-80010000D03*
%TD*%
D13*
%TO.C,R22*%
X148590000Y-127270000D03*
X148590000Y-129270000D03*
%TD*%
D17*
%TO.C,C3*%
X115795000Y-92000000D03*
X109205000Y-92000000D03*
%TD*%
D16*
%TO.C,R11*%
X169180000Y-119380000D03*
X171180000Y-119380000D03*
%TD*%
D14*
%TO.C,C_T4*%
X155200000Y-105000000D03*
X153800000Y-105000000D03*
%TD*%
D18*
%TO.C,C_O2*%
X130230000Y-124460000D03*
X121230000Y-124460000D03*
%TD*%
D16*
%TO.C,R12*%
X162830000Y-121920000D03*
X164830000Y-121920000D03*
%TD*%
D12*
%TO.C,D4*%
X122200000Y-81500000D03*
X117800000Y-81500000D03*
%TD*%
D13*
%TO.C,R1*%
X147320000Y-79010000D03*
X147320000Y-81010000D03*
%TD*%
D19*
%TO.C,Q1*%
X144500000Y-79370000D03*
X144500000Y-77470000D03*
X142500000Y-78420000D03*
%TD*%
D20*
%TO.C,R_SC3*%
X112746500Y-86500000D03*
X114253500Y-86500000D03*
%TD*%
D21*
%TO.C,U4*%
X157430000Y-102095000D03*
X157430000Y-103365000D03*
X157430000Y-104635000D03*
X157430000Y-105905000D03*
X162570000Y-105905000D03*
X162570000Y-104635000D03*
X162570000Y-103365000D03*
X162570000Y-102095000D03*
%TD*%
D22*
%TO.C,R_SC1*%
X171000000Y-97979000D03*
X171000000Y-95021000D03*
%TD*%
D23*
%TO.C,L2*%
X140000000Y-111760000D03*
X140000000Y-122260000D03*
%TD*%
D22*
%TO.C,R40*%
X165000000Y-96215000D03*
X165000000Y-99173000D03*
%TD*%
D24*
%TO.C,C_O3*%
X162000000Y-78295000D03*
X162000000Y-71705000D03*
%TD*%
D22*
%TO.C,R_SC2*%
X121412000Y-95967000D03*
X121412000Y-93009000D03*
%TD*%
D21*
%TO.C,U2*%
X117930000Y-100095000D03*
X117930000Y-101365000D03*
X117930000Y-102635000D03*
X117930000Y-103905000D03*
X123070000Y-103905000D03*
X123070000Y-102635000D03*
X123070000Y-101365000D03*
X123070000Y-100095000D03*
%TD*%
D13*
%TO.C,R4*%
X145796000Y-92186000D03*
X145796000Y-90186000D03*
%TD*%
D17*
%TO.C,C_O1*%
X152160000Y-127000000D03*
X158750000Y-127000000D03*
%TD*%
D22*
%TO.C,R30*%
X130000000Y-110479000D03*
X130000000Y-107521000D03*
%TD*%
D12*
%TO.C,D3*%
X164200000Y-82500000D03*
X159800000Y-82500000D03*
%TD*%
D16*
%TO.C,R3*%
X138430000Y-73660000D03*
X136430000Y-73660000D03*
%TD*%
D11*
%TO.C,L4*%
X161950000Y-94500000D03*
X151050000Y-94500000D03*
%TD*%
D12*
%TO.C,D1*%
X161500000Y-114800000D03*
X161500000Y-119200000D03*
%TD*%
D17*
%TO.C,C2*%
X125205000Y-93980000D03*
X131795000Y-93980000D03*
%TD*%
D21*
%TO.C,U3*%
X135070000Y-105405000D03*
X135070000Y-104135000D03*
X135070000Y-102865000D03*
X135070000Y-101595000D03*
X129930000Y-101595000D03*
X129930000Y-102865000D03*
X129930000Y-104135000D03*
X129930000Y-105405000D03*
%TD*%
D25*
%TO.C,R_PD1*%
X148381000Y-76200000D03*
X151339000Y-76200000D03*
%TD*%
D20*
%TO.C,R42*%
X125493000Y-73660000D03*
X127000000Y-73660000D03*
%TD*%
D23*
%TO.C,L1*%
X153000000Y-109220000D03*
X153000000Y-119720000D03*
%TD*%
D12*
%TO.C,D10*%
X159800000Y-86000000D03*
X164200000Y-86000000D03*
%TD*%
D17*
%TO.C,C_O4*%
X121295000Y-75000000D03*
X114705000Y-75000000D03*
%TD*%
D16*
%TO.C,R32*%
X156500000Y-79500000D03*
X154500000Y-79500000D03*
%TD*%
D15*
%TO.C,C_T1*%
X167000000Y-110200000D03*
X167000000Y-111600000D03*
%TD*%
D26*
%TO.C,U5*%
X140208000Y-101266000D03*
X142748000Y-101266000D03*
X142748000Y-91266000D03*
X140208000Y-91266000D03*
%TD*%
D13*
%TO.C,R21*%
X148590000Y-132350000D03*
X148590000Y-134350000D03*
%TD*%
D22*
%TO.C,R_SC4*%
X167500000Y-97479000D03*
X167500000Y-94521000D03*
%TD*%
%TO.C,R41*%
X161450000Y-107971000D03*
X161450000Y-110929000D03*
%TD*%
D21*
%TO.C,U1*%
X168430000Y-103045000D03*
X168430000Y-104315000D03*
X168430000Y-105585000D03*
X168430000Y-106855000D03*
X173570000Y-106855000D03*
X173570000Y-105585000D03*
X173570000Y-104315000D03*
X173570000Y-103045000D03*
%TD*%
M02*
