M48
; DRILL file {KiCad 9.0.6} date 2026-02-09T00:40:38+0100
; FORMAT={-:-/ absolute / metric / decimal}
; #@! TF.CreationDate,2026-02-09T00:40:38+01:00
; #@! TF.GenerationSoftware,Kicad,Pcbnew,9.0.6
; #@! TF.FileFunction,Plated,1,2,PTH
FMAT,2
METRIC
; #@! TA.AperFunction,Plated,PTH,ViaDrill
T1C0.300
; #@! TA.AperFunction,Plated,PTH,ComponentDrill
T2C1.000
; #@! TA.AperFunction,Plated,PTH,ComponentDrill
T3C1.100
%
G90
G05
T1
X106.0Y-92.0
X109.795Y-75.0
X110.5Y-86.5
X111.0Y-103.5
X115.0Y-81.5
X116.0Y-101.0
X118.025Y-104.975
X123.0Y-106.5
X126.5Y-102.635
X127.0Y-93.0
X127.5Y-134.0
X128.5Y-104.135
X130.0Y-109.0
X134.975Y-100.025
X135.0Y-112.0
X135.5Y-94.0
X136.5Y-104.404
X139.5Y-102.0
X148.979Y-77.521
X150.5Y-139.0
X152.5Y-74.5
X153.0Y-105.0
X153.0Y-145.5
X156.0Y-103.0
X156.0Y-107.0
X156.5Y-85.0
X157.5Y-98.0
X159.0Y-108.0
X160.0Y-112.5
X162.5Y-128.5
X163.0Y-134.0
X163.5Y-69.0
X163.5Y-119.0
X164.0Y-104.5
X167.0Y-113.0
X167.5Y-98.5
X169.5Y-92.5
X169.5Y-108.0
X185.5Y-78.0
X186.5Y-87.5
T2
X141.5Y-86.5
X143.5Y-70.5
X144.0Y-86.5
X146.0Y-70.5
X146.5Y-86.5
X148.5Y-70.5
X151.0Y-70.5
X153.5Y-70.5
X169.749Y-70.0
X172.25Y-70.0
X174.75Y-70.0
X177.25Y-70.0
T3
X128.5Y-79.749
X128.5Y-82.251
X140.749Y-142.5
X143.251Y-142.5
M30
