M48
; DRILL file {KiCad 9.0.6} date 2026-04-09T11:08:58+0200
; FORMAT={-:-/ absolute / metric / decimal}
; #@! TF.CreationDate,2026-04-09T11:08:58+02:00
; #@! TF.GenerationSoftware,Kicad,Pcbnew,9.0.6
; #@! TF.FileFunction,Plated,1,2,PTH
FMAT,2
METRIC
; #@! TA.AperFunction,Plated,PTH,ViaDrill
T1C0.300
; #@! TA.AperFunction,Plated,PTH,ComponentDrill
T2C0.500
; #@! TA.AperFunction,Plated,PTH,ComponentDrill
T3C1.000
; #@! TA.AperFunction,Plated,PTH,ComponentDrill
T4C1.100
; #@! TA.AperFunction,Plated,PTH,ComponentDrill
T5C3.200
%
G90
G05
T1
X110.5Y-86.5
X115.0Y-81.5
X116.0Y-101.0
X123.0Y-106.5
X125.73Y-91.44
X126.5Y-102.635
X128.5Y-104.135
X130.0Y-109.0
X135.0Y-108.01
X135.128Y-93.218
X137.922Y-93.472
X144.018Y-88.392
X148.59Y-82.804
X150.114Y-88.646
X152.4Y-132.08
X156.5Y-85.0
X157.5Y-98.0
X159.0Y-108.0
X164.0Y-104.5
X169.5Y-92.5
X175.26Y-97.79
T2
X105.296Y-71.12
X105.804Y-130.556
X105.999Y-69.423
X105.999Y-72.817
X106.507Y-128.859
X106.507Y-132.253
X107.696Y-68.72
X107.696Y-73.52
X108.204Y-128.156
X108.204Y-132.956
X109.393Y-69.423
X109.393Y-72.817
X109.901Y-128.859
X109.901Y-132.253
X110.096Y-71.12
X110.604Y-130.556
X184.036Y-130.556
X184.739Y-128.859
X184.739Y-132.253
X186.436Y-128.156
X186.436Y-132.956
X188.133Y-128.859
X188.133Y-132.253
X188.836Y-130.556
T3
X136.009Y-68.58
X138.51Y-68.58
X141.01Y-68.58
X141.5Y-86.5
X143.51Y-68.58
X144.0Y-86.5
X146.5Y-86.5
T4
X129.559Y-85.09
X129.578Y-78.74
X132.061Y-85.09
X132.08Y-78.74
X137.16Y-127.0
X137.16Y-129.502
X143.51Y-127.0
X143.51Y-129.502
X151.13Y-68.599
X151.13Y-71.101
X170.18Y-69.85
X170.18Y-72.352
X177.8Y-69.85
X177.8Y-72.352
X185.42Y-69.888
X185.42Y-72.39
T5
X107.696Y-71.12
X108.204Y-130.556
X186.436Y-130.556
M30
