G04 #@! TF.GenerationSoftware,KiCad,Pcbnew,9.0.6*
G04 #@! TF.CreationDate,2026-02-09T00:43:42+01:00*
G04 #@! TF.ProjectId,Smartlock archi electro,536d6172-746c-46f6-936b-206172636869,rev?*
G04 #@! TF.SameCoordinates,Original*
G04 #@! TF.FileFunction,Legend,Top*
G04 #@! TF.FilePolarity,Positive*
%FSLAX46Y46*%
G04 Gerber Fmt 4.6, Leading zero omitted, Abs format (unit mm)*
G04 Created by KiCad (PCBNEW 9.0.6) date 2026-02-09 00:43:42*
%MOMM*%
%LPD*%
G01*
G04 APERTURE LIST*
%ADD10C,0.150000*%
%ADD11C,0.254000*%
%ADD12C,0.152500*%
%ADD13C,0.000000*%
%ADD14C,0.300000*%
%ADD15C,0.152000*%
%ADD16C,1.800000*%
%ADD17R,1.700000X1.700000*%
%ADD18C,1.700000*%
%ADD19R,1.377000X1.132500*%
%ADD20R,1.132500X1.377000*%
%ADD21R,2.000000X2.000000*%
%ADD22R,0.565500X0.540000*%
%ADD23R,3.610000X1.260000*%
%ADD24R,1.600000X1.600000*%
%ADD25C,1.600000*%
%ADD26O,2.045000X0.588000*%
%ADD27R,1.701000X1.207500*%
%ADD28R,0.806500X0.864000*%
%ADD29R,1.250000X0.700000*%
%ADD30R,2.900000X5.400000*%
%ADD31R,5.400000X2.900000*%
%ADD32R,0.800000X0.900000*%
%ADD33R,0.900000X0.800000*%
%ADD34R,1.260000X3.610000*%
%ADD35R,4.500000X1.650000*%
G04 APERTURE END LIST*
D10*
X141300681Y-146355319D02*
X141300681Y-147164842D01*
X141300681Y-147164842D02*
X141348300Y-147260080D01*
X141348300Y-147260080D02*
X141395919Y-147307700D01*
X141395919Y-147307700D02*
X141491157Y-147355319D01*
X141491157Y-147355319D02*
X141681633Y-147355319D01*
X141681633Y-147355319D02*
X141776871Y-147307700D01*
X141776871Y-147307700D02*
X141824490Y-147260080D01*
X141824490Y-147260080D02*
X141872109Y-147164842D01*
X141872109Y-147164842D02*
X141872109Y-146355319D01*
X142491157Y-147260080D02*
X142538776Y-147307700D01*
X142538776Y-147307700D02*
X142491157Y-147355319D01*
X142491157Y-147355319D02*
X142443538Y-147307700D01*
X142443538Y-147307700D02*
X142491157Y-147260080D01*
X142491157Y-147260080D02*
X142491157Y-147355319D01*
X142300681Y-146402938D02*
X142395919Y-146355319D01*
X142395919Y-146355319D02*
X142634014Y-146355319D01*
X142634014Y-146355319D02*
X142729252Y-146402938D01*
X142729252Y-146402938D02*
X142776871Y-146498176D01*
X142776871Y-146498176D02*
X142776871Y-146593414D01*
X142776871Y-146593414D02*
X142729252Y-146688652D01*
X142729252Y-146688652D02*
X142681633Y-146736271D01*
X142681633Y-146736271D02*
X142586395Y-146783890D01*
X142586395Y-146783890D02*
X142538776Y-146831509D01*
X142538776Y-146831509D02*
X142491157Y-146926747D01*
X142491157Y-146926747D02*
X142491157Y-146974366D01*
X172770747Y-65076319D02*
X172770747Y-65885842D01*
X172770747Y-65885842D02*
X172818366Y-65981080D01*
X172818366Y-65981080D02*
X172865985Y-66028700D01*
X172865985Y-66028700D02*
X172961223Y-66076319D01*
X172961223Y-66076319D02*
X173151699Y-66076319D01*
X173151699Y-66076319D02*
X173246937Y-66028700D01*
X173246937Y-66028700D02*
X173294556Y-65981080D01*
X173294556Y-65981080D02*
X173342175Y-65885842D01*
X173342175Y-65885842D02*
X173342175Y-65076319D01*
X173961223Y-65981080D02*
X174008842Y-66028700D01*
X174008842Y-66028700D02*
X173961223Y-66076319D01*
X173961223Y-66076319D02*
X173913604Y-66028700D01*
X173913604Y-66028700D02*
X173961223Y-65981080D01*
X173961223Y-65981080D02*
X173961223Y-66076319D01*
X173770747Y-65123938D02*
X173865985Y-65076319D01*
X173865985Y-65076319D02*
X174104080Y-65076319D01*
X174104080Y-65076319D02*
X174199318Y-65123938D01*
X174199318Y-65123938D02*
X174246937Y-65219176D01*
X174246937Y-65219176D02*
X174246937Y-65314414D01*
X174246937Y-65314414D02*
X174199318Y-65409652D01*
X174199318Y-65409652D02*
X174151699Y-65457271D01*
X174151699Y-65457271D02*
X174056461Y-65504890D01*
X174056461Y-65504890D02*
X174008842Y-65552509D01*
X174008842Y-65552509D02*
X173961223Y-65647747D01*
X173961223Y-65647747D02*
X173961223Y-65695366D01*
X154761569Y-76142857D02*
X154285378Y-76476190D01*
X154761569Y-76714285D02*
X153761569Y-76714285D01*
X153761569Y-76714285D02*
X153761569Y-76333333D01*
X153761569Y-76333333D02*
X153809188Y-76238095D01*
X153809188Y-76238095D02*
X153856807Y-76190476D01*
X153856807Y-76190476D02*
X153952045Y-76142857D01*
X153952045Y-76142857D02*
X154094902Y-76142857D01*
X154094902Y-76142857D02*
X154190140Y-76190476D01*
X154190140Y-76190476D02*
X154237759Y-76238095D01*
X154237759Y-76238095D02*
X154285378Y-76333333D01*
X154285378Y-76333333D02*
X154285378Y-76714285D01*
X153761569Y-75809523D02*
X153761569Y-75190476D01*
X153761569Y-75190476D02*
X154142521Y-75523809D01*
X154142521Y-75523809D02*
X154142521Y-75380952D01*
X154142521Y-75380952D02*
X154190140Y-75285714D01*
X154190140Y-75285714D02*
X154237759Y-75238095D01*
X154237759Y-75238095D02*
X154332997Y-75190476D01*
X154332997Y-75190476D02*
X154571092Y-75190476D01*
X154571092Y-75190476D02*
X154666330Y-75238095D01*
X154666330Y-75238095D02*
X154713950Y-75285714D01*
X154713950Y-75285714D02*
X154761569Y-75380952D01*
X154761569Y-75380952D02*
X154761569Y-75666666D01*
X154761569Y-75666666D02*
X154713950Y-75761904D01*
X154713950Y-75761904D02*
X154666330Y-75809523D01*
X154761569Y-74238095D02*
X154761569Y-74809523D01*
X154761569Y-74523809D02*
X153761569Y-74523809D01*
X153761569Y-74523809D02*
X153904426Y-74619047D01*
X153904426Y-74619047D02*
X153999664Y-74714285D01*
X153999664Y-74714285D02*
X154047283Y-74809523D01*
X154857142Y-81648069D02*
X154523809Y-81171878D01*
X154285714Y-81648069D02*
X154285714Y-80648069D01*
X154285714Y-80648069D02*
X154666666Y-80648069D01*
X154666666Y-80648069D02*
X154761904Y-80695688D01*
X154761904Y-80695688D02*
X154809523Y-80743307D01*
X154809523Y-80743307D02*
X154857142Y-80838545D01*
X154857142Y-80838545D02*
X154857142Y-80981402D01*
X154857142Y-80981402D02*
X154809523Y-81076640D01*
X154809523Y-81076640D02*
X154761904Y-81124259D01*
X154761904Y-81124259D02*
X154666666Y-81171878D01*
X154666666Y-81171878D02*
X154285714Y-81171878D01*
X155190476Y-80648069D02*
X155809523Y-80648069D01*
X155809523Y-80648069D02*
X155476190Y-81029021D01*
X155476190Y-81029021D02*
X155619047Y-81029021D01*
X155619047Y-81029021D02*
X155714285Y-81076640D01*
X155714285Y-81076640D02*
X155761904Y-81124259D01*
X155761904Y-81124259D02*
X155809523Y-81219497D01*
X155809523Y-81219497D02*
X155809523Y-81457592D01*
X155809523Y-81457592D02*
X155761904Y-81552830D01*
X155761904Y-81552830D02*
X155714285Y-81600450D01*
X155714285Y-81600450D02*
X155619047Y-81648069D01*
X155619047Y-81648069D02*
X155333333Y-81648069D01*
X155333333Y-81648069D02*
X155238095Y-81600450D01*
X155238095Y-81600450D02*
X155190476Y-81552830D01*
X156190476Y-80743307D02*
X156238095Y-80695688D01*
X156238095Y-80695688D02*
X156333333Y-80648069D01*
X156333333Y-80648069D02*
X156571428Y-80648069D01*
X156571428Y-80648069D02*
X156666666Y-80695688D01*
X156666666Y-80695688D02*
X156714285Y-80743307D01*
X156714285Y-80743307D02*
X156761904Y-80838545D01*
X156761904Y-80838545D02*
X156761904Y-80933783D01*
X156761904Y-80933783D02*
X156714285Y-81076640D01*
X156714285Y-81076640D02*
X156142857Y-81648069D01*
X156142857Y-81648069D02*
X156761904Y-81648069D01*
X161261905Y-85255319D02*
X161261905Y-84255319D01*
X161261905Y-84255319D02*
X161500000Y-84255319D01*
X161500000Y-84255319D02*
X161642857Y-84302938D01*
X161642857Y-84302938D02*
X161738095Y-84398176D01*
X161738095Y-84398176D02*
X161785714Y-84493414D01*
X161785714Y-84493414D02*
X161833333Y-84683890D01*
X161833333Y-84683890D02*
X161833333Y-84826747D01*
X161833333Y-84826747D02*
X161785714Y-85017223D01*
X161785714Y-85017223D02*
X161738095Y-85112461D01*
X161738095Y-85112461D02*
X161642857Y-85207700D01*
X161642857Y-85207700D02*
X161500000Y-85255319D01*
X161500000Y-85255319D02*
X161261905Y-85255319D01*
X162166667Y-84255319D02*
X162785714Y-84255319D01*
X162785714Y-84255319D02*
X162452381Y-84636271D01*
X162452381Y-84636271D02*
X162595238Y-84636271D01*
X162595238Y-84636271D02*
X162690476Y-84683890D01*
X162690476Y-84683890D02*
X162738095Y-84731509D01*
X162738095Y-84731509D02*
X162785714Y-84826747D01*
X162785714Y-84826747D02*
X162785714Y-85064842D01*
X162785714Y-85064842D02*
X162738095Y-85160080D01*
X162738095Y-85160080D02*
X162690476Y-85207700D01*
X162690476Y-85207700D02*
X162595238Y-85255319D01*
X162595238Y-85255319D02*
X162309524Y-85255319D01*
X162309524Y-85255319D02*
X162214286Y-85207700D01*
X162214286Y-85207700D02*
X162166667Y-85160080D01*
X168785714Y-77154319D02*
X168785714Y-76154319D01*
X168785714Y-76154319D02*
X169023809Y-76154319D01*
X169023809Y-76154319D02*
X169166666Y-76201938D01*
X169166666Y-76201938D02*
X169261904Y-76297176D01*
X169261904Y-76297176D02*
X169309523Y-76392414D01*
X169309523Y-76392414D02*
X169357142Y-76582890D01*
X169357142Y-76582890D02*
X169357142Y-76725747D01*
X169357142Y-76725747D02*
X169309523Y-76916223D01*
X169309523Y-76916223D02*
X169261904Y-77011461D01*
X169261904Y-77011461D02*
X169166666Y-77106700D01*
X169166666Y-77106700D02*
X169023809Y-77154319D01*
X169023809Y-77154319D02*
X168785714Y-77154319D01*
X170309523Y-77154319D02*
X169738095Y-77154319D01*
X170023809Y-77154319D02*
X170023809Y-76154319D01*
X170023809Y-76154319D02*
X169928571Y-76297176D01*
X169928571Y-76297176D02*
X169833333Y-76392414D01*
X169833333Y-76392414D02*
X169738095Y-76440033D01*
X170690476Y-76249557D02*
X170738095Y-76201938D01*
X170738095Y-76201938D02*
X170833333Y-76154319D01*
X170833333Y-76154319D02*
X171071428Y-76154319D01*
X171071428Y-76154319D02*
X171166666Y-76201938D01*
X171166666Y-76201938D02*
X171214285Y-76249557D01*
X171214285Y-76249557D02*
X171261904Y-76344795D01*
X171261904Y-76344795D02*
X171261904Y-76440033D01*
X171261904Y-76440033D02*
X171214285Y-76582890D01*
X171214285Y-76582890D02*
X170642857Y-77154319D01*
X170642857Y-77154319D02*
X171261904Y-77154319D01*
X143269247Y-81554319D02*
X143269247Y-82363842D01*
X143269247Y-82363842D02*
X143316866Y-82459080D01*
X143316866Y-82459080D02*
X143364485Y-82506700D01*
X143364485Y-82506700D02*
X143459723Y-82554319D01*
X143459723Y-82554319D02*
X143650199Y-82554319D01*
X143650199Y-82554319D02*
X143745437Y-82506700D01*
X143745437Y-82506700D02*
X143793056Y-82459080D01*
X143793056Y-82459080D02*
X143840675Y-82363842D01*
X143840675Y-82363842D02*
X143840675Y-81554319D01*
X144459723Y-82459080D02*
X144507342Y-82506700D01*
X144507342Y-82506700D02*
X144459723Y-82554319D01*
X144459723Y-82554319D02*
X144412104Y-82506700D01*
X144412104Y-82506700D02*
X144459723Y-82459080D01*
X144459723Y-82459080D02*
X144459723Y-82554319D01*
X144269247Y-81601938D02*
X144364485Y-81554319D01*
X144364485Y-81554319D02*
X144602580Y-81554319D01*
X144602580Y-81554319D02*
X144697818Y-81601938D01*
X144697818Y-81601938D02*
X144745437Y-81697176D01*
X144745437Y-81697176D02*
X144745437Y-81792414D01*
X144745437Y-81792414D02*
X144697818Y-81887652D01*
X144697818Y-81887652D02*
X144650199Y-81935271D01*
X144650199Y-81935271D02*
X144554961Y-81982890D01*
X144554961Y-81982890D02*
X144507342Y-82030509D01*
X144507342Y-82030509D02*
X144459723Y-82125747D01*
X144459723Y-82125747D02*
X144459723Y-82173366D01*
X132355319Y-81699318D02*
X133164842Y-81699318D01*
X133164842Y-81699318D02*
X133260080Y-81651699D01*
X133260080Y-81651699D02*
X133307700Y-81604080D01*
X133307700Y-81604080D02*
X133355319Y-81508842D01*
X133355319Y-81508842D02*
X133355319Y-81318366D01*
X133355319Y-81318366D02*
X133307700Y-81223128D01*
X133307700Y-81223128D02*
X133260080Y-81175509D01*
X133260080Y-81175509D02*
X133164842Y-81127890D01*
X133164842Y-81127890D02*
X132355319Y-81127890D01*
X133260080Y-80508842D02*
X133307700Y-80461223D01*
X133307700Y-80461223D02*
X133355319Y-80508842D01*
X133355319Y-80508842D02*
X133307700Y-80556461D01*
X133307700Y-80556461D02*
X133260080Y-80508842D01*
X133260080Y-80508842D02*
X133355319Y-80508842D01*
X132402938Y-80699318D02*
X132355319Y-80604080D01*
X132355319Y-80604080D02*
X132355319Y-80365985D01*
X132355319Y-80365985D02*
X132402938Y-80270747D01*
X132402938Y-80270747D02*
X132498176Y-80223128D01*
X132498176Y-80223128D02*
X132593414Y-80223128D01*
X132593414Y-80223128D02*
X132688652Y-80270747D01*
X132688652Y-80270747D02*
X132736271Y-80318366D01*
X132736271Y-80318366D02*
X132783890Y-80413604D01*
X132783890Y-80413604D02*
X132831509Y-80461223D01*
X132831509Y-80461223D02*
X132926747Y-80508842D01*
X132926747Y-80508842D02*
X132974366Y-80508842D01*
X124357142Y-74180069D02*
X124023809Y-73703878D01*
X123785714Y-74180069D02*
X123785714Y-73180069D01*
X123785714Y-73180069D02*
X124166666Y-73180069D01*
X124166666Y-73180069D02*
X124261904Y-73227688D01*
X124261904Y-73227688D02*
X124309523Y-73275307D01*
X124309523Y-73275307D02*
X124357142Y-73370545D01*
X124357142Y-73370545D02*
X124357142Y-73513402D01*
X124357142Y-73513402D02*
X124309523Y-73608640D01*
X124309523Y-73608640D02*
X124261904Y-73656259D01*
X124261904Y-73656259D02*
X124166666Y-73703878D01*
X124166666Y-73703878D02*
X123785714Y-73703878D01*
X125214285Y-73513402D02*
X125214285Y-74180069D01*
X124976190Y-73132450D02*
X124738095Y-73846735D01*
X124738095Y-73846735D02*
X125357142Y-73846735D01*
X125690476Y-73275307D02*
X125738095Y-73227688D01*
X125738095Y-73227688D02*
X125833333Y-73180069D01*
X125833333Y-73180069D02*
X126071428Y-73180069D01*
X126071428Y-73180069D02*
X126166666Y-73227688D01*
X126166666Y-73227688D02*
X126214285Y-73275307D01*
X126214285Y-73275307D02*
X126261904Y-73370545D01*
X126261904Y-73370545D02*
X126261904Y-73465783D01*
X126261904Y-73465783D02*
X126214285Y-73608640D01*
X126214285Y-73608640D02*
X125642857Y-74180069D01*
X125642857Y-74180069D02*
X126261904Y-74180069D01*
X116928571Y-80510080D02*
X116880952Y-80557700D01*
X116880952Y-80557700D02*
X116738095Y-80605319D01*
X116738095Y-80605319D02*
X116642857Y-80605319D01*
X116642857Y-80605319D02*
X116500000Y-80557700D01*
X116500000Y-80557700D02*
X116404762Y-80462461D01*
X116404762Y-80462461D02*
X116357143Y-80367223D01*
X116357143Y-80367223D02*
X116309524Y-80176747D01*
X116309524Y-80176747D02*
X116309524Y-80033890D01*
X116309524Y-80033890D02*
X116357143Y-79843414D01*
X116357143Y-79843414D02*
X116404762Y-79748176D01*
X116404762Y-79748176D02*
X116500000Y-79652938D01*
X116500000Y-79652938D02*
X116642857Y-79605319D01*
X116642857Y-79605319D02*
X116738095Y-79605319D01*
X116738095Y-79605319D02*
X116880952Y-79652938D01*
X116880952Y-79652938D02*
X116928571Y-79700557D01*
X117119048Y-80700557D02*
X117880952Y-80700557D01*
X118309524Y-79605319D02*
X118500000Y-79605319D01*
X118500000Y-79605319D02*
X118595238Y-79652938D01*
X118595238Y-79652938D02*
X118690476Y-79748176D01*
X118690476Y-79748176D02*
X118738095Y-79938652D01*
X118738095Y-79938652D02*
X118738095Y-80271985D01*
X118738095Y-80271985D02*
X118690476Y-80462461D01*
X118690476Y-80462461D02*
X118595238Y-80557700D01*
X118595238Y-80557700D02*
X118500000Y-80605319D01*
X118500000Y-80605319D02*
X118309524Y-80605319D01*
X118309524Y-80605319D02*
X118214286Y-80557700D01*
X118214286Y-80557700D02*
X118119048Y-80462461D01*
X118119048Y-80462461D02*
X118071429Y-80271985D01*
X118071429Y-80271985D02*
X118071429Y-79938652D01*
X118071429Y-79938652D02*
X118119048Y-79748176D01*
X118119048Y-79748176D02*
X118214286Y-79652938D01*
X118214286Y-79652938D02*
X118309524Y-79605319D01*
X119595238Y-79938652D02*
X119595238Y-80605319D01*
X119357143Y-79557700D02*
X119119048Y-80271985D01*
X119119048Y-80271985D02*
X119738095Y-80271985D01*
X147770747Y-65474386D02*
X147770747Y-66283909D01*
X147770747Y-66283909D02*
X147818366Y-66379147D01*
X147818366Y-66379147D02*
X147865985Y-66426767D01*
X147865985Y-66426767D02*
X147961223Y-66474386D01*
X147961223Y-66474386D02*
X148151699Y-66474386D01*
X148151699Y-66474386D02*
X148246937Y-66426767D01*
X148246937Y-66426767D02*
X148294556Y-66379147D01*
X148294556Y-66379147D02*
X148342175Y-66283909D01*
X148342175Y-66283909D02*
X148342175Y-65474386D01*
X148961223Y-66379147D02*
X149008842Y-66426767D01*
X149008842Y-66426767D02*
X148961223Y-66474386D01*
X148961223Y-66474386D02*
X148913604Y-66426767D01*
X148913604Y-66426767D02*
X148961223Y-66379147D01*
X148961223Y-66379147D02*
X148961223Y-66474386D01*
X148770747Y-65522005D02*
X148865985Y-65474386D01*
X148865985Y-65474386D02*
X149104080Y-65474386D01*
X149104080Y-65474386D02*
X149199318Y-65522005D01*
X149199318Y-65522005D02*
X149246937Y-65617243D01*
X149246937Y-65617243D02*
X149246937Y-65712481D01*
X149246937Y-65712481D02*
X149199318Y-65807719D01*
X149199318Y-65807719D02*
X149151699Y-65855338D01*
X149151699Y-65855338D02*
X149056461Y-65902957D01*
X149056461Y-65902957D02*
X149008842Y-65950576D01*
X149008842Y-65950576D02*
X148961223Y-66045814D01*
X148961223Y-66045814D02*
X148961223Y-66093433D01*
X164022319Y-104661404D02*
X164831842Y-104661404D01*
X164831842Y-104661404D02*
X164927080Y-104613785D01*
X164927080Y-104613785D02*
X164974700Y-104566166D01*
X164974700Y-104566166D02*
X165022319Y-104470928D01*
X165022319Y-104470928D02*
X165022319Y-104280452D01*
X165022319Y-104280452D02*
X164974700Y-104185214D01*
X164974700Y-104185214D02*
X164927080Y-104137595D01*
X164927080Y-104137595D02*
X164831842Y-104089976D01*
X164831842Y-104089976D02*
X164022319Y-104089976D01*
X164355652Y-103185214D02*
X165022319Y-103185214D01*
X163974700Y-103423309D02*
X164688985Y-103661404D01*
X164688985Y-103661404D02*
X164688985Y-103042357D01*
X127387319Y-104362404D02*
X128196842Y-104362404D01*
X128196842Y-104362404D02*
X128292080Y-104314785D01*
X128292080Y-104314785D02*
X128339700Y-104267166D01*
X128339700Y-104267166D02*
X128387319Y-104171928D01*
X128387319Y-104171928D02*
X128387319Y-103981452D01*
X128387319Y-103981452D02*
X128339700Y-103886214D01*
X128339700Y-103886214D02*
X128292080Y-103838595D01*
X128292080Y-103838595D02*
X128196842Y-103790976D01*
X128196842Y-103790976D02*
X127387319Y-103790976D01*
X127387319Y-103410023D02*
X127387319Y-102790976D01*
X127387319Y-102790976D02*
X127768271Y-103124309D01*
X127768271Y-103124309D02*
X127768271Y-102981452D01*
X127768271Y-102981452D02*
X127815890Y-102886214D01*
X127815890Y-102886214D02*
X127863509Y-102838595D01*
X127863509Y-102838595D02*
X127958747Y-102790976D01*
X127958747Y-102790976D02*
X128196842Y-102790976D01*
X128196842Y-102790976D02*
X128292080Y-102838595D01*
X128292080Y-102838595D02*
X128339700Y-102886214D01*
X128339700Y-102886214D02*
X128387319Y-102981452D01*
X128387319Y-102981452D02*
X128387319Y-103267166D01*
X128387319Y-103267166D02*
X128339700Y-103362404D01*
X128339700Y-103362404D02*
X128292080Y-103410023D01*
X124522319Y-102661404D02*
X125331842Y-102661404D01*
X125331842Y-102661404D02*
X125427080Y-102613785D01*
X125427080Y-102613785D02*
X125474700Y-102566166D01*
X125474700Y-102566166D02*
X125522319Y-102470928D01*
X125522319Y-102470928D02*
X125522319Y-102280452D01*
X125522319Y-102280452D02*
X125474700Y-102185214D01*
X125474700Y-102185214D02*
X125427080Y-102137595D01*
X125427080Y-102137595D02*
X125331842Y-102089976D01*
X125331842Y-102089976D02*
X124522319Y-102089976D01*
X124617557Y-101661404D02*
X124569938Y-101613785D01*
X124569938Y-101613785D02*
X124522319Y-101518547D01*
X124522319Y-101518547D02*
X124522319Y-101280452D01*
X124522319Y-101280452D02*
X124569938Y-101185214D01*
X124569938Y-101185214D02*
X124617557Y-101137595D01*
X124617557Y-101137595D02*
X124712795Y-101089976D01*
X124712795Y-101089976D02*
X124808033Y-101089976D01*
X124808033Y-101089976D02*
X124950890Y-101137595D01*
X124950890Y-101137595D02*
X125522319Y-101709023D01*
X125522319Y-101709023D02*
X125522319Y-101089976D01*
X175022319Y-105611404D02*
X175831842Y-105611404D01*
X175831842Y-105611404D02*
X175927080Y-105563785D01*
X175927080Y-105563785D02*
X175974700Y-105516166D01*
X175974700Y-105516166D02*
X176022319Y-105420928D01*
X176022319Y-105420928D02*
X176022319Y-105230452D01*
X176022319Y-105230452D02*
X175974700Y-105135214D01*
X175974700Y-105135214D02*
X175927080Y-105087595D01*
X175927080Y-105087595D02*
X175831842Y-105039976D01*
X175831842Y-105039976D02*
X175022319Y-105039976D01*
X176022319Y-104039976D02*
X176022319Y-104611404D01*
X176022319Y-104325690D02*
X175022319Y-104325690D01*
X175022319Y-104325690D02*
X175165176Y-104420928D01*
X175165176Y-104420928D02*
X175260414Y-104516166D01*
X175260414Y-104516166D02*
X175308033Y-104611404D01*
X166099569Y-97523809D02*
X165623378Y-97857142D01*
X166099569Y-98095237D02*
X165099569Y-98095237D01*
X165099569Y-98095237D02*
X165099569Y-97714285D01*
X165099569Y-97714285D02*
X165147188Y-97619047D01*
X165147188Y-97619047D02*
X165194807Y-97571428D01*
X165194807Y-97571428D02*
X165290045Y-97523809D01*
X165290045Y-97523809D02*
X165432902Y-97523809D01*
X165432902Y-97523809D02*
X165528140Y-97571428D01*
X165528140Y-97571428D02*
X165575759Y-97619047D01*
X165575759Y-97619047D02*
X165623378Y-97714285D01*
X165623378Y-97714285D02*
X165623378Y-98095237D01*
X166194807Y-97333333D02*
X166194807Y-96571428D01*
X166051950Y-96380951D02*
X166099569Y-96238094D01*
X166099569Y-96238094D02*
X166099569Y-95999999D01*
X166099569Y-95999999D02*
X166051950Y-95904761D01*
X166051950Y-95904761D02*
X166004330Y-95857142D01*
X166004330Y-95857142D02*
X165909092Y-95809523D01*
X165909092Y-95809523D02*
X165813854Y-95809523D01*
X165813854Y-95809523D02*
X165718616Y-95857142D01*
X165718616Y-95857142D02*
X165670997Y-95904761D01*
X165670997Y-95904761D02*
X165623378Y-95999999D01*
X165623378Y-95999999D02*
X165575759Y-96190475D01*
X165575759Y-96190475D02*
X165528140Y-96285713D01*
X165528140Y-96285713D02*
X165480521Y-96333332D01*
X165480521Y-96333332D02*
X165385283Y-96380951D01*
X165385283Y-96380951D02*
X165290045Y-96380951D01*
X165290045Y-96380951D02*
X165194807Y-96333332D01*
X165194807Y-96333332D02*
X165147188Y-96285713D01*
X165147188Y-96285713D02*
X165099569Y-96190475D01*
X165099569Y-96190475D02*
X165099569Y-95952380D01*
X165099569Y-95952380D02*
X165147188Y-95809523D01*
X166004330Y-94809523D02*
X166051950Y-94857142D01*
X166051950Y-94857142D02*
X166099569Y-94999999D01*
X166099569Y-94999999D02*
X166099569Y-95095237D01*
X166099569Y-95095237D02*
X166051950Y-95238094D01*
X166051950Y-95238094D02*
X165956711Y-95333332D01*
X165956711Y-95333332D02*
X165861473Y-95380951D01*
X165861473Y-95380951D02*
X165670997Y-95428570D01*
X165670997Y-95428570D02*
X165528140Y-95428570D01*
X165528140Y-95428570D02*
X165337664Y-95380951D01*
X165337664Y-95380951D02*
X165242426Y-95333332D01*
X165242426Y-95333332D02*
X165147188Y-95238094D01*
X165147188Y-95238094D02*
X165099569Y-95095237D01*
X165099569Y-95095237D02*
X165099569Y-94999999D01*
X165099569Y-94999999D02*
X165147188Y-94857142D01*
X165147188Y-94857142D02*
X165194807Y-94809523D01*
X165432902Y-93952380D02*
X166099569Y-93952380D01*
X165051950Y-94190475D02*
X165766235Y-94428570D01*
X165766235Y-94428570D02*
X165766235Y-93809523D01*
X111976190Y-85518069D02*
X111642857Y-85041878D01*
X111404762Y-85518069D02*
X111404762Y-84518069D01*
X111404762Y-84518069D02*
X111785714Y-84518069D01*
X111785714Y-84518069D02*
X111880952Y-84565688D01*
X111880952Y-84565688D02*
X111928571Y-84613307D01*
X111928571Y-84613307D02*
X111976190Y-84708545D01*
X111976190Y-84708545D02*
X111976190Y-84851402D01*
X111976190Y-84851402D02*
X111928571Y-84946640D01*
X111928571Y-84946640D02*
X111880952Y-84994259D01*
X111880952Y-84994259D02*
X111785714Y-85041878D01*
X111785714Y-85041878D02*
X111404762Y-85041878D01*
X112166667Y-85613307D02*
X112928571Y-85613307D01*
X113119048Y-85470450D02*
X113261905Y-85518069D01*
X113261905Y-85518069D02*
X113500000Y-85518069D01*
X113500000Y-85518069D02*
X113595238Y-85470450D01*
X113595238Y-85470450D02*
X113642857Y-85422830D01*
X113642857Y-85422830D02*
X113690476Y-85327592D01*
X113690476Y-85327592D02*
X113690476Y-85232354D01*
X113690476Y-85232354D02*
X113642857Y-85137116D01*
X113642857Y-85137116D02*
X113595238Y-85089497D01*
X113595238Y-85089497D02*
X113500000Y-85041878D01*
X113500000Y-85041878D02*
X113309524Y-84994259D01*
X113309524Y-84994259D02*
X113214286Y-84946640D01*
X113214286Y-84946640D02*
X113166667Y-84899021D01*
X113166667Y-84899021D02*
X113119048Y-84803783D01*
X113119048Y-84803783D02*
X113119048Y-84708545D01*
X113119048Y-84708545D02*
X113166667Y-84613307D01*
X113166667Y-84613307D02*
X113214286Y-84565688D01*
X113214286Y-84565688D02*
X113309524Y-84518069D01*
X113309524Y-84518069D02*
X113547619Y-84518069D01*
X113547619Y-84518069D02*
X113690476Y-84565688D01*
X114690476Y-85422830D02*
X114642857Y-85470450D01*
X114642857Y-85470450D02*
X114500000Y-85518069D01*
X114500000Y-85518069D02*
X114404762Y-85518069D01*
X114404762Y-85518069D02*
X114261905Y-85470450D01*
X114261905Y-85470450D02*
X114166667Y-85375211D01*
X114166667Y-85375211D02*
X114119048Y-85279973D01*
X114119048Y-85279973D02*
X114071429Y-85089497D01*
X114071429Y-85089497D02*
X114071429Y-84946640D01*
X114071429Y-84946640D02*
X114119048Y-84756164D01*
X114119048Y-84756164D02*
X114166667Y-84660926D01*
X114166667Y-84660926D02*
X114261905Y-84565688D01*
X114261905Y-84565688D02*
X114404762Y-84518069D01*
X114404762Y-84518069D02*
X114500000Y-84518069D01*
X114500000Y-84518069D02*
X114642857Y-84565688D01*
X114642857Y-84565688D02*
X114690476Y-84613307D01*
X115023810Y-84518069D02*
X115642857Y-84518069D01*
X115642857Y-84518069D02*
X115309524Y-84899021D01*
X115309524Y-84899021D02*
X115452381Y-84899021D01*
X115452381Y-84899021D02*
X115547619Y-84946640D01*
X115547619Y-84946640D02*
X115595238Y-84994259D01*
X115595238Y-84994259D02*
X115642857Y-85089497D01*
X115642857Y-85089497D02*
X115642857Y-85327592D01*
X115642857Y-85327592D02*
X115595238Y-85422830D01*
X115595238Y-85422830D02*
X115547619Y-85470450D01*
X115547619Y-85470450D02*
X115452381Y-85518069D01*
X115452381Y-85518069D02*
X115166667Y-85518069D01*
X115166667Y-85518069D02*
X115071429Y-85470450D01*
X115071429Y-85470450D02*
X115023810Y-85422830D01*
X120099569Y-96023809D02*
X119623378Y-96357142D01*
X120099569Y-96595237D02*
X119099569Y-96595237D01*
X119099569Y-96595237D02*
X119099569Y-96214285D01*
X119099569Y-96214285D02*
X119147188Y-96119047D01*
X119147188Y-96119047D02*
X119194807Y-96071428D01*
X119194807Y-96071428D02*
X119290045Y-96023809D01*
X119290045Y-96023809D02*
X119432902Y-96023809D01*
X119432902Y-96023809D02*
X119528140Y-96071428D01*
X119528140Y-96071428D02*
X119575759Y-96119047D01*
X119575759Y-96119047D02*
X119623378Y-96214285D01*
X119623378Y-96214285D02*
X119623378Y-96595237D01*
X120194807Y-95833333D02*
X120194807Y-95071428D01*
X120051950Y-94880951D02*
X120099569Y-94738094D01*
X120099569Y-94738094D02*
X120099569Y-94499999D01*
X120099569Y-94499999D02*
X120051950Y-94404761D01*
X120051950Y-94404761D02*
X120004330Y-94357142D01*
X120004330Y-94357142D02*
X119909092Y-94309523D01*
X119909092Y-94309523D02*
X119813854Y-94309523D01*
X119813854Y-94309523D02*
X119718616Y-94357142D01*
X119718616Y-94357142D02*
X119670997Y-94404761D01*
X119670997Y-94404761D02*
X119623378Y-94499999D01*
X119623378Y-94499999D02*
X119575759Y-94690475D01*
X119575759Y-94690475D02*
X119528140Y-94785713D01*
X119528140Y-94785713D02*
X119480521Y-94833332D01*
X119480521Y-94833332D02*
X119385283Y-94880951D01*
X119385283Y-94880951D02*
X119290045Y-94880951D01*
X119290045Y-94880951D02*
X119194807Y-94833332D01*
X119194807Y-94833332D02*
X119147188Y-94785713D01*
X119147188Y-94785713D02*
X119099569Y-94690475D01*
X119099569Y-94690475D02*
X119099569Y-94452380D01*
X119099569Y-94452380D02*
X119147188Y-94309523D01*
X120004330Y-93309523D02*
X120051950Y-93357142D01*
X120051950Y-93357142D02*
X120099569Y-93499999D01*
X120099569Y-93499999D02*
X120099569Y-93595237D01*
X120099569Y-93595237D02*
X120051950Y-93738094D01*
X120051950Y-93738094D02*
X119956711Y-93833332D01*
X119956711Y-93833332D02*
X119861473Y-93880951D01*
X119861473Y-93880951D02*
X119670997Y-93928570D01*
X119670997Y-93928570D02*
X119528140Y-93928570D01*
X119528140Y-93928570D02*
X119337664Y-93880951D01*
X119337664Y-93880951D02*
X119242426Y-93833332D01*
X119242426Y-93833332D02*
X119147188Y-93738094D01*
X119147188Y-93738094D02*
X119099569Y-93595237D01*
X119099569Y-93595237D02*
X119099569Y-93499999D01*
X119099569Y-93499999D02*
X119147188Y-93357142D01*
X119147188Y-93357142D02*
X119194807Y-93309523D01*
X119194807Y-92928570D02*
X119147188Y-92880951D01*
X119147188Y-92880951D02*
X119099569Y-92785713D01*
X119099569Y-92785713D02*
X119099569Y-92547618D01*
X119099569Y-92547618D02*
X119147188Y-92452380D01*
X119147188Y-92452380D02*
X119194807Y-92404761D01*
X119194807Y-92404761D02*
X119290045Y-92357142D01*
X119290045Y-92357142D02*
X119385283Y-92357142D01*
X119385283Y-92357142D02*
X119528140Y-92404761D01*
X119528140Y-92404761D02*
X120099569Y-92976189D01*
X120099569Y-92976189D02*
X120099569Y-92357142D01*
X169599569Y-98023809D02*
X169123378Y-98357142D01*
X169599569Y-98595237D02*
X168599569Y-98595237D01*
X168599569Y-98595237D02*
X168599569Y-98214285D01*
X168599569Y-98214285D02*
X168647188Y-98119047D01*
X168647188Y-98119047D02*
X168694807Y-98071428D01*
X168694807Y-98071428D02*
X168790045Y-98023809D01*
X168790045Y-98023809D02*
X168932902Y-98023809D01*
X168932902Y-98023809D02*
X169028140Y-98071428D01*
X169028140Y-98071428D02*
X169075759Y-98119047D01*
X169075759Y-98119047D02*
X169123378Y-98214285D01*
X169123378Y-98214285D02*
X169123378Y-98595237D01*
X169694807Y-97833333D02*
X169694807Y-97071428D01*
X169551950Y-96880951D02*
X169599569Y-96738094D01*
X169599569Y-96738094D02*
X169599569Y-96499999D01*
X169599569Y-96499999D02*
X169551950Y-96404761D01*
X169551950Y-96404761D02*
X169504330Y-96357142D01*
X169504330Y-96357142D02*
X169409092Y-96309523D01*
X169409092Y-96309523D02*
X169313854Y-96309523D01*
X169313854Y-96309523D02*
X169218616Y-96357142D01*
X169218616Y-96357142D02*
X169170997Y-96404761D01*
X169170997Y-96404761D02*
X169123378Y-96499999D01*
X169123378Y-96499999D02*
X169075759Y-96690475D01*
X169075759Y-96690475D02*
X169028140Y-96785713D01*
X169028140Y-96785713D02*
X168980521Y-96833332D01*
X168980521Y-96833332D02*
X168885283Y-96880951D01*
X168885283Y-96880951D02*
X168790045Y-96880951D01*
X168790045Y-96880951D02*
X168694807Y-96833332D01*
X168694807Y-96833332D02*
X168647188Y-96785713D01*
X168647188Y-96785713D02*
X168599569Y-96690475D01*
X168599569Y-96690475D02*
X168599569Y-96452380D01*
X168599569Y-96452380D02*
X168647188Y-96309523D01*
X169504330Y-95309523D02*
X169551950Y-95357142D01*
X169551950Y-95357142D02*
X169599569Y-95499999D01*
X169599569Y-95499999D02*
X169599569Y-95595237D01*
X169599569Y-95595237D02*
X169551950Y-95738094D01*
X169551950Y-95738094D02*
X169456711Y-95833332D01*
X169456711Y-95833332D02*
X169361473Y-95880951D01*
X169361473Y-95880951D02*
X169170997Y-95928570D01*
X169170997Y-95928570D02*
X169028140Y-95928570D01*
X169028140Y-95928570D02*
X168837664Y-95880951D01*
X168837664Y-95880951D02*
X168742426Y-95833332D01*
X168742426Y-95833332D02*
X168647188Y-95738094D01*
X168647188Y-95738094D02*
X168599569Y-95595237D01*
X168599569Y-95595237D02*
X168599569Y-95499999D01*
X168599569Y-95499999D02*
X168647188Y-95357142D01*
X168647188Y-95357142D02*
X168694807Y-95309523D01*
X169599569Y-94357142D02*
X169599569Y-94928570D01*
X169599569Y-94642856D02*
X168599569Y-94642856D01*
X168599569Y-94642856D02*
X168742426Y-94738094D01*
X168742426Y-94738094D02*
X168837664Y-94833332D01*
X168837664Y-94833332D02*
X168885283Y-94928570D01*
X145599569Y-80547619D02*
X145123378Y-80880952D01*
X145599569Y-81119047D02*
X144599569Y-81119047D01*
X144599569Y-81119047D02*
X144599569Y-80738095D01*
X144599569Y-80738095D02*
X144647188Y-80642857D01*
X144647188Y-80642857D02*
X144694807Y-80595238D01*
X144694807Y-80595238D02*
X144790045Y-80547619D01*
X144790045Y-80547619D02*
X144932902Y-80547619D01*
X144932902Y-80547619D02*
X145028140Y-80595238D01*
X145028140Y-80595238D02*
X145075759Y-80642857D01*
X145075759Y-80642857D02*
X145123378Y-80738095D01*
X145123378Y-80738095D02*
X145123378Y-81119047D01*
X145694807Y-80357143D02*
X145694807Y-79595238D01*
X145599569Y-79357142D02*
X144599569Y-79357142D01*
X144599569Y-79357142D02*
X144599569Y-78976190D01*
X144599569Y-78976190D02*
X144647188Y-78880952D01*
X144647188Y-78880952D02*
X144694807Y-78833333D01*
X144694807Y-78833333D02*
X144790045Y-78785714D01*
X144790045Y-78785714D02*
X144932902Y-78785714D01*
X144932902Y-78785714D02*
X145028140Y-78833333D01*
X145028140Y-78833333D02*
X145075759Y-78880952D01*
X145075759Y-78880952D02*
X145123378Y-78976190D01*
X145123378Y-78976190D02*
X145123378Y-79357142D01*
X145599569Y-78357142D02*
X144599569Y-78357142D01*
X144599569Y-78357142D02*
X144599569Y-78119047D01*
X144599569Y-78119047D02*
X144647188Y-77976190D01*
X144647188Y-77976190D02*
X144742426Y-77880952D01*
X144742426Y-77880952D02*
X144837664Y-77833333D01*
X144837664Y-77833333D02*
X145028140Y-77785714D01*
X145028140Y-77785714D02*
X145170997Y-77785714D01*
X145170997Y-77785714D02*
X145361473Y-77833333D01*
X145361473Y-77833333D02*
X145456711Y-77880952D01*
X145456711Y-77880952D02*
X145551950Y-77976190D01*
X145551950Y-77976190D02*
X145599569Y-78119047D01*
X145599569Y-78119047D02*
X145599569Y-78357142D01*
X145599569Y-76833333D02*
X145599569Y-77404761D01*
X145599569Y-77119047D02*
X144599569Y-77119047D01*
X144599569Y-77119047D02*
X144742426Y-77214285D01*
X144742426Y-77214285D02*
X144837664Y-77309523D01*
X144837664Y-77309523D02*
X144885283Y-77404761D01*
X163760069Y-110092857D02*
X163283878Y-110426190D01*
X163760069Y-110664285D02*
X162760069Y-110664285D01*
X162760069Y-110664285D02*
X162760069Y-110283333D01*
X162760069Y-110283333D02*
X162807688Y-110188095D01*
X162807688Y-110188095D02*
X162855307Y-110140476D01*
X162855307Y-110140476D02*
X162950545Y-110092857D01*
X162950545Y-110092857D02*
X163093402Y-110092857D01*
X163093402Y-110092857D02*
X163188640Y-110140476D01*
X163188640Y-110140476D02*
X163236259Y-110188095D01*
X163236259Y-110188095D02*
X163283878Y-110283333D01*
X163283878Y-110283333D02*
X163283878Y-110664285D01*
X163093402Y-109235714D02*
X163760069Y-109235714D01*
X162712450Y-109473809D02*
X163426735Y-109711904D01*
X163426735Y-109711904D02*
X163426735Y-109092857D01*
X163760069Y-108188095D02*
X163760069Y-108759523D01*
X163760069Y-108473809D02*
X162760069Y-108473809D01*
X162760069Y-108473809D02*
X162902926Y-108569047D01*
X162902926Y-108569047D02*
X162998164Y-108664285D01*
X162998164Y-108664285D02*
X163045783Y-108759523D01*
X167310069Y-98336857D02*
X166833878Y-98670190D01*
X167310069Y-98908285D02*
X166310069Y-98908285D01*
X166310069Y-98908285D02*
X166310069Y-98527333D01*
X166310069Y-98527333D02*
X166357688Y-98432095D01*
X166357688Y-98432095D02*
X166405307Y-98384476D01*
X166405307Y-98384476D02*
X166500545Y-98336857D01*
X166500545Y-98336857D02*
X166643402Y-98336857D01*
X166643402Y-98336857D02*
X166738640Y-98384476D01*
X166738640Y-98384476D02*
X166786259Y-98432095D01*
X166786259Y-98432095D02*
X166833878Y-98527333D01*
X166833878Y-98527333D02*
X166833878Y-98908285D01*
X166643402Y-97479714D02*
X167310069Y-97479714D01*
X166262450Y-97717809D02*
X166976735Y-97955904D01*
X166976735Y-97955904D02*
X166976735Y-97336857D01*
X166310069Y-96765428D02*
X166310069Y-96670190D01*
X166310069Y-96670190D02*
X166357688Y-96574952D01*
X166357688Y-96574952D02*
X166405307Y-96527333D01*
X166405307Y-96527333D02*
X166500545Y-96479714D01*
X166500545Y-96479714D02*
X166691021Y-96432095D01*
X166691021Y-96432095D02*
X166929116Y-96432095D01*
X166929116Y-96432095D02*
X167119592Y-96479714D01*
X167119592Y-96479714D02*
X167214830Y-96527333D01*
X167214830Y-96527333D02*
X167262450Y-96574952D01*
X167262450Y-96574952D02*
X167310069Y-96670190D01*
X167310069Y-96670190D02*
X167310069Y-96765428D01*
X167310069Y-96765428D02*
X167262450Y-96860666D01*
X167262450Y-96860666D02*
X167214830Y-96908285D01*
X167214830Y-96908285D02*
X167119592Y-96955904D01*
X167119592Y-96955904D02*
X166929116Y-97003523D01*
X166929116Y-97003523D02*
X166691021Y-97003523D01*
X166691021Y-97003523D02*
X166500545Y-96955904D01*
X166500545Y-96955904D02*
X166405307Y-96908285D01*
X166405307Y-96908285D02*
X166357688Y-96860666D01*
X166357688Y-96860666D02*
X166310069Y-96765428D01*
X128599569Y-109642857D02*
X128123378Y-109976190D01*
X128599569Y-110214285D02*
X127599569Y-110214285D01*
X127599569Y-110214285D02*
X127599569Y-109833333D01*
X127599569Y-109833333D02*
X127647188Y-109738095D01*
X127647188Y-109738095D02*
X127694807Y-109690476D01*
X127694807Y-109690476D02*
X127790045Y-109642857D01*
X127790045Y-109642857D02*
X127932902Y-109642857D01*
X127932902Y-109642857D02*
X128028140Y-109690476D01*
X128028140Y-109690476D02*
X128075759Y-109738095D01*
X128075759Y-109738095D02*
X128123378Y-109833333D01*
X128123378Y-109833333D02*
X128123378Y-110214285D01*
X127599569Y-109309523D02*
X127599569Y-108690476D01*
X127599569Y-108690476D02*
X127980521Y-109023809D01*
X127980521Y-109023809D02*
X127980521Y-108880952D01*
X127980521Y-108880952D02*
X128028140Y-108785714D01*
X128028140Y-108785714D02*
X128075759Y-108738095D01*
X128075759Y-108738095D02*
X128170997Y-108690476D01*
X128170997Y-108690476D02*
X128409092Y-108690476D01*
X128409092Y-108690476D02*
X128504330Y-108738095D01*
X128504330Y-108738095D02*
X128551950Y-108785714D01*
X128551950Y-108785714D02*
X128599569Y-108880952D01*
X128599569Y-108880952D02*
X128599569Y-109166666D01*
X128599569Y-109166666D02*
X128551950Y-109261904D01*
X128551950Y-109261904D02*
X128504330Y-109309523D01*
X127599569Y-108071428D02*
X127599569Y-107976190D01*
X127599569Y-107976190D02*
X127647188Y-107880952D01*
X127647188Y-107880952D02*
X127694807Y-107833333D01*
X127694807Y-107833333D02*
X127790045Y-107785714D01*
X127790045Y-107785714D02*
X127980521Y-107738095D01*
X127980521Y-107738095D02*
X128218616Y-107738095D01*
X128218616Y-107738095D02*
X128409092Y-107785714D01*
X128409092Y-107785714D02*
X128504330Y-107833333D01*
X128504330Y-107833333D02*
X128551950Y-107880952D01*
X128551950Y-107880952D02*
X128599569Y-107976190D01*
X128599569Y-107976190D02*
X128599569Y-108071428D01*
X128599569Y-108071428D02*
X128551950Y-108166666D01*
X128551950Y-108166666D02*
X128504330Y-108214285D01*
X128504330Y-108214285D02*
X128409092Y-108261904D01*
X128409092Y-108261904D02*
X128218616Y-108309523D01*
X128218616Y-108309523D02*
X127980521Y-108309523D01*
X127980521Y-108309523D02*
X127790045Y-108261904D01*
X127790045Y-108261904D02*
X127694807Y-108214285D01*
X127694807Y-108214285D02*
X127647188Y-108166666D01*
X127647188Y-108166666D02*
X127599569Y-108071428D01*
X150148069Y-143642857D02*
X149671878Y-143976190D01*
X150148069Y-144214285D02*
X149148069Y-144214285D01*
X149148069Y-144214285D02*
X149148069Y-143833333D01*
X149148069Y-143833333D02*
X149195688Y-143738095D01*
X149195688Y-143738095D02*
X149243307Y-143690476D01*
X149243307Y-143690476D02*
X149338545Y-143642857D01*
X149338545Y-143642857D02*
X149481402Y-143642857D01*
X149481402Y-143642857D02*
X149576640Y-143690476D01*
X149576640Y-143690476D02*
X149624259Y-143738095D01*
X149624259Y-143738095D02*
X149671878Y-143833333D01*
X149671878Y-143833333D02*
X149671878Y-144214285D01*
X149243307Y-143261904D02*
X149195688Y-143214285D01*
X149195688Y-143214285D02*
X149148069Y-143119047D01*
X149148069Y-143119047D02*
X149148069Y-142880952D01*
X149148069Y-142880952D02*
X149195688Y-142785714D01*
X149195688Y-142785714D02*
X149243307Y-142738095D01*
X149243307Y-142738095D02*
X149338545Y-142690476D01*
X149338545Y-142690476D02*
X149433783Y-142690476D01*
X149433783Y-142690476D02*
X149576640Y-142738095D01*
X149576640Y-142738095D02*
X150148069Y-143309523D01*
X150148069Y-143309523D02*
X150148069Y-142690476D01*
X149243307Y-142309523D02*
X149195688Y-142261904D01*
X149195688Y-142261904D02*
X149148069Y-142166666D01*
X149148069Y-142166666D02*
X149148069Y-141928571D01*
X149148069Y-141928571D02*
X149195688Y-141833333D01*
X149195688Y-141833333D02*
X149243307Y-141785714D01*
X149243307Y-141785714D02*
X149338545Y-141738095D01*
X149338545Y-141738095D02*
X149433783Y-141738095D01*
X149433783Y-141738095D02*
X149576640Y-141785714D01*
X149576640Y-141785714D02*
X150148069Y-142357142D01*
X150148069Y-142357142D02*
X150148069Y-141738095D01*
X150607142Y-144261569D02*
X150273809Y-143785378D01*
X150035714Y-144261569D02*
X150035714Y-143261569D01*
X150035714Y-143261569D02*
X150416666Y-143261569D01*
X150416666Y-143261569D02*
X150511904Y-143309188D01*
X150511904Y-143309188D02*
X150559523Y-143356807D01*
X150559523Y-143356807D02*
X150607142Y-143452045D01*
X150607142Y-143452045D02*
X150607142Y-143594902D01*
X150607142Y-143594902D02*
X150559523Y-143690140D01*
X150559523Y-143690140D02*
X150511904Y-143737759D01*
X150511904Y-143737759D02*
X150416666Y-143785378D01*
X150416666Y-143785378D02*
X150035714Y-143785378D01*
X150988095Y-143356807D02*
X151035714Y-143309188D01*
X151035714Y-143309188D02*
X151130952Y-143261569D01*
X151130952Y-143261569D02*
X151369047Y-143261569D01*
X151369047Y-143261569D02*
X151464285Y-143309188D01*
X151464285Y-143309188D02*
X151511904Y-143356807D01*
X151511904Y-143356807D02*
X151559523Y-143452045D01*
X151559523Y-143452045D02*
X151559523Y-143547283D01*
X151559523Y-143547283D02*
X151511904Y-143690140D01*
X151511904Y-143690140D02*
X150940476Y-144261569D01*
X150940476Y-144261569D02*
X151559523Y-144261569D01*
X152511904Y-144261569D02*
X151940476Y-144261569D01*
X152226190Y-144261569D02*
X152226190Y-143261569D01*
X152226190Y-143261569D02*
X152130952Y-143404426D01*
X152130952Y-143404426D02*
X152035714Y-143499664D01*
X152035714Y-143499664D02*
X151940476Y-143547283D01*
X155357142Y-127261569D02*
X155023809Y-126785378D01*
X154785714Y-127261569D02*
X154785714Y-126261569D01*
X154785714Y-126261569D02*
X155166666Y-126261569D01*
X155166666Y-126261569D02*
X155261904Y-126309188D01*
X155261904Y-126309188D02*
X155309523Y-126356807D01*
X155309523Y-126356807D02*
X155357142Y-126452045D01*
X155357142Y-126452045D02*
X155357142Y-126594902D01*
X155357142Y-126594902D02*
X155309523Y-126690140D01*
X155309523Y-126690140D02*
X155261904Y-126737759D01*
X155261904Y-126737759D02*
X155166666Y-126785378D01*
X155166666Y-126785378D02*
X154785714Y-126785378D01*
X156309523Y-127261569D02*
X155738095Y-127261569D01*
X156023809Y-127261569D02*
X156023809Y-126261569D01*
X156023809Y-126261569D02*
X155928571Y-126404426D01*
X155928571Y-126404426D02*
X155833333Y-126499664D01*
X155833333Y-126499664D02*
X155738095Y-126547283D01*
X156690476Y-126356807D02*
X156738095Y-126309188D01*
X156738095Y-126309188D02*
X156833333Y-126261569D01*
X156833333Y-126261569D02*
X157071428Y-126261569D01*
X157071428Y-126261569D02*
X157166666Y-126309188D01*
X157166666Y-126309188D02*
X157214285Y-126356807D01*
X157214285Y-126356807D02*
X157261904Y-126452045D01*
X157261904Y-126452045D02*
X157261904Y-126547283D01*
X157261904Y-126547283D02*
X157214285Y-126690140D01*
X157214285Y-126690140D02*
X156642857Y-127261569D01*
X156642857Y-127261569D02*
X157261904Y-127261569D01*
X159857142Y-127261569D02*
X159523809Y-126785378D01*
X159285714Y-127261569D02*
X159285714Y-126261569D01*
X159285714Y-126261569D02*
X159666666Y-126261569D01*
X159666666Y-126261569D02*
X159761904Y-126309188D01*
X159761904Y-126309188D02*
X159809523Y-126356807D01*
X159809523Y-126356807D02*
X159857142Y-126452045D01*
X159857142Y-126452045D02*
X159857142Y-126594902D01*
X159857142Y-126594902D02*
X159809523Y-126690140D01*
X159809523Y-126690140D02*
X159761904Y-126737759D01*
X159761904Y-126737759D02*
X159666666Y-126785378D01*
X159666666Y-126785378D02*
X159285714Y-126785378D01*
X160809523Y-127261569D02*
X160238095Y-127261569D01*
X160523809Y-127261569D02*
X160523809Y-126261569D01*
X160523809Y-126261569D02*
X160428571Y-126404426D01*
X160428571Y-126404426D02*
X160333333Y-126499664D01*
X160333333Y-126499664D02*
X160238095Y-126547283D01*
X161761904Y-127261569D02*
X161190476Y-127261569D01*
X161476190Y-127261569D02*
X161476190Y-126261569D01*
X161476190Y-126261569D02*
X161380952Y-126404426D01*
X161380952Y-126404426D02*
X161285714Y-126499664D01*
X161285714Y-126499664D02*
X161190476Y-126547283D01*
X147833333Y-73261569D02*
X147500000Y-72785378D01*
X147261905Y-73261569D02*
X147261905Y-72261569D01*
X147261905Y-72261569D02*
X147642857Y-72261569D01*
X147642857Y-72261569D02*
X147738095Y-72309188D01*
X147738095Y-72309188D02*
X147785714Y-72356807D01*
X147785714Y-72356807D02*
X147833333Y-72452045D01*
X147833333Y-72452045D02*
X147833333Y-72594902D01*
X147833333Y-72594902D02*
X147785714Y-72690140D01*
X147785714Y-72690140D02*
X147738095Y-72737759D01*
X147738095Y-72737759D02*
X147642857Y-72785378D01*
X147642857Y-72785378D02*
X147261905Y-72785378D01*
X148166667Y-72261569D02*
X148785714Y-72261569D01*
X148785714Y-72261569D02*
X148452381Y-72642521D01*
X148452381Y-72642521D02*
X148595238Y-72642521D01*
X148595238Y-72642521D02*
X148690476Y-72690140D01*
X148690476Y-72690140D02*
X148738095Y-72737759D01*
X148738095Y-72737759D02*
X148785714Y-72832997D01*
X148785714Y-72832997D02*
X148785714Y-73071092D01*
X148785714Y-73071092D02*
X148738095Y-73166330D01*
X148738095Y-73166330D02*
X148690476Y-73213950D01*
X148690476Y-73213950D02*
X148595238Y-73261569D01*
X148595238Y-73261569D02*
X148309524Y-73261569D01*
X148309524Y-73261569D02*
X148214286Y-73213950D01*
X148214286Y-73213950D02*
X148166667Y-73166330D01*
X143333333Y-73261569D02*
X143000000Y-72785378D01*
X142761905Y-73261569D02*
X142761905Y-72261569D01*
X142761905Y-72261569D02*
X143142857Y-72261569D01*
X143142857Y-72261569D02*
X143238095Y-72309188D01*
X143238095Y-72309188D02*
X143285714Y-72356807D01*
X143285714Y-72356807D02*
X143333333Y-72452045D01*
X143333333Y-72452045D02*
X143333333Y-72594902D01*
X143333333Y-72594902D02*
X143285714Y-72690140D01*
X143285714Y-72690140D02*
X143238095Y-72737759D01*
X143238095Y-72737759D02*
X143142857Y-72785378D01*
X143142857Y-72785378D02*
X142761905Y-72785378D01*
X143714286Y-72356807D02*
X143761905Y-72309188D01*
X143761905Y-72309188D02*
X143857143Y-72261569D01*
X143857143Y-72261569D02*
X144095238Y-72261569D01*
X144095238Y-72261569D02*
X144190476Y-72309188D01*
X144190476Y-72309188D02*
X144238095Y-72356807D01*
X144238095Y-72356807D02*
X144285714Y-72452045D01*
X144285714Y-72452045D02*
X144285714Y-72547283D01*
X144285714Y-72547283D02*
X144238095Y-72690140D01*
X144238095Y-72690140D02*
X143666667Y-73261569D01*
X143666667Y-73261569D02*
X144285714Y-73261569D01*
X151648069Y-80666666D02*
X151171878Y-80999999D01*
X151648069Y-81238094D02*
X150648069Y-81238094D01*
X150648069Y-81238094D02*
X150648069Y-80857142D01*
X150648069Y-80857142D02*
X150695688Y-80761904D01*
X150695688Y-80761904D02*
X150743307Y-80714285D01*
X150743307Y-80714285D02*
X150838545Y-80666666D01*
X150838545Y-80666666D02*
X150981402Y-80666666D01*
X150981402Y-80666666D02*
X151076640Y-80714285D01*
X151076640Y-80714285D02*
X151124259Y-80761904D01*
X151124259Y-80761904D02*
X151171878Y-80857142D01*
X151171878Y-80857142D02*
X151171878Y-81238094D01*
X151648069Y-79714285D02*
X151648069Y-80285713D01*
X151648069Y-79999999D02*
X150648069Y-79999999D01*
X150648069Y-79999999D02*
X150790926Y-80095237D01*
X150790926Y-80095237D02*
X150886164Y-80190475D01*
X150886164Y-80190475D02*
X150933783Y-80285713D01*
X143404761Y-78099557D02*
X143309523Y-78051938D01*
X143309523Y-78051938D02*
X143214285Y-77956700D01*
X143214285Y-77956700D02*
X143071428Y-77813842D01*
X143071428Y-77813842D02*
X142976190Y-77766223D01*
X142976190Y-77766223D02*
X142880952Y-77766223D01*
X142928571Y-78004319D02*
X142833333Y-77956700D01*
X142833333Y-77956700D02*
X142738095Y-77861461D01*
X142738095Y-77861461D02*
X142690476Y-77670985D01*
X142690476Y-77670985D02*
X142690476Y-77337652D01*
X142690476Y-77337652D02*
X142738095Y-77147176D01*
X142738095Y-77147176D02*
X142833333Y-77051938D01*
X142833333Y-77051938D02*
X142928571Y-77004319D01*
X142928571Y-77004319D02*
X143119047Y-77004319D01*
X143119047Y-77004319D02*
X143214285Y-77051938D01*
X143214285Y-77051938D02*
X143309523Y-77147176D01*
X143309523Y-77147176D02*
X143357142Y-77337652D01*
X143357142Y-77337652D02*
X143357142Y-77670985D01*
X143357142Y-77670985D02*
X143309523Y-77861461D01*
X143309523Y-77861461D02*
X143214285Y-77956700D01*
X143214285Y-77956700D02*
X143119047Y-78004319D01*
X143119047Y-78004319D02*
X142928571Y-78004319D01*
X144309523Y-78004319D02*
X143738095Y-78004319D01*
X144023809Y-78004319D02*
X144023809Y-77004319D01*
X144023809Y-77004319D02*
X143928571Y-77147176D01*
X143928571Y-77147176D02*
X143833333Y-77242414D01*
X143833333Y-77242414D02*
X143738095Y-77290033D01*
X156333333Y-102105319D02*
X155857143Y-102105319D01*
X155857143Y-102105319D02*
X155857143Y-101105319D01*
X157095238Y-101438652D02*
X157095238Y-102105319D01*
X156857143Y-101057700D02*
X156619048Y-101771985D01*
X156619048Y-101771985D02*
X157238095Y-101771985D01*
X120833333Y-104804319D02*
X120357143Y-104804319D01*
X120357143Y-104804319D02*
X120357143Y-103804319D01*
X121071429Y-103804319D02*
X121690476Y-103804319D01*
X121690476Y-103804319D02*
X121357143Y-104185271D01*
X121357143Y-104185271D02*
X121500000Y-104185271D01*
X121500000Y-104185271D02*
X121595238Y-104232890D01*
X121595238Y-104232890D02*
X121642857Y-104280509D01*
X121642857Y-104280509D02*
X121690476Y-104375747D01*
X121690476Y-104375747D02*
X121690476Y-104613842D01*
X121690476Y-104613842D02*
X121642857Y-104709080D01*
X121642857Y-104709080D02*
X121595238Y-104756700D01*
X121595238Y-104756700D02*
X121500000Y-104804319D01*
X121500000Y-104804319D02*
X121214286Y-104804319D01*
X121214286Y-104804319D02*
X121119048Y-104756700D01*
X121119048Y-104756700D02*
X121071429Y-104709080D01*
X147605319Y-121166666D02*
X147605319Y-121642856D01*
X147605319Y-121642856D02*
X146605319Y-121642856D01*
X146700557Y-120880951D02*
X146652938Y-120833332D01*
X146652938Y-120833332D02*
X146605319Y-120738094D01*
X146605319Y-120738094D02*
X146605319Y-120499999D01*
X146605319Y-120499999D02*
X146652938Y-120404761D01*
X146652938Y-120404761D02*
X146700557Y-120357142D01*
X146700557Y-120357142D02*
X146795795Y-120309523D01*
X146795795Y-120309523D02*
X146891033Y-120309523D01*
X146891033Y-120309523D02*
X147033890Y-120357142D01*
X147033890Y-120357142D02*
X147605319Y-120928570D01*
X147605319Y-120928570D02*
X147605319Y-120309523D01*
X160605319Y-120666666D02*
X160605319Y-121142856D01*
X160605319Y-121142856D02*
X159605319Y-121142856D01*
X160605319Y-119809523D02*
X160605319Y-120380951D01*
X160605319Y-120095237D02*
X159605319Y-120095237D01*
X159605319Y-120095237D02*
X159748176Y-120190475D01*
X159748176Y-120190475D02*
X159843414Y-120285713D01*
X159843414Y-120285713D02*
X159891033Y-120380951D01*
X141755319Y-80214285D02*
X140755319Y-80214285D01*
X140755319Y-80214285D02*
X140755319Y-79976190D01*
X140755319Y-79976190D02*
X140802938Y-79833333D01*
X140802938Y-79833333D02*
X140898176Y-79738095D01*
X140898176Y-79738095D02*
X140993414Y-79690476D01*
X140993414Y-79690476D02*
X141183890Y-79642857D01*
X141183890Y-79642857D02*
X141326747Y-79642857D01*
X141326747Y-79642857D02*
X141517223Y-79690476D01*
X141517223Y-79690476D02*
X141612461Y-79738095D01*
X141612461Y-79738095D02*
X141707700Y-79833333D01*
X141707700Y-79833333D02*
X141755319Y-79976190D01*
X141755319Y-79976190D02*
X141755319Y-80214285D01*
X141755319Y-78690476D02*
X141755319Y-79261904D01*
X141755319Y-78976190D02*
X140755319Y-78976190D01*
X140755319Y-78976190D02*
X140898176Y-79071428D01*
X140898176Y-79071428D02*
X140993414Y-79166666D01*
X140993414Y-79166666D02*
X141041033Y-79261904D01*
X141755319Y-77738095D02*
X141755319Y-78309523D01*
X141755319Y-78023809D02*
X140755319Y-78023809D01*
X140755319Y-78023809D02*
X140898176Y-78119047D01*
X140898176Y-78119047D02*
X140993414Y-78214285D01*
X140993414Y-78214285D02*
X141041033Y-78309523D01*
X160785714Y-84154319D02*
X160785714Y-83154319D01*
X160785714Y-83154319D02*
X161023809Y-83154319D01*
X161023809Y-83154319D02*
X161166666Y-83201938D01*
X161166666Y-83201938D02*
X161261904Y-83297176D01*
X161261904Y-83297176D02*
X161309523Y-83392414D01*
X161309523Y-83392414D02*
X161357142Y-83582890D01*
X161357142Y-83582890D02*
X161357142Y-83725747D01*
X161357142Y-83725747D02*
X161309523Y-83916223D01*
X161309523Y-83916223D02*
X161261904Y-84011461D01*
X161261904Y-84011461D02*
X161166666Y-84106700D01*
X161166666Y-84106700D02*
X161023809Y-84154319D01*
X161023809Y-84154319D02*
X160785714Y-84154319D01*
X162309523Y-84154319D02*
X161738095Y-84154319D01*
X162023809Y-84154319D02*
X162023809Y-83154319D01*
X162023809Y-83154319D02*
X161928571Y-83297176D01*
X161928571Y-83297176D02*
X161833333Y-83392414D01*
X161833333Y-83392414D02*
X161738095Y-83440033D01*
X162928571Y-83154319D02*
X163023809Y-83154319D01*
X163023809Y-83154319D02*
X163119047Y-83201938D01*
X163119047Y-83201938D02*
X163166666Y-83249557D01*
X163166666Y-83249557D02*
X163214285Y-83344795D01*
X163214285Y-83344795D02*
X163261904Y-83535271D01*
X163261904Y-83535271D02*
X163261904Y-83773366D01*
X163261904Y-83773366D02*
X163214285Y-83963842D01*
X163214285Y-83963842D02*
X163166666Y-84059080D01*
X163166666Y-84059080D02*
X163119047Y-84106700D01*
X163119047Y-84106700D02*
X163023809Y-84154319D01*
X163023809Y-84154319D02*
X162928571Y-84154319D01*
X162928571Y-84154319D02*
X162833333Y-84106700D01*
X162833333Y-84106700D02*
X162785714Y-84059080D01*
X162785714Y-84059080D02*
X162738095Y-83963842D01*
X162738095Y-83963842D02*
X162690476Y-83773366D01*
X162690476Y-83773366D02*
X162690476Y-83535271D01*
X162690476Y-83535271D02*
X162738095Y-83344795D01*
X162738095Y-83344795D02*
X162785714Y-83249557D01*
X162785714Y-83249557D02*
X162833333Y-83201938D01*
X162833333Y-83201938D02*
X162928571Y-83154319D01*
X119261905Y-84255319D02*
X119261905Y-83255319D01*
X119261905Y-83255319D02*
X119500000Y-83255319D01*
X119500000Y-83255319D02*
X119642857Y-83302938D01*
X119642857Y-83302938D02*
X119738095Y-83398176D01*
X119738095Y-83398176D02*
X119785714Y-83493414D01*
X119785714Y-83493414D02*
X119833333Y-83683890D01*
X119833333Y-83683890D02*
X119833333Y-83826747D01*
X119833333Y-83826747D02*
X119785714Y-84017223D01*
X119785714Y-84017223D02*
X119738095Y-84112461D01*
X119738095Y-84112461D02*
X119642857Y-84207700D01*
X119642857Y-84207700D02*
X119500000Y-84255319D01*
X119500000Y-84255319D02*
X119261905Y-84255319D01*
X120690476Y-83588652D02*
X120690476Y-84255319D01*
X120452381Y-83207700D02*
X120214286Y-83921985D01*
X120214286Y-83921985D02*
X120833333Y-83921985D01*
X139761905Y-110154319D02*
X139761905Y-109154319D01*
X139761905Y-109154319D02*
X140000000Y-109154319D01*
X140000000Y-109154319D02*
X140142857Y-109201938D01*
X140142857Y-109201938D02*
X140238095Y-109297176D01*
X140238095Y-109297176D02*
X140285714Y-109392414D01*
X140285714Y-109392414D02*
X140333333Y-109582890D01*
X140333333Y-109582890D02*
X140333333Y-109725747D01*
X140333333Y-109725747D02*
X140285714Y-109916223D01*
X140285714Y-109916223D02*
X140238095Y-110011461D01*
X140238095Y-110011461D02*
X140142857Y-110106700D01*
X140142857Y-110106700D02*
X140000000Y-110154319D01*
X140000000Y-110154319D02*
X139761905Y-110154319D01*
X140714286Y-109249557D02*
X140761905Y-109201938D01*
X140761905Y-109201938D02*
X140857143Y-109154319D01*
X140857143Y-109154319D02*
X141095238Y-109154319D01*
X141095238Y-109154319D02*
X141190476Y-109201938D01*
X141190476Y-109201938D02*
X141238095Y-109249557D01*
X141238095Y-109249557D02*
X141285714Y-109344795D01*
X141285714Y-109344795D02*
X141285714Y-109440033D01*
X141285714Y-109440033D02*
X141238095Y-109582890D01*
X141238095Y-109582890D02*
X140666667Y-110154319D01*
X140666667Y-110154319D02*
X141285714Y-110154319D01*
X164255319Y-117738094D02*
X163255319Y-117738094D01*
X163255319Y-117738094D02*
X163255319Y-117499999D01*
X163255319Y-117499999D02*
X163302938Y-117357142D01*
X163302938Y-117357142D02*
X163398176Y-117261904D01*
X163398176Y-117261904D02*
X163493414Y-117214285D01*
X163493414Y-117214285D02*
X163683890Y-117166666D01*
X163683890Y-117166666D02*
X163826747Y-117166666D01*
X163826747Y-117166666D02*
X164017223Y-117214285D01*
X164017223Y-117214285D02*
X164112461Y-117261904D01*
X164112461Y-117261904D02*
X164207700Y-117357142D01*
X164207700Y-117357142D02*
X164255319Y-117499999D01*
X164255319Y-117499999D02*
X164255319Y-117738094D01*
X164255319Y-116214285D02*
X164255319Y-116785713D01*
X164255319Y-116499999D02*
X163255319Y-116499999D01*
X163255319Y-116499999D02*
X163398176Y-116595237D01*
X163398176Y-116595237D02*
X163493414Y-116690475D01*
X163493414Y-116690475D02*
X163541033Y-116785713D01*
X153571428Y-106896580D02*
X153523809Y-106944200D01*
X153523809Y-106944200D02*
X153380952Y-106991819D01*
X153380952Y-106991819D02*
X153285714Y-106991819D01*
X153285714Y-106991819D02*
X153142857Y-106944200D01*
X153142857Y-106944200D02*
X153047619Y-106848961D01*
X153047619Y-106848961D02*
X153000000Y-106753723D01*
X153000000Y-106753723D02*
X152952381Y-106563247D01*
X152952381Y-106563247D02*
X152952381Y-106420390D01*
X152952381Y-106420390D02*
X153000000Y-106229914D01*
X153000000Y-106229914D02*
X153047619Y-106134676D01*
X153047619Y-106134676D02*
X153142857Y-106039438D01*
X153142857Y-106039438D02*
X153285714Y-105991819D01*
X153285714Y-105991819D02*
X153380952Y-105991819D01*
X153380952Y-105991819D02*
X153523809Y-106039438D01*
X153523809Y-106039438D02*
X153571428Y-106087057D01*
X153761905Y-107087057D02*
X154523809Y-107087057D01*
X154619048Y-105991819D02*
X155190476Y-105991819D01*
X154904762Y-106991819D02*
X154904762Y-105991819D01*
X155952381Y-106325152D02*
X155952381Y-106991819D01*
X155714286Y-105944200D02*
X155476191Y-106658485D01*
X155476191Y-106658485D02*
X156095238Y-106658485D01*
X137071428Y-101822580D02*
X137023809Y-101870200D01*
X137023809Y-101870200D02*
X136880952Y-101917819D01*
X136880952Y-101917819D02*
X136785714Y-101917819D01*
X136785714Y-101917819D02*
X136642857Y-101870200D01*
X136642857Y-101870200D02*
X136547619Y-101774961D01*
X136547619Y-101774961D02*
X136500000Y-101679723D01*
X136500000Y-101679723D02*
X136452381Y-101489247D01*
X136452381Y-101489247D02*
X136452381Y-101346390D01*
X136452381Y-101346390D02*
X136500000Y-101155914D01*
X136500000Y-101155914D02*
X136547619Y-101060676D01*
X136547619Y-101060676D02*
X136642857Y-100965438D01*
X136642857Y-100965438D02*
X136785714Y-100917819D01*
X136785714Y-100917819D02*
X136880952Y-100917819D01*
X136880952Y-100917819D02*
X137023809Y-100965438D01*
X137023809Y-100965438D02*
X137071428Y-101013057D01*
X137261905Y-102013057D02*
X138023809Y-102013057D01*
X138119048Y-100917819D02*
X138690476Y-100917819D01*
X138404762Y-101917819D02*
X138404762Y-100917819D01*
X138928572Y-100917819D02*
X139547619Y-100917819D01*
X139547619Y-100917819D02*
X139214286Y-101298771D01*
X139214286Y-101298771D02*
X139357143Y-101298771D01*
X139357143Y-101298771D02*
X139452381Y-101346390D01*
X139452381Y-101346390D02*
X139500000Y-101394009D01*
X139500000Y-101394009D02*
X139547619Y-101489247D01*
X139547619Y-101489247D02*
X139547619Y-101727342D01*
X139547619Y-101727342D02*
X139500000Y-101822580D01*
X139500000Y-101822580D02*
X139452381Y-101870200D01*
X139452381Y-101870200D02*
X139357143Y-101917819D01*
X139357143Y-101917819D02*
X139071429Y-101917819D01*
X139071429Y-101917819D02*
X138976191Y-101870200D01*
X138976191Y-101870200D02*
X138928572Y-101822580D01*
X112571428Y-105396580D02*
X112523809Y-105444200D01*
X112523809Y-105444200D02*
X112380952Y-105491819D01*
X112380952Y-105491819D02*
X112285714Y-105491819D01*
X112285714Y-105491819D02*
X112142857Y-105444200D01*
X112142857Y-105444200D02*
X112047619Y-105348961D01*
X112047619Y-105348961D02*
X112000000Y-105253723D01*
X112000000Y-105253723D02*
X111952381Y-105063247D01*
X111952381Y-105063247D02*
X111952381Y-104920390D01*
X111952381Y-104920390D02*
X112000000Y-104729914D01*
X112000000Y-104729914D02*
X112047619Y-104634676D01*
X112047619Y-104634676D02*
X112142857Y-104539438D01*
X112142857Y-104539438D02*
X112285714Y-104491819D01*
X112285714Y-104491819D02*
X112380952Y-104491819D01*
X112380952Y-104491819D02*
X112523809Y-104539438D01*
X112523809Y-104539438D02*
X112571428Y-104587057D01*
X112761905Y-105587057D02*
X113523809Y-105587057D01*
X113619048Y-104491819D02*
X114190476Y-104491819D01*
X113904762Y-105491819D02*
X113904762Y-104491819D01*
X114476191Y-104587057D02*
X114523810Y-104539438D01*
X114523810Y-104539438D02*
X114619048Y-104491819D01*
X114619048Y-104491819D02*
X114857143Y-104491819D01*
X114857143Y-104491819D02*
X114952381Y-104539438D01*
X114952381Y-104539438D02*
X115000000Y-104587057D01*
X115000000Y-104587057D02*
X115047619Y-104682295D01*
X115047619Y-104682295D02*
X115047619Y-104777533D01*
X115047619Y-104777533D02*
X115000000Y-104920390D01*
X115000000Y-104920390D02*
X114428572Y-105491819D01*
X114428572Y-105491819D02*
X115047619Y-105491819D01*
X168896580Y-111828571D02*
X168944200Y-111876190D01*
X168944200Y-111876190D02*
X168991819Y-112019047D01*
X168991819Y-112019047D02*
X168991819Y-112114285D01*
X168991819Y-112114285D02*
X168944200Y-112257142D01*
X168944200Y-112257142D02*
X168848961Y-112352380D01*
X168848961Y-112352380D02*
X168753723Y-112399999D01*
X168753723Y-112399999D02*
X168563247Y-112447618D01*
X168563247Y-112447618D02*
X168420390Y-112447618D01*
X168420390Y-112447618D02*
X168229914Y-112399999D01*
X168229914Y-112399999D02*
X168134676Y-112352380D01*
X168134676Y-112352380D02*
X168039438Y-112257142D01*
X168039438Y-112257142D02*
X167991819Y-112114285D01*
X167991819Y-112114285D02*
X167991819Y-112019047D01*
X167991819Y-112019047D02*
X168039438Y-111876190D01*
X168039438Y-111876190D02*
X168087057Y-111828571D01*
X169087057Y-111638095D02*
X169087057Y-110876190D01*
X167991819Y-110780951D02*
X167991819Y-110209523D01*
X168991819Y-110495237D02*
X167991819Y-110495237D01*
X168991819Y-109352380D02*
X168991819Y-109923808D01*
X168991819Y-109638094D02*
X167991819Y-109638094D01*
X167991819Y-109638094D02*
X168134676Y-109733332D01*
X168134676Y-109733332D02*
X168229914Y-109828570D01*
X168229914Y-109828570D02*
X168277533Y-109923808D01*
X157209080Y-76071428D02*
X157256700Y-76119047D01*
X157256700Y-76119047D02*
X157304319Y-76261904D01*
X157304319Y-76261904D02*
X157304319Y-76357142D01*
X157304319Y-76357142D02*
X157256700Y-76499999D01*
X157256700Y-76499999D02*
X157161461Y-76595237D01*
X157161461Y-76595237D02*
X157066223Y-76642856D01*
X157066223Y-76642856D02*
X156875747Y-76690475D01*
X156875747Y-76690475D02*
X156732890Y-76690475D01*
X156732890Y-76690475D02*
X156542414Y-76642856D01*
X156542414Y-76642856D02*
X156447176Y-76595237D01*
X156447176Y-76595237D02*
X156351938Y-76499999D01*
X156351938Y-76499999D02*
X156304319Y-76357142D01*
X156304319Y-76357142D02*
X156304319Y-76261904D01*
X156304319Y-76261904D02*
X156351938Y-76119047D01*
X156351938Y-76119047D02*
X156399557Y-76071428D01*
X157399557Y-75880952D02*
X157399557Y-75119047D01*
X156304319Y-74690475D02*
X156304319Y-74499999D01*
X156304319Y-74499999D02*
X156351938Y-74404761D01*
X156351938Y-74404761D02*
X156447176Y-74309523D01*
X156447176Y-74309523D02*
X156637652Y-74261904D01*
X156637652Y-74261904D02*
X156970985Y-74261904D01*
X156970985Y-74261904D02*
X157161461Y-74309523D01*
X157161461Y-74309523D02*
X157256700Y-74404761D01*
X157256700Y-74404761D02*
X157304319Y-74499999D01*
X157304319Y-74499999D02*
X157304319Y-74690475D01*
X157304319Y-74690475D02*
X157256700Y-74785713D01*
X157256700Y-74785713D02*
X157161461Y-74880951D01*
X157161461Y-74880951D02*
X156970985Y-74928570D01*
X156970985Y-74928570D02*
X156637652Y-74928570D01*
X156637652Y-74928570D02*
X156447176Y-74880951D01*
X156447176Y-74880951D02*
X156351938Y-74785713D01*
X156351938Y-74785713D02*
X156304319Y-74690475D01*
X156304319Y-73928570D02*
X156304319Y-73309523D01*
X156304319Y-73309523D02*
X156685271Y-73642856D01*
X156685271Y-73642856D02*
X156685271Y-73499999D01*
X156685271Y-73499999D02*
X156732890Y-73404761D01*
X156732890Y-73404761D02*
X156780509Y-73357142D01*
X156780509Y-73357142D02*
X156875747Y-73309523D01*
X156875747Y-73309523D02*
X157113842Y-73309523D01*
X157113842Y-73309523D02*
X157209080Y-73357142D01*
X157209080Y-73357142D02*
X157256700Y-73404761D01*
X157256700Y-73404761D02*
X157304319Y-73499999D01*
X157304319Y-73499999D02*
X157304319Y-73785713D01*
X157304319Y-73785713D02*
X157256700Y-73880951D01*
X157256700Y-73880951D02*
X157209080Y-73928570D01*
X134428571Y-140510080D02*
X134380952Y-140557700D01*
X134380952Y-140557700D02*
X134238095Y-140605319D01*
X134238095Y-140605319D02*
X134142857Y-140605319D01*
X134142857Y-140605319D02*
X134000000Y-140557700D01*
X134000000Y-140557700D02*
X133904762Y-140462461D01*
X133904762Y-140462461D02*
X133857143Y-140367223D01*
X133857143Y-140367223D02*
X133809524Y-140176747D01*
X133809524Y-140176747D02*
X133809524Y-140033890D01*
X133809524Y-140033890D02*
X133857143Y-139843414D01*
X133857143Y-139843414D02*
X133904762Y-139748176D01*
X133904762Y-139748176D02*
X134000000Y-139652938D01*
X134000000Y-139652938D02*
X134142857Y-139605319D01*
X134142857Y-139605319D02*
X134238095Y-139605319D01*
X134238095Y-139605319D02*
X134380952Y-139652938D01*
X134380952Y-139652938D02*
X134428571Y-139700557D01*
X134619048Y-140700557D02*
X135380952Y-140700557D01*
X135809524Y-139605319D02*
X136000000Y-139605319D01*
X136000000Y-139605319D02*
X136095238Y-139652938D01*
X136095238Y-139652938D02*
X136190476Y-139748176D01*
X136190476Y-139748176D02*
X136238095Y-139938652D01*
X136238095Y-139938652D02*
X136238095Y-140271985D01*
X136238095Y-140271985D02*
X136190476Y-140462461D01*
X136190476Y-140462461D02*
X136095238Y-140557700D01*
X136095238Y-140557700D02*
X136000000Y-140605319D01*
X136000000Y-140605319D02*
X135809524Y-140605319D01*
X135809524Y-140605319D02*
X135714286Y-140557700D01*
X135714286Y-140557700D02*
X135619048Y-140462461D01*
X135619048Y-140462461D02*
X135571429Y-140271985D01*
X135571429Y-140271985D02*
X135571429Y-139938652D01*
X135571429Y-139938652D02*
X135619048Y-139748176D01*
X135619048Y-139748176D02*
X135714286Y-139652938D01*
X135714286Y-139652938D02*
X135809524Y-139605319D01*
X136619048Y-139700557D02*
X136666667Y-139652938D01*
X136666667Y-139652938D02*
X136761905Y-139605319D01*
X136761905Y-139605319D02*
X137000000Y-139605319D01*
X137000000Y-139605319D02*
X137095238Y-139652938D01*
X137095238Y-139652938D02*
X137142857Y-139700557D01*
X137142857Y-139700557D02*
X137190476Y-139795795D01*
X137190476Y-139795795D02*
X137190476Y-139891033D01*
X137190476Y-139891033D02*
X137142857Y-140033890D01*
X137142857Y-140033890D02*
X136571429Y-140605319D01*
X136571429Y-140605319D02*
X137190476Y-140605319D01*
X154633571Y-129209080D02*
X154585952Y-129256700D01*
X154585952Y-129256700D02*
X154443095Y-129304319D01*
X154443095Y-129304319D02*
X154347857Y-129304319D01*
X154347857Y-129304319D02*
X154205000Y-129256700D01*
X154205000Y-129256700D02*
X154109762Y-129161461D01*
X154109762Y-129161461D02*
X154062143Y-129066223D01*
X154062143Y-129066223D02*
X154014524Y-128875747D01*
X154014524Y-128875747D02*
X154014524Y-128732890D01*
X154014524Y-128732890D02*
X154062143Y-128542414D01*
X154062143Y-128542414D02*
X154109762Y-128447176D01*
X154109762Y-128447176D02*
X154205000Y-128351938D01*
X154205000Y-128351938D02*
X154347857Y-128304319D01*
X154347857Y-128304319D02*
X154443095Y-128304319D01*
X154443095Y-128304319D02*
X154585952Y-128351938D01*
X154585952Y-128351938D02*
X154633571Y-128399557D01*
X154824048Y-129399557D02*
X155585952Y-129399557D01*
X156014524Y-128304319D02*
X156205000Y-128304319D01*
X156205000Y-128304319D02*
X156300238Y-128351938D01*
X156300238Y-128351938D02*
X156395476Y-128447176D01*
X156395476Y-128447176D02*
X156443095Y-128637652D01*
X156443095Y-128637652D02*
X156443095Y-128970985D01*
X156443095Y-128970985D02*
X156395476Y-129161461D01*
X156395476Y-129161461D02*
X156300238Y-129256700D01*
X156300238Y-129256700D02*
X156205000Y-129304319D01*
X156205000Y-129304319D02*
X156014524Y-129304319D01*
X156014524Y-129304319D02*
X155919286Y-129256700D01*
X155919286Y-129256700D02*
X155824048Y-129161461D01*
X155824048Y-129161461D02*
X155776429Y-128970985D01*
X155776429Y-128970985D02*
X155776429Y-128637652D01*
X155776429Y-128637652D02*
X155824048Y-128447176D01*
X155824048Y-128447176D02*
X155919286Y-128351938D01*
X155919286Y-128351938D02*
X156014524Y-128304319D01*
X157395476Y-129304319D02*
X156824048Y-129304319D01*
X157109762Y-129304319D02*
X157109762Y-128304319D01*
X157109762Y-128304319D02*
X157014524Y-128447176D01*
X157014524Y-128447176D02*
X156919286Y-128542414D01*
X156919286Y-128542414D02*
X156824048Y-128590033D01*
X178833333Y-72709080D02*
X178785714Y-72756700D01*
X178785714Y-72756700D02*
X178642857Y-72804319D01*
X178642857Y-72804319D02*
X178547619Y-72804319D01*
X178547619Y-72804319D02*
X178404762Y-72756700D01*
X178404762Y-72756700D02*
X178309524Y-72661461D01*
X178309524Y-72661461D02*
X178261905Y-72566223D01*
X178261905Y-72566223D02*
X178214286Y-72375747D01*
X178214286Y-72375747D02*
X178214286Y-72232890D01*
X178214286Y-72232890D02*
X178261905Y-72042414D01*
X178261905Y-72042414D02*
X178309524Y-71947176D01*
X178309524Y-71947176D02*
X178404762Y-71851938D01*
X178404762Y-71851938D02*
X178547619Y-71804319D01*
X178547619Y-71804319D02*
X178642857Y-71804319D01*
X178642857Y-71804319D02*
X178785714Y-71851938D01*
X178785714Y-71851938D02*
X178833333Y-71899557D01*
X179690476Y-72137652D02*
X179690476Y-72804319D01*
X179452381Y-71756700D02*
X179214286Y-72470985D01*
X179214286Y-72470985D02*
X179833333Y-72470985D01*
X112333333Y-97510080D02*
X112285714Y-97557700D01*
X112285714Y-97557700D02*
X112142857Y-97605319D01*
X112142857Y-97605319D02*
X112047619Y-97605319D01*
X112047619Y-97605319D02*
X111904762Y-97557700D01*
X111904762Y-97557700D02*
X111809524Y-97462461D01*
X111809524Y-97462461D02*
X111761905Y-97367223D01*
X111761905Y-97367223D02*
X111714286Y-97176747D01*
X111714286Y-97176747D02*
X111714286Y-97033890D01*
X111714286Y-97033890D02*
X111761905Y-96843414D01*
X111761905Y-96843414D02*
X111809524Y-96748176D01*
X111809524Y-96748176D02*
X111904762Y-96652938D01*
X111904762Y-96652938D02*
X112047619Y-96605319D01*
X112047619Y-96605319D02*
X112142857Y-96605319D01*
X112142857Y-96605319D02*
X112285714Y-96652938D01*
X112285714Y-96652938D02*
X112333333Y-96700557D01*
X112666667Y-96605319D02*
X113285714Y-96605319D01*
X113285714Y-96605319D02*
X112952381Y-96986271D01*
X112952381Y-96986271D02*
X113095238Y-96986271D01*
X113095238Y-96986271D02*
X113190476Y-97033890D01*
X113190476Y-97033890D02*
X113238095Y-97081509D01*
X113238095Y-97081509D02*
X113285714Y-97176747D01*
X113285714Y-97176747D02*
X113285714Y-97414842D01*
X113285714Y-97414842D02*
X113238095Y-97510080D01*
X113238095Y-97510080D02*
X113190476Y-97557700D01*
X113190476Y-97557700D02*
X113095238Y-97605319D01*
X113095238Y-97605319D02*
X112809524Y-97605319D01*
X112809524Y-97605319D02*
X112714286Y-97557700D01*
X112714286Y-97557700D02*
X112666667Y-97510080D01*
X128333333Y-85209080D02*
X128285714Y-85256700D01*
X128285714Y-85256700D02*
X128142857Y-85304319D01*
X128142857Y-85304319D02*
X128047619Y-85304319D01*
X128047619Y-85304319D02*
X127904762Y-85256700D01*
X127904762Y-85256700D02*
X127809524Y-85161461D01*
X127809524Y-85161461D02*
X127761905Y-85066223D01*
X127761905Y-85066223D02*
X127714286Y-84875747D01*
X127714286Y-84875747D02*
X127714286Y-84732890D01*
X127714286Y-84732890D02*
X127761905Y-84542414D01*
X127761905Y-84542414D02*
X127809524Y-84447176D01*
X127809524Y-84447176D02*
X127904762Y-84351938D01*
X127904762Y-84351938D02*
X128047619Y-84304319D01*
X128047619Y-84304319D02*
X128142857Y-84304319D01*
X128142857Y-84304319D02*
X128285714Y-84351938D01*
X128285714Y-84351938D02*
X128333333Y-84399557D01*
X128714286Y-84399557D02*
X128761905Y-84351938D01*
X128761905Y-84351938D02*
X128857143Y-84304319D01*
X128857143Y-84304319D02*
X129095238Y-84304319D01*
X129095238Y-84304319D02*
X129190476Y-84351938D01*
X129190476Y-84351938D02*
X129238095Y-84399557D01*
X129238095Y-84399557D02*
X129285714Y-84494795D01*
X129285714Y-84494795D02*
X129285714Y-84590033D01*
X129285714Y-84590033D02*
X129238095Y-84732890D01*
X129238095Y-84732890D02*
X128666667Y-85304319D01*
X128666667Y-85304319D02*
X129285714Y-85304319D01*
X178333333Y-81709080D02*
X178285714Y-81756700D01*
X178285714Y-81756700D02*
X178142857Y-81804319D01*
X178142857Y-81804319D02*
X178047619Y-81804319D01*
X178047619Y-81804319D02*
X177904762Y-81756700D01*
X177904762Y-81756700D02*
X177809524Y-81661461D01*
X177809524Y-81661461D02*
X177761905Y-81566223D01*
X177761905Y-81566223D02*
X177714286Y-81375747D01*
X177714286Y-81375747D02*
X177714286Y-81232890D01*
X177714286Y-81232890D02*
X177761905Y-81042414D01*
X177761905Y-81042414D02*
X177809524Y-80947176D01*
X177809524Y-80947176D02*
X177904762Y-80851938D01*
X177904762Y-80851938D02*
X178047619Y-80804319D01*
X178047619Y-80804319D02*
X178142857Y-80804319D01*
X178142857Y-80804319D02*
X178285714Y-80851938D01*
X178285714Y-80851938D02*
X178333333Y-80899557D01*
X179285714Y-81804319D02*
X178714286Y-81804319D01*
X179000000Y-81804319D02*
X179000000Y-80804319D01*
X179000000Y-80804319D02*
X178904762Y-80947176D01*
X178904762Y-80947176D02*
X178809524Y-81042414D01*
X178809524Y-81042414D02*
X178714286Y-81090033D01*
D11*
G04 #@! TO.C,U?*
X145671000Y-140061500D02*
X138171000Y-140061500D01*
X143670000Y-140074500D02*
X143670000Y-140658500D01*
X139428000Y-140074500D02*
X139428000Y-140658500D01*
X144445000Y-140087000D02*
X144445000Y-140671000D01*
X140203000Y-140087000D02*
X140203000Y-140671000D01*
X145080000Y-140671000D02*
X145080000Y-145192500D01*
X138806000Y-140671000D02*
X145080000Y-140671000D01*
X138780500Y-141357000D02*
X138196500Y-141357000D01*
X145689500Y-141535000D02*
X145105000Y-141535000D01*
X145080000Y-145192500D02*
X145054500Y-145192500D01*
X145080000Y-145218000D02*
X138806000Y-145218000D01*
X138806000Y-145218000D02*
X138806000Y-140671000D01*
X145664000Y-145751000D02*
X145054500Y-145141500D01*
X138221500Y-145751000D02*
X138831500Y-145141500D01*
X145664000Y-145827500D02*
X145664000Y-145751000D01*
X138221500Y-145827500D02*
X138221500Y-145751000D01*
X145689500Y-145853000D02*
X145689500Y-140052500D01*
X145689500Y-145853000D02*
X138189000Y-145853000D01*
X138171000Y-145853000D02*
X138171000Y-140061500D01*
X167200000Y-66622000D02*
X167200000Y-72400000D01*
X167200000Y-70007000D02*
X167800000Y-70007000D01*
X167200000Y-72400000D02*
X179800000Y-72400000D01*
X167235000Y-71850000D02*
X167200000Y-71815500D01*
X167336500Y-66622000D02*
X167200000Y-66622000D01*
X167336500Y-66622000D02*
X179800000Y-66622000D01*
X167489500Y-71850000D02*
X167235000Y-71850000D01*
X167800000Y-71850000D02*
X167489500Y-71850000D01*
X167850000Y-67150000D02*
X179150000Y-67150000D01*
X167850000Y-71850000D02*
X167850000Y-67150000D01*
X169300000Y-71900000D02*
X169300000Y-72400000D01*
X170400000Y-71900000D02*
X170400000Y-72400000D01*
X176800500Y-71900000D02*
X176800500Y-72400000D01*
X177900500Y-71900000D02*
X177900500Y-72400000D01*
X179150000Y-67150000D02*
X179150000Y-71850000D01*
X179150000Y-71850000D02*
X167850000Y-71850000D01*
X179200000Y-70000000D02*
X179800000Y-70000000D01*
X179245500Y-71850000D02*
X179210500Y-71815500D01*
X179800000Y-72400000D02*
X179800000Y-66622000D01*
X179810500Y-71850000D02*
X179245500Y-71850000D01*
D12*
G04 #@! TO.C,R31*
X156917000Y-73739000D02*
X155083000Y-73739000D01*
X155083000Y-73739000D02*
X155083000Y-75024000D01*
X156917000Y-75024000D02*
X156917000Y-73739000D01*
X156917000Y-75976000D02*
X156917000Y-77261000D01*
X156917000Y-77261000D02*
X155083000Y-77261000D01*
X155083000Y-77261000D02*
X155083000Y-75976000D01*
G04 #@! TO.C,R32*
X153739000Y-78583000D02*
X153739000Y-80417000D01*
X153739000Y-80417000D02*
X155024000Y-80417000D01*
X155024000Y-78583000D02*
X153739000Y-78583000D01*
X155976000Y-78583000D02*
X157261000Y-78583000D01*
X157261000Y-78583000D02*
X157261000Y-80417000D01*
X157261000Y-80417000D02*
X155976000Y-80417000D01*
G04 #@! TO.C,D3*
X164596000Y-83926000D02*
X159404000Y-83926000D01*
X164596000Y-81074000D02*
X159404000Y-81074000D01*
X162884000Y-83926000D02*
X162884000Y-81074000D01*
X159406500Y-81324500D02*
X159400000Y-81085000D01*
X159404000Y-83926000D02*
X159397000Y-83687000D01*
D13*
G36*
X164981000Y-83600500D02*
G01*
X164977000Y-84002500D01*
X164520000Y-84002500D01*
X164521500Y-83596000D01*
X164981000Y-83600500D01*
G37*
G36*
X164972500Y-81002000D02*
G01*
X164969000Y-81404000D01*
X164512000Y-81404000D01*
X164513000Y-80997500D01*
X164972500Y-81002000D01*
G37*
D12*
G04 #@! TO.C,D12*
X167404000Y-77574000D02*
X172596000Y-77574000D01*
X167404000Y-80426000D02*
X172596000Y-80426000D01*
X169116000Y-77574000D02*
X169116000Y-80426000D01*
X172593500Y-80175500D02*
X172600000Y-80415000D01*
X172596000Y-77574000D02*
X172603000Y-77813000D01*
D13*
G36*
X167478500Y-77904000D02*
G01*
X167019000Y-77899500D01*
X167023000Y-77497500D01*
X167480000Y-77497500D01*
X167478500Y-77904000D01*
G37*
G36*
X167487000Y-80502500D02*
G01*
X167027500Y-80498000D01*
X167031000Y-80096000D01*
X167488000Y-80096000D01*
X167487000Y-80502500D01*
G37*
D11*
G04 #@! TO.C,U?*
X139082500Y-83132000D02*
X139082500Y-88932000D01*
X139082500Y-87504500D02*
X139698500Y-87504500D01*
X139085000Y-83122000D02*
X149085000Y-83122000D01*
X139085000Y-88938500D02*
X149085000Y-88938500D01*
X139698500Y-83700000D02*
X148398500Y-83700000D01*
X139698500Y-87504500D02*
X139698500Y-83700000D01*
X140712000Y-88400000D02*
X139082500Y-88400000D01*
X140712000Y-88938500D02*
X140712000Y-88400000D01*
X141817000Y-88400000D02*
X146298500Y-88400000D01*
X141817000Y-88938500D02*
X141817000Y-88400000D01*
X146298500Y-88400000D02*
X146298500Y-88938500D01*
X147498500Y-88400000D02*
X147862000Y-88400000D01*
X147498500Y-88938500D02*
X147498500Y-88400000D01*
X147862000Y-88400000D02*
X149092500Y-88400000D01*
X148398500Y-83700000D02*
X148398500Y-87500000D01*
X148398500Y-87500000D02*
X149092500Y-87500000D01*
X149092500Y-83122000D02*
X149092500Y-88913000D01*
X131853000Y-84829000D02*
X126061500Y-84829000D01*
X131751000Y-84778500D02*
X131141500Y-84168500D01*
X131827500Y-84778500D02*
X131751000Y-84778500D01*
X127357000Y-84219500D02*
X127357000Y-84803500D01*
X126671000Y-84194000D02*
X126671000Y-77920000D01*
X131218000Y-84194000D02*
X126671000Y-84194000D01*
X126074500Y-83572000D02*
X126658500Y-83572000D01*
X126087000Y-82797000D02*
X126671000Y-82797000D01*
X126074500Y-79330000D02*
X126658500Y-79330000D01*
X126087000Y-78555000D02*
X126671000Y-78555000D01*
X126671000Y-77920000D02*
X131192500Y-77920000D01*
X131192500Y-77920000D02*
X131192500Y-77945500D01*
X131218000Y-77920000D02*
X131218000Y-84194000D01*
X131751000Y-77336000D02*
X131141500Y-77945500D01*
X131827500Y-77336000D02*
X131751000Y-77336000D01*
X126061500Y-77329000D02*
X126061500Y-84829000D01*
X127535000Y-77310500D02*
X127535000Y-77895000D01*
X131853000Y-77310500D02*
X131853000Y-84811000D01*
X131853000Y-77310500D02*
X126052500Y-77310500D01*
D12*
G04 #@! TO.C,R42*
X125944000Y-75498500D02*
X125944000Y-74501500D01*
X125944000Y-74501500D02*
X125226000Y-74501500D01*
X125226000Y-75498500D02*
X125944000Y-75498500D01*
X124774000Y-75498500D02*
X124056000Y-75498500D01*
X124056000Y-75498500D02*
X124056000Y-74501500D01*
X124056000Y-74501500D02*
X124774000Y-74501500D01*
G04 #@! TO.C,C_O4*
X122226500Y-77490000D02*
X122226500Y-75782500D01*
X122226500Y-72510000D02*
X122226500Y-74217500D01*
X120490000Y-79226000D02*
X122226500Y-77490000D01*
X120490000Y-70773500D02*
X122226500Y-72510000D01*
X113774000Y-79226000D02*
X120490000Y-79226000D01*
X113774000Y-75782500D02*
X113774000Y-79226000D01*
X113774000Y-74217500D02*
X113774000Y-70773500D01*
X113774000Y-70773500D02*
X120490000Y-70773500D01*
D13*
G36*
X121901000Y-77033500D02*
G01*
X120905000Y-77033500D01*
X120905000Y-76784500D01*
X121901000Y-76784500D01*
X121901000Y-77033500D01*
G37*
G36*
X121527500Y-77739000D02*
G01*
X121278500Y-77739000D01*
X121278500Y-76079000D01*
X121527500Y-76079000D01*
X121527500Y-77739000D01*
G37*
G36*
X115095000Y-77033500D02*
G01*
X114099000Y-77033500D01*
X114099000Y-76784500D01*
X115095000Y-76784500D01*
X115095000Y-77033500D01*
G37*
D11*
G04 #@! TO.C,U?*
X141001500Y-67050500D02*
X141001500Y-72850500D01*
X141001500Y-72850500D02*
X156001000Y-72850500D01*
X141401000Y-70450000D02*
X141001500Y-70450000D01*
X141450000Y-67550000D02*
X155450000Y-67550000D01*
X141450000Y-72400000D02*
X141450000Y-67550000D01*
X141451000Y-71100000D02*
X141001500Y-71100000D01*
X143451000Y-72400000D02*
X143451000Y-72850500D01*
X143901000Y-72400000D02*
X143901000Y-72850500D01*
X152751000Y-72450000D02*
X152751000Y-72850500D01*
X153501000Y-72450000D02*
X153501000Y-72850500D01*
X155450000Y-67550000D02*
X155450000Y-72400000D01*
X155450000Y-72400000D02*
X141450000Y-72400000D01*
X155451000Y-70450000D02*
X156001000Y-70450000D01*
X155451000Y-71050000D02*
X156001000Y-71050000D01*
X156001000Y-67050500D02*
X141001500Y-67050500D01*
X156001000Y-67050500D02*
X156001000Y-72850500D01*
D12*
G04 #@! TO.C,U4*
X161521500Y-101474000D02*
X161521500Y-106526000D01*
X158478500Y-101474000D02*
X161521500Y-101474000D01*
X161521500Y-106526000D02*
X158478500Y-106526000D01*
X158478500Y-106526000D02*
X158478500Y-101474000D01*
D14*
X157377500Y-101348500D02*
G75*
G02*
X157077500Y-101348500I-150000J0D01*
G01*
X157077500Y-101348500D02*
G75*
G02*
X157377500Y-101348500I150000J0D01*
G01*
X159381000Y-102095000D02*
G75*
G02*
X159081000Y-102095000I-150000J0D01*
G01*
X159081000Y-102095000D02*
G75*
G02*
X159381000Y-102095000I150000J0D01*
G01*
D12*
G04 #@! TO.C,U3*
X130978500Y-106026000D02*
X130978500Y-100974000D01*
X134021500Y-106026000D02*
X130978500Y-106026000D01*
X130978500Y-100974000D02*
X134021500Y-100974000D01*
X134021500Y-100974000D02*
X134021500Y-106026000D01*
D14*
X135422500Y-106151500D02*
G75*
G02*
X135122500Y-106151500I-150000J0D01*
G01*
X135122500Y-106151500D02*
G75*
G02*
X135422500Y-106151500I150000J0D01*
G01*
X133419000Y-105405000D02*
G75*
G02*
X133119000Y-105405000I-150000J0D01*
G01*
X133119000Y-105405000D02*
G75*
G02*
X133419000Y-105405000I150000J0D01*
G01*
D12*
G04 #@! TO.C,U2*
X122021500Y-99474000D02*
X122021500Y-104526000D01*
X118978500Y-99474000D02*
X122021500Y-99474000D01*
X122021500Y-104526000D02*
X118978500Y-104526000D01*
X118978500Y-104526000D02*
X118978500Y-99474000D01*
D14*
X117877500Y-99348500D02*
G75*
G02*
X117577500Y-99348500I-150000J0D01*
G01*
X117577500Y-99348500D02*
G75*
G02*
X117877500Y-99348500I150000J0D01*
G01*
X119881000Y-100095000D02*
G75*
G02*
X119581000Y-100095000I-150000J0D01*
G01*
X119581000Y-100095000D02*
G75*
G02*
X119881000Y-100095000I150000J0D01*
G01*
D12*
G04 #@! TO.C,U1*
X172521500Y-102424000D02*
X172521500Y-107476000D01*
X169478500Y-102424000D02*
X172521500Y-102424000D01*
X172521500Y-107476000D02*
X169478500Y-107476000D01*
X169478500Y-107476000D02*
X169478500Y-102424000D01*
D14*
X168377500Y-102298500D02*
G75*
G02*
X168077500Y-102298500I-150000J0D01*
G01*
X168077500Y-102298500D02*
G75*
G02*
X168377500Y-102298500I150000J0D01*
G01*
X170381000Y-103045000D02*
G75*
G02*
X170081000Y-103045000I-150000J0D01*
G01*
X170081000Y-103045000D02*
G75*
G02*
X170381000Y-103045000I150000J0D01*
G01*
D12*
G04 #@! TO.C,R_SC4*
X166421000Y-98311000D02*
X166421000Y-96951000D01*
X168579000Y-98311000D02*
X166421000Y-98311000D01*
X168579000Y-96951000D02*
X168579000Y-98311000D01*
X168579000Y-95049000D02*
X168579000Y-93689000D01*
X166421000Y-93689000D02*
X166421000Y-95049000D01*
X168579000Y-93689000D02*
X166421000Y-93689000D01*
G04 #@! TO.C,R_SC3*
X114885000Y-87160500D02*
X114885000Y-85839500D01*
X114885000Y-85839500D02*
X113926000Y-85839500D01*
X113926000Y-87160500D02*
X114885000Y-87160500D01*
X113074000Y-87160500D02*
X112115000Y-87160500D01*
X112115000Y-87160500D02*
X112115000Y-85839500D01*
X112115000Y-85839500D02*
X113074000Y-85839500D01*
G04 #@! TO.C,R_SC2*
X120421000Y-96811000D02*
X120421000Y-95451000D01*
X122579000Y-96811000D02*
X120421000Y-96811000D01*
X122579000Y-95451000D02*
X122579000Y-96811000D01*
X122579000Y-93549000D02*
X122579000Y-92189000D01*
X120421000Y-92189000D02*
X120421000Y-93549000D01*
X122579000Y-92189000D02*
X120421000Y-92189000D01*
G04 #@! TO.C,R_SC1*
X169921000Y-98811000D02*
X169921000Y-97451000D01*
X172079000Y-98811000D02*
X169921000Y-98811000D01*
X172079000Y-97451000D02*
X172079000Y-98811000D01*
X172079000Y-95549000D02*
X172079000Y-94189000D01*
X169921000Y-94189000D02*
X169921000Y-95549000D01*
X172079000Y-94189000D02*
X169921000Y-94189000D01*
G04 #@! TO.C,R_PD1*
X148079000Y-76689000D02*
X145921000Y-76689000D01*
X145921000Y-76689000D02*
X145921000Y-78049000D01*
X148079000Y-78049000D02*
X148079000Y-76689000D01*
X148079000Y-79951000D02*
X148079000Y-81311000D01*
X148079000Y-81311000D02*
X145921000Y-81311000D01*
X145921000Y-81311000D02*
X145921000Y-79951000D01*
G04 #@! TO.C,R41*
X162529000Y-107139000D02*
X162529000Y-108499000D01*
X160371000Y-107139000D02*
X162529000Y-107139000D01*
X160371000Y-108499000D02*
X160371000Y-107139000D01*
X160371000Y-110401000D02*
X160371000Y-111761000D01*
X162529000Y-111761000D02*
X162529000Y-110401000D01*
X160371000Y-111761000D02*
X162529000Y-111761000D01*
G04 #@! TO.C,R40*
X166079000Y-95383000D02*
X166079000Y-96743000D01*
X163921000Y-95383000D02*
X166079000Y-95383000D01*
X163921000Y-96743000D02*
X163921000Y-95383000D01*
X163921000Y-98645000D02*
X163921000Y-100005000D01*
X166079000Y-100005000D02*
X166079000Y-98645000D01*
X163921000Y-100005000D02*
X166079000Y-100005000D01*
G04 #@! TO.C,R30*
X128921000Y-111311000D02*
X128921000Y-109951000D01*
X131079000Y-111311000D02*
X128921000Y-111311000D01*
X131079000Y-109951000D02*
X131079000Y-111311000D01*
X131079000Y-108049000D02*
X131079000Y-106689000D01*
X128921000Y-106689000D02*
X128921000Y-108049000D01*
X131079000Y-106689000D02*
X128921000Y-106689000D01*
G04 #@! TO.C,R22*
X148917000Y-141239000D02*
X148917000Y-142524000D01*
X147083000Y-141239000D02*
X148917000Y-141239000D01*
X147083000Y-142524000D02*
X147083000Y-141239000D01*
X147083000Y-143476000D02*
X147083000Y-144761000D01*
X148917000Y-144761000D02*
X148917000Y-143476000D01*
X147083000Y-144761000D02*
X148917000Y-144761000D01*
G04 #@! TO.C,R21*
X149489000Y-144583000D02*
X150774000Y-144583000D01*
X149489000Y-146417000D02*
X149489000Y-144583000D01*
X150774000Y-146417000D02*
X149489000Y-146417000D01*
X151726000Y-146417000D02*
X153011000Y-146417000D01*
X153011000Y-144583000D02*
X151726000Y-144583000D01*
X153011000Y-146417000D02*
X153011000Y-144583000D01*
G04 #@! TO.C,R12*
X154239000Y-127583000D02*
X155524000Y-127583000D01*
X154239000Y-129417000D02*
X154239000Y-127583000D01*
X155524000Y-129417000D02*
X154239000Y-129417000D01*
X156476000Y-129417000D02*
X157761000Y-129417000D01*
X157761000Y-127583000D02*
X156476000Y-127583000D01*
X157761000Y-129417000D02*
X157761000Y-127583000D01*
G04 #@! TO.C,R11*
X158739000Y-127583000D02*
X160024000Y-127583000D01*
X158739000Y-129417000D02*
X158739000Y-127583000D01*
X160024000Y-129417000D02*
X158739000Y-129417000D01*
X160976000Y-129417000D02*
X162261000Y-129417000D01*
X162261000Y-127583000D02*
X160976000Y-127583000D01*
X162261000Y-129417000D02*
X162261000Y-127583000D01*
G04 #@! TO.C,R3*
X146239000Y-73583000D02*
X147524000Y-73583000D01*
X146239000Y-75417000D02*
X146239000Y-73583000D01*
X147524000Y-75417000D02*
X146239000Y-75417000D01*
X148476000Y-75417000D02*
X149761000Y-75417000D01*
X149761000Y-73583000D02*
X148476000Y-73583000D01*
X149761000Y-75417000D02*
X149761000Y-73583000D01*
G04 #@! TO.C,R2*
X141739000Y-73583000D02*
X143024000Y-73583000D01*
X141739000Y-75417000D02*
X141739000Y-73583000D01*
X143024000Y-75417000D02*
X141739000Y-75417000D01*
X143976000Y-75417000D02*
X145261000Y-75417000D01*
X145261000Y-73583000D02*
X143976000Y-73583000D01*
X145261000Y-75417000D02*
X145261000Y-73583000D01*
G04 #@! TO.C,R1*
X150417000Y-78739000D02*
X150417000Y-80024000D01*
X148583000Y-78739000D02*
X150417000Y-78739000D01*
X148583000Y-80024000D02*
X148583000Y-78739000D01*
X148583000Y-80976000D02*
X148583000Y-82261000D01*
X150417000Y-82261000D02*
X150417000Y-80976000D01*
X148583000Y-82261000D02*
X150417000Y-82261000D01*
G04 #@! TO.C,Q1*
X142774000Y-78474000D02*
X142774000Y-79505500D01*
X142774000Y-81526000D02*
X142774000Y-80494500D01*
X144226000Y-78474000D02*
X142774000Y-78474000D01*
X144226000Y-79544500D02*
X144226000Y-80455500D01*
X144226000Y-81526000D02*
X142774000Y-81526000D01*
D11*
G04 #@! TO.C,L4*
X162700000Y-100700000D02*
X162700000Y-97431000D01*
X162700000Y-100700000D02*
X150300000Y-100700000D01*
X162700000Y-91569000D02*
X162700000Y-88300000D01*
X162700000Y-88300000D02*
X150300000Y-88300000D01*
X150300000Y-97431000D02*
X150300000Y-100700000D01*
X150300000Y-88300000D02*
X150300000Y-91569000D01*
X161166500Y-97847500D02*
G75*
G02*
X151800001Y-97800000I-4666395J3347296D01*
G01*
X161050000Y-98004000D02*
G75*
G02*
X159600001Y-99599999I-728287J-795013D01*
G01*
X159258500Y-89489000D02*
G75*
G02*
X161034501Y-90740501I882576J-633448D01*
G01*
X153412500Y-99488000D02*
G75*
G02*
X151816453Y-98038458I-795000J728100D01*
G01*
X152000000Y-90800000D02*
G75*
G02*
X153573000Y-89324000I788841J735505D01*
G01*
X151948000Y-91036500D02*
G75*
G02*
X161100001Y-91100000I4552187J-3463879D01*
G01*
G04 #@! TO.C,L3*
X114850000Y-105350000D02*
X114850000Y-108569000D01*
X114850000Y-105350000D02*
X127150000Y-105350000D01*
X114850000Y-114431000D02*
X114850000Y-117650000D01*
X114850000Y-117650000D02*
X127150000Y-117650000D01*
X127150000Y-108569000D02*
X127150000Y-105350000D01*
X127150000Y-117650000D02*
X127150000Y-114431000D01*
G04 #@! TO.C,L2*
X146150000Y-114850000D02*
X142931000Y-114850000D01*
X146150000Y-114850000D02*
X146150000Y-127150000D01*
X137069000Y-114850000D02*
X133850000Y-114850000D01*
X133850000Y-114850000D02*
X133850000Y-127150000D01*
X142931000Y-127150000D02*
X146150000Y-127150000D01*
X133850000Y-127150000D02*
X137069000Y-127150000D01*
G04 #@! TO.C,L1*
X159150000Y-114350000D02*
X155931000Y-114350000D01*
X159150000Y-114350000D02*
X159150000Y-126650000D01*
X150069000Y-114350000D02*
X146850000Y-114350000D01*
X146850000Y-114350000D02*
X146850000Y-126650000D01*
X155931000Y-126650000D02*
X159150000Y-126650000D01*
X146850000Y-126650000D02*
X150069000Y-126650000D01*
D12*
G04 #@! TO.C,D11*
X140426000Y-76404000D02*
X140426000Y-81596000D01*
X137574000Y-76404000D02*
X137574000Y-81596000D01*
X140426000Y-78116000D02*
X137574000Y-78116000D01*
X137824500Y-81593500D02*
X137585000Y-81600000D01*
X140426000Y-81596000D02*
X140187000Y-81603000D01*
D13*
G36*
X140502500Y-76023000D02*
G01*
X140502500Y-76480000D01*
X140096000Y-76478500D01*
X140100500Y-76019000D01*
X140502500Y-76023000D01*
G37*
G36*
X137904000Y-76031000D02*
G01*
X137904000Y-76488000D01*
X137497500Y-76487000D01*
X137502000Y-76027500D01*
X137904000Y-76031000D01*
G37*
D12*
G04 #@! TO.C,D10*
X159404000Y-84574000D02*
X164596000Y-84574000D01*
X159404000Y-87426000D02*
X164596000Y-87426000D01*
X161116000Y-84574000D02*
X161116000Y-87426000D01*
X164593500Y-87175500D02*
X164600000Y-87415000D01*
X164596000Y-84574000D02*
X164603000Y-84813000D01*
D13*
G36*
X159478500Y-84904000D02*
G01*
X159019000Y-84899500D01*
X159023000Y-84497500D01*
X159480000Y-84497500D01*
X159478500Y-84904000D01*
G37*
G36*
X159487000Y-87502500D02*
G01*
X159027500Y-87498000D01*
X159031000Y-87096000D01*
X159488000Y-87096000D01*
X159487000Y-87502500D01*
G37*
D12*
G04 #@! TO.C,D4*
X122596000Y-82926000D02*
X117404000Y-82926000D01*
X122596000Y-80074000D02*
X117404000Y-80074000D01*
X120884000Y-82926000D02*
X120884000Y-80074000D01*
X117406500Y-80324500D02*
X117400000Y-80085000D01*
X117404000Y-82926000D02*
X117397000Y-82687000D01*
D13*
G36*
X122981000Y-82600500D02*
G01*
X122977000Y-83002500D01*
X122520000Y-83002500D01*
X122521500Y-82596000D01*
X122981000Y-82600500D01*
G37*
G36*
X122972500Y-80002000D02*
G01*
X122969000Y-80404000D01*
X122512000Y-80404000D01*
X122513000Y-79997500D01*
X122972500Y-80002000D01*
G37*
D12*
G04 #@! TO.C,D2*
X137904000Y-110574000D02*
X143096000Y-110574000D01*
X137904000Y-113426000D02*
X143096000Y-113426000D01*
X139616000Y-110574000D02*
X139616000Y-113426000D01*
X143093500Y-113175500D02*
X143100000Y-113415000D01*
X143096000Y-110574000D02*
X143103000Y-110813000D01*
D13*
G36*
X137978500Y-110904000D02*
G01*
X137519000Y-110899500D01*
X137523000Y-110497500D01*
X137980000Y-110497500D01*
X137978500Y-110904000D01*
G37*
G36*
X137987000Y-113502500D02*
G01*
X137527500Y-113498000D01*
X137531000Y-113096000D01*
X137988000Y-113096000D01*
X137987000Y-113502500D01*
G37*
D12*
G04 #@! TO.C,D1*
X162926000Y-114404000D02*
X162926000Y-119596000D01*
X160074000Y-114404000D02*
X160074000Y-119596000D01*
X162926000Y-116116000D02*
X160074000Y-116116000D01*
X160324500Y-119593500D02*
X160085000Y-119600000D01*
X162926000Y-119596000D02*
X162687000Y-119603000D01*
D13*
G36*
X163002500Y-114023000D02*
G01*
X163002500Y-114480000D01*
X162596000Y-114478500D01*
X162600500Y-114019000D01*
X163002500Y-114023000D01*
G37*
G36*
X160404000Y-114031000D02*
G01*
X160404000Y-114488000D01*
X159997500Y-114487000D01*
X160002000Y-114027500D01*
X160404000Y-114031000D01*
G37*
D11*
G04 #@! TO.C,C_T4*
X155890000Y-104600500D02*
X155890000Y-105400500D01*
X154780000Y-105710000D02*
X155580000Y-105710000D01*
X154780000Y-104290500D02*
X155580000Y-104290500D01*
X154219500Y-105709500D02*
X153420000Y-105709500D01*
X154219500Y-104290000D02*
X153420000Y-104290000D01*
X153110000Y-105400000D02*
X153110000Y-104599500D01*
X155890000Y-105400000D02*
G75*
G02*
X155580000Y-105710000I-309148J-852D01*
G01*
X155580000Y-104290500D02*
G75*
G02*
X155890000Y-104600500I0J-310000D01*
G01*
X153420000Y-105709500D02*
G75*
G02*
X153110001Y-105400000I350J310350D01*
G01*
X153110000Y-104600000D02*
G75*
G02*
X153420000Y-104290000I310000J0D01*
G01*
G04 #@! TO.C,C_T3*
X136610000Y-103399500D02*
X136610000Y-102599500D01*
X137720000Y-102290000D02*
X136920000Y-102290000D01*
X137720000Y-103709500D02*
X136920000Y-103709500D01*
X138280500Y-102290500D02*
X139080000Y-102290500D01*
X138280500Y-103710000D02*
X139080000Y-103710000D01*
X139390000Y-102600000D02*
X139390000Y-103400500D01*
X136610000Y-102600000D02*
G75*
G02*
X136920000Y-102290000I309148J852D01*
G01*
X136920000Y-103709500D02*
G75*
G02*
X136610000Y-103399500I0J310000D01*
G01*
X139080000Y-102290500D02*
G75*
G02*
X139389999Y-102600000I-350J-310350D01*
G01*
X139390000Y-103400000D02*
G75*
G02*
X139080000Y-103710000I-310000J0D01*
G01*
G04 #@! TO.C,C_T2*
X114890000Y-103100500D02*
X114890000Y-103900500D01*
X113780000Y-104210000D02*
X114580000Y-104210000D01*
X113780000Y-102790500D02*
X114580000Y-102790500D01*
X113219500Y-104209500D02*
X112420000Y-104209500D01*
X113219500Y-102790000D02*
X112420000Y-102790000D01*
X112110000Y-103900000D02*
X112110000Y-103099500D01*
X114890000Y-103900000D02*
G75*
G02*
X114580000Y-104210000I-309148J-852D01*
G01*
X114580000Y-102790500D02*
G75*
G02*
X114890000Y-103100500I0J-310000D01*
G01*
X112420000Y-104209500D02*
G75*
G02*
X112110001Y-103900000I350J310350D01*
G01*
X112110000Y-103100000D02*
G75*
G02*
X112420000Y-102790000I310000J0D01*
G01*
G04 #@! TO.C,C_T1*
X166600500Y-109510000D02*
X167400500Y-109510000D01*
X167710000Y-110620000D02*
X167710000Y-109820000D01*
X166290500Y-110620000D02*
X166290500Y-109820000D01*
X167709500Y-111180500D02*
X167709500Y-111980000D01*
X166290000Y-111180500D02*
X166290000Y-111980000D01*
X167400000Y-112290000D02*
X166599500Y-112290000D01*
X167400000Y-109510000D02*
G75*
G02*
X167710000Y-109820000I852J-309148D01*
G01*
X166290500Y-109820000D02*
G75*
G02*
X166600500Y-109510000I310000J0D01*
G01*
X167709500Y-111980000D02*
G75*
G02*
X167400000Y-112289999I-310350J350D01*
G01*
X166600000Y-112290000D02*
G75*
G02*
X166290000Y-111980000I0J310000D01*
G01*
D13*
G04 #@! TO.C,C_O3*
G36*
X160215500Y-72095000D02*
G01*
X159966500Y-72095000D01*
X159966500Y-71099000D01*
X160215500Y-71099000D01*
X160215500Y-72095000D01*
G37*
G36*
X160921000Y-78527500D02*
G01*
X159261000Y-78527500D01*
X159261000Y-78278500D01*
X160921000Y-78278500D01*
X160921000Y-78527500D01*
G37*
G36*
X160215500Y-78901000D02*
G01*
X159966500Y-78901000D01*
X159966500Y-77905000D01*
X160215500Y-77905000D01*
X160215500Y-78901000D01*
G37*
D12*
X166226500Y-70774000D02*
X166226500Y-77490000D01*
X162782500Y-70774000D02*
X166226500Y-70774000D01*
X161217500Y-70774000D02*
X157774000Y-70774000D01*
X157774000Y-70774000D02*
X157774000Y-77490000D01*
X166226500Y-77490000D02*
X164490000Y-79226500D01*
X157774000Y-77490000D02*
X159510000Y-79226500D01*
X164490000Y-79226500D02*
X162782500Y-79226500D01*
X159510000Y-79226500D02*
X161217500Y-79226500D01*
D15*
G04 #@! TO.C,C_O2*
X140726000Y-137090000D02*
X140726000Y-135005000D01*
X140726000Y-132995000D02*
X140726000Y-130910000D01*
D12*
X138590000Y-139226000D02*
X140726000Y-137090000D01*
X138590000Y-128774000D02*
X140726000Y-130910000D01*
X130274000Y-139226000D02*
X138590000Y-139226000D01*
D15*
X130274000Y-135005000D02*
X130274000Y-139226000D01*
D12*
X130274000Y-128774000D02*
X138590000Y-128774000D01*
D15*
X130274000Y-128774000D02*
X130274000Y-132995000D01*
D13*
G36*
X140341000Y-131785500D02*
G01*
X139105000Y-131785500D01*
X139105000Y-131476500D01*
X140341000Y-131476500D01*
X140341000Y-131785500D01*
G37*
G36*
X139877500Y-132661000D02*
G01*
X139568500Y-132661000D01*
X139568500Y-130601000D01*
X139877500Y-130601000D01*
X139877500Y-132661000D01*
G37*
G36*
X131895000Y-131785500D02*
G01*
X130659000Y-131785500D01*
X130659000Y-131476500D01*
X131895000Y-131476500D01*
X131895000Y-131785500D01*
G37*
D12*
G04 #@! TO.C,C_O1*
X151478500Y-131510000D02*
X151478500Y-133217500D01*
X151478500Y-136490000D02*
X151478500Y-134782500D01*
X153215000Y-129774000D02*
X151478500Y-131510000D01*
X153215000Y-138226500D02*
X151478500Y-136490000D01*
X159931000Y-129774000D02*
X153215000Y-129774000D01*
X159931000Y-133217500D02*
X159931000Y-129774000D01*
X159931000Y-134782500D02*
X159931000Y-138226500D01*
X159931000Y-138226500D02*
X153215000Y-138226500D01*
D13*
G36*
X152800000Y-132215500D02*
G01*
X151804000Y-132215500D01*
X151804000Y-131966500D01*
X152800000Y-131966500D01*
X152800000Y-132215500D01*
G37*
G36*
X152426500Y-132921000D02*
G01*
X152177500Y-132921000D01*
X152177500Y-131261000D01*
X152426500Y-131261000D01*
X152426500Y-132921000D01*
G37*
G36*
X159606000Y-132215500D02*
G01*
X158610000Y-132215500D01*
X158610000Y-131966500D01*
X159606000Y-131966500D01*
X159606000Y-132215500D01*
G37*
G04 #@! TO.C,C4*
G36*
X182901000Y-75715500D02*
G01*
X181905000Y-75715500D01*
X181905000Y-75466500D01*
X182901000Y-75466500D01*
X182901000Y-75715500D01*
G37*
G36*
X175721500Y-76421000D02*
G01*
X175472500Y-76421000D01*
X175472500Y-74761000D01*
X175721500Y-74761000D01*
X175721500Y-76421000D01*
G37*
G36*
X176095000Y-75715500D02*
G01*
X175099000Y-75715500D01*
X175099000Y-75466500D01*
X176095000Y-75466500D01*
X176095000Y-75715500D01*
G37*
D12*
X183226000Y-81726500D02*
X176510000Y-81726500D01*
X183226000Y-78282500D02*
X183226000Y-81726500D01*
X183226000Y-76717500D02*
X183226000Y-73274000D01*
X183226000Y-73274000D02*
X176510000Y-73274000D01*
X176510000Y-81726500D02*
X174773500Y-79990000D01*
X176510000Y-73274000D02*
X174773500Y-75010000D01*
X174773500Y-79990000D02*
X174773500Y-78282500D01*
X174773500Y-75010000D02*
X174773500Y-76717500D01*
G04 #@! TO.C,C3*
X116726500Y-94490000D02*
X116726500Y-92782500D01*
X116726500Y-89510000D02*
X116726500Y-91217500D01*
X114990000Y-96226000D02*
X116726500Y-94490000D01*
X114990000Y-87773500D02*
X116726500Y-89510000D01*
X108274000Y-96226000D02*
X114990000Y-96226000D01*
X108274000Y-92782500D02*
X108274000Y-96226000D01*
X108274000Y-91217500D02*
X108274000Y-87773500D01*
X108274000Y-87773500D02*
X114990000Y-87773500D01*
D13*
G36*
X116401000Y-94033500D02*
G01*
X115405000Y-94033500D01*
X115405000Y-93784500D01*
X116401000Y-93784500D01*
X116401000Y-94033500D01*
G37*
G36*
X116027500Y-94739000D02*
G01*
X115778500Y-94739000D01*
X115778500Y-93079000D01*
X116027500Y-93079000D01*
X116027500Y-94739000D01*
G37*
G36*
X109595000Y-94033500D02*
G01*
X108599000Y-94033500D01*
X108599000Y-93784500D01*
X109595000Y-93784500D01*
X109595000Y-94033500D01*
G37*
D12*
G04 #@! TO.C,C2*
X124273500Y-87510000D02*
X124273500Y-89217500D01*
X124273500Y-92490000D02*
X124273500Y-90782500D01*
X126010000Y-85774000D02*
X124273500Y-87510000D01*
X126010000Y-94226500D02*
X124273500Y-92490000D01*
X132726000Y-85774000D02*
X126010000Y-85774000D01*
X132726000Y-89217500D02*
X132726000Y-85774000D01*
X132726000Y-90782500D02*
X132726000Y-94226500D01*
X132726000Y-94226500D02*
X126010000Y-94226500D01*
D13*
G36*
X125595000Y-88215500D02*
G01*
X124599000Y-88215500D01*
X124599000Y-87966500D01*
X125595000Y-87966500D01*
X125595000Y-88215500D01*
G37*
G36*
X125221500Y-88921000D02*
G01*
X124972500Y-88921000D01*
X124972500Y-87261000D01*
X125221500Y-87261000D01*
X125221500Y-88921000D01*
G37*
G36*
X132401000Y-88215500D02*
G01*
X131405000Y-88215500D01*
X131405000Y-87966500D01*
X132401000Y-87966500D01*
X132401000Y-88215500D01*
G37*
D12*
G04 #@! TO.C,C1*
X174273500Y-84010000D02*
X174273500Y-85717500D01*
X174273500Y-88990000D02*
X174273500Y-87282500D01*
X176010000Y-82274000D02*
X174273500Y-84010000D01*
X176010000Y-90726500D02*
X174273500Y-88990000D01*
X182726000Y-82274000D02*
X176010000Y-82274000D01*
X182726000Y-85717500D02*
X182726000Y-82274000D01*
X182726000Y-87282500D02*
X182726000Y-90726500D01*
X182726000Y-90726500D02*
X176010000Y-90726500D01*
D13*
G36*
X175595000Y-84715500D02*
G01*
X174599000Y-84715500D01*
X174599000Y-84466500D01*
X175595000Y-84466500D01*
X175595000Y-84715500D01*
G37*
G36*
X175221500Y-85421000D02*
G01*
X174972500Y-85421000D01*
X174972500Y-83761000D01*
X175221500Y-83761000D01*
X175221500Y-85421000D01*
G37*
G36*
X182401000Y-84715500D02*
G01*
X181405000Y-84715500D01*
X181405000Y-84466500D01*
X182401000Y-84466500D01*
X182401000Y-84715500D01*
G37*
G04 #@! TD*
%LPC*%
D16*
G04 #@! TO.C,U?*
X143251000Y-142500000D03*
X140749000Y-142500000D03*
G04 #@! TD*
D17*
G04 #@! TO.C,U?*
X169749500Y-70000000D03*
D18*
X172250000Y-70000000D03*
X174750000Y-70000000D03*
X177250500Y-70000000D03*
G04 #@! TD*
D19*
G04 #@! TO.C,R31*
X156000000Y-74500000D03*
X156000000Y-76500000D03*
G04 #@! TD*
D20*
G04 #@! TO.C,R32*
X154500000Y-79500000D03*
X156500000Y-79500000D03*
G04 #@! TD*
D21*
G04 #@! TO.C,D3*
X164200000Y-82500000D03*
X159800000Y-82500000D03*
G04 #@! TD*
G04 #@! TO.C,D12*
X167800000Y-79000000D03*
X172200000Y-79000000D03*
G04 #@! TD*
D16*
G04 #@! TO.C,U?*
X141500000Y-86500000D03*
X144000000Y-86500000D03*
X146500000Y-86500000D03*
G04 #@! TD*
G04 #@! TO.C,U?*
X128500000Y-79749000D03*
X128500000Y-82251000D03*
G04 #@! TD*
D22*
G04 #@! TO.C,R42*
X125433000Y-75000000D03*
X124567000Y-75000000D03*
G04 #@! TD*
D23*
G04 #@! TO.C,C_O4*
X121295000Y-75000000D03*
X114705000Y-75000000D03*
G04 #@! TD*
D24*
G04 #@! TO.C,U?*
X143500000Y-70500000D03*
D25*
X146000000Y-70500000D03*
X148500000Y-70500000D03*
X151000000Y-70500000D03*
X153500000Y-70500000D03*
G04 #@! TD*
D26*
G04 #@! TO.C,U4*
X157430000Y-102095000D03*
X157430000Y-103365000D03*
X157430000Y-104635000D03*
X157430000Y-105905000D03*
X162570000Y-105905000D03*
X162570000Y-104635000D03*
X162570000Y-103365000D03*
X162570000Y-102095000D03*
G04 #@! TD*
G04 #@! TO.C,U3*
X135070000Y-105405000D03*
X135070000Y-104135000D03*
X135070000Y-102865000D03*
X135070000Y-101595000D03*
X129930000Y-101595000D03*
X129930000Y-102865000D03*
X129930000Y-104135000D03*
X129930000Y-105405000D03*
G04 #@! TD*
G04 #@! TO.C,U2*
X117930000Y-100095000D03*
X117930000Y-101365000D03*
X117930000Y-102635000D03*
X117930000Y-103905000D03*
X123070000Y-103905000D03*
X123070000Y-102635000D03*
X123070000Y-101365000D03*
X123070000Y-100095000D03*
G04 #@! TD*
G04 #@! TO.C,U1*
X168430000Y-103045000D03*
X168430000Y-104315000D03*
X168430000Y-105585000D03*
X168430000Y-106855000D03*
X173570000Y-106855000D03*
X173570000Y-105585000D03*
X173570000Y-104315000D03*
X173570000Y-103045000D03*
G04 #@! TD*
D27*
G04 #@! TO.C,R_SC4*
X167500000Y-97479000D03*
X167500000Y-94521000D03*
G04 #@! TD*
D28*
G04 #@! TO.C,R_SC3*
X114253500Y-86500000D03*
X112746500Y-86500000D03*
G04 #@! TD*
D27*
G04 #@! TO.C,R_SC2*
X121500000Y-95979000D03*
X121500000Y-93021000D03*
G04 #@! TD*
G04 #@! TO.C,R_SC1*
X171000000Y-97979000D03*
X171000000Y-95021000D03*
G04 #@! TD*
G04 #@! TO.C,R_PD1*
X147000000Y-77521000D03*
X147000000Y-80479000D03*
G04 #@! TD*
G04 #@! TO.C,R41*
X161450000Y-107971000D03*
X161450000Y-110929000D03*
G04 #@! TD*
G04 #@! TO.C,R40*
X165000000Y-96215000D03*
X165000000Y-99173000D03*
G04 #@! TD*
G04 #@! TO.C,R30*
X130000000Y-110479000D03*
X130000000Y-107521000D03*
G04 #@! TD*
D19*
G04 #@! TO.C,R22*
X148000000Y-142000000D03*
X148000000Y-144000000D03*
G04 #@! TD*
D20*
G04 #@! TO.C,R21*
X150250000Y-145500000D03*
X152250000Y-145500000D03*
G04 #@! TD*
G04 #@! TO.C,R12*
X155000000Y-128500000D03*
X157000000Y-128500000D03*
G04 #@! TD*
G04 #@! TO.C,R11*
X159500000Y-128500000D03*
X161500000Y-128500000D03*
G04 #@! TD*
G04 #@! TO.C,R3*
X147000000Y-74500000D03*
X149000000Y-74500000D03*
G04 #@! TD*
G04 #@! TO.C,R2*
X142500000Y-74500000D03*
X144500000Y-74500000D03*
G04 #@! TD*
D19*
G04 #@! TO.C,R1*
X149500000Y-79500000D03*
X149500000Y-81500000D03*
G04 #@! TD*
D29*
G04 #@! TO.C,Q1*
X144500000Y-80950000D03*
X144500000Y-79050000D03*
X142500000Y-80000000D03*
G04 #@! TD*
D30*
G04 #@! TO.C,L4*
X161950000Y-94500000D03*
X151050000Y-94500000D03*
G04 #@! TD*
G04 #@! TO.C,L3*
X115750000Y-111500000D03*
X126250000Y-111500000D03*
G04 #@! TD*
D31*
G04 #@! TO.C,L2*
X140000000Y-115750000D03*
X140000000Y-126250000D03*
G04 #@! TD*
G04 #@! TO.C,L1*
X153000000Y-115250000D03*
X153000000Y-125750000D03*
G04 #@! TD*
D21*
G04 #@! TO.C,D11*
X139000000Y-76800000D03*
X139000000Y-81200000D03*
G04 #@! TD*
G04 #@! TO.C,D10*
X159800000Y-86000000D03*
X164200000Y-86000000D03*
G04 #@! TD*
G04 #@! TO.C,D4*
X122200000Y-81500000D03*
X117800000Y-81500000D03*
G04 #@! TD*
G04 #@! TO.C,D2*
X138300000Y-112000000D03*
X142700000Y-112000000D03*
G04 #@! TD*
G04 #@! TO.C,D1*
X161500000Y-114800000D03*
X161500000Y-119200000D03*
G04 #@! TD*
D32*
G04 #@! TO.C,C_T4*
X155200000Y-105000000D03*
X153800000Y-105000000D03*
G04 #@! TD*
G04 #@! TO.C,C_T3*
X137300000Y-103000000D03*
X138700000Y-103000000D03*
G04 #@! TD*
G04 #@! TO.C,C_T2*
X114200000Y-103500000D03*
X112800000Y-103500000D03*
G04 #@! TD*
D33*
G04 #@! TO.C,C_T1*
X167000000Y-110200000D03*
X167000000Y-111600000D03*
G04 #@! TD*
D34*
G04 #@! TO.C,C_O3*
X162000000Y-71705000D03*
X162000000Y-78295000D03*
G04 #@! TD*
D35*
G04 #@! TO.C,C_O2*
X140000000Y-134000000D03*
X131000000Y-134000000D03*
G04 #@! TD*
D23*
G04 #@! TO.C,C_O1*
X152410000Y-134000000D03*
X159000000Y-134000000D03*
G04 #@! TD*
G04 #@! TO.C,C4*
X182295000Y-77500000D03*
X175705000Y-77500000D03*
G04 #@! TD*
G04 #@! TO.C,C3*
X115795000Y-92000000D03*
X109205000Y-92000000D03*
G04 #@! TD*
G04 #@! TO.C,C2*
X125205000Y-90000000D03*
X131795000Y-90000000D03*
G04 #@! TD*
G04 #@! TO.C,C1*
X175205000Y-86500000D03*
X181795000Y-86500000D03*
G04 #@! TD*
%LPD*%
M02*
