G04 #@! TF.GenerationSoftware,KiCad,Pcbnew,9.0.6*
G04 #@! TF.CreationDate,2026-02-09T00:43:42+01:00*
G04 #@! TF.ProjectId,Smartlock archi electro,536d6172-746c-46f6-936b-206172636869,rev?*
G04 #@! TF.SameCoordinates,Original*
G04 #@! TF.FileFunction,Soldermask,Top*
G04 #@! TF.FilePolarity,Negative*
%FSLAX46Y46*%
G04 Gerber Fmt 4.6, Leading zero omitted, Abs format (unit mm)*
G04 Created by KiCad (PCBNEW 9.0.6) date 2026-02-09 00:43:42*
%MOMM*%
%LPD*%
G01*
G04 APERTURE LIST*
%ADD10C,1.800000*%
%ADD11R,1.700000X1.700000*%
%ADD12C,1.700000*%
%ADD13R,1.377000X1.132500*%
%ADD14R,1.132500X1.377000*%
%ADD15R,2.000000X2.000000*%
%ADD16R,0.565500X0.540000*%
%ADD17R,3.610000X1.260000*%
%ADD18R,1.600000X1.600000*%
%ADD19C,1.600000*%
%ADD20O,2.045000X0.588000*%
%ADD21R,1.701000X1.207500*%
%ADD22R,0.806500X0.864000*%
%ADD23R,1.250000X0.700000*%
%ADD24R,2.900000X5.400000*%
%ADD25R,5.400000X2.900000*%
%ADD26R,0.800000X0.900000*%
%ADD27R,0.900000X0.800000*%
%ADD28R,1.260000X3.610000*%
%ADD29R,4.500000X1.650000*%
G04 APERTURE END LIST*
D10*
G04 #@! TO.C,U?*
X143251000Y-142500000D03*
X140749000Y-142500000D03*
G04 #@! TD*
D11*
G04 #@! TO.C,U?*
X169749500Y-70000000D03*
D12*
X172250000Y-70000000D03*
X174750000Y-70000000D03*
X177250500Y-70000000D03*
G04 #@! TD*
D13*
G04 #@! TO.C,R31*
X156000000Y-74500000D03*
X156000000Y-76500000D03*
G04 #@! TD*
D14*
G04 #@! TO.C,R32*
X154500000Y-79500000D03*
X156500000Y-79500000D03*
G04 #@! TD*
D15*
G04 #@! TO.C,D3*
X164200000Y-82500000D03*
X159800000Y-82500000D03*
G04 #@! TD*
G04 #@! TO.C,D12*
X167800000Y-79000000D03*
X172200000Y-79000000D03*
G04 #@! TD*
D10*
G04 #@! TO.C,U?*
X141500000Y-86500000D03*
X144000000Y-86500000D03*
X146500000Y-86500000D03*
G04 #@! TD*
G04 #@! TO.C,U?*
X128500000Y-79749000D03*
X128500000Y-82251000D03*
G04 #@! TD*
D16*
G04 #@! TO.C,R42*
X125433000Y-75000000D03*
X124567000Y-75000000D03*
G04 #@! TD*
D17*
G04 #@! TO.C,C_O4*
X121295000Y-75000000D03*
X114705000Y-75000000D03*
G04 #@! TD*
D18*
G04 #@! TO.C,U?*
X143500000Y-70500000D03*
D19*
X146000000Y-70500000D03*
X148500000Y-70500000D03*
X151000000Y-70500000D03*
X153500000Y-70500000D03*
G04 #@! TD*
D20*
G04 #@! TO.C,U4*
X157430000Y-102095000D03*
X157430000Y-103365000D03*
X157430000Y-104635000D03*
X157430000Y-105905000D03*
X162570000Y-105905000D03*
X162570000Y-104635000D03*
X162570000Y-103365000D03*
X162570000Y-102095000D03*
G04 #@! TD*
G04 #@! TO.C,U3*
X135070000Y-105405000D03*
X135070000Y-104135000D03*
X135070000Y-102865000D03*
X135070000Y-101595000D03*
X129930000Y-101595000D03*
X129930000Y-102865000D03*
X129930000Y-104135000D03*
X129930000Y-105405000D03*
G04 #@! TD*
G04 #@! TO.C,U2*
X117930000Y-100095000D03*
X117930000Y-101365000D03*
X117930000Y-102635000D03*
X117930000Y-103905000D03*
X123070000Y-103905000D03*
X123070000Y-102635000D03*
X123070000Y-101365000D03*
X123070000Y-100095000D03*
G04 #@! TD*
G04 #@! TO.C,U1*
X168430000Y-103045000D03*
X168430000Y-104315000D03*
X168430000Y-105585000D03*
X168430000Y-106855000D03*
X173570000Y-106855000D03*
X173570000Y-105585000D03*
X173570000Y-104315000D03*
X173570000Y-103045000D03*
G04 #@! TD*
D21*
G04 #@! TO.C,R_SC4*
X167500000Y-97479000D03*
X167500000Y-94521000D03*
G04 #@! TD*
D22*
G04 #@! TO.C,R_SC3*
X114253500Y-86500000D03*
X112746500Y-86500000D03*
G04 #@! TD*
D21*
G04 #@! TO.C,R_SC2*
X121500000Y-95979000D03*
X121500000Y-93021000D03*
G04 #@! TD*
G04 #@! TO.C,R_SC1*
X171000000Y-97979000D03*
X171000000Y-95021000D03*
G04 #@! TD*
G04 #@! TO.C,R_PD1*
X147000000Y-77521000D03*
X147000000Y-80479000D03*
G04 #@! TD*
G04 #@! TO.C,R41*
X161450000Y-107971000D03*
X161450000Y-110929000D03*
G04 #@! TD*
G04 #@! TO.C,R40*
X165000000Y-96215000D03*
X165000000Y-99173000D03*
G04 #@! TD*
G04 #@! TO.C,R30*
X130000000Y-110479000D03*
X130000000Y-107521000D03*
G04 #@! TD*
D13*
G04 #@! TO.C,R22*
X148000000Y-142000000D03*
X148000000Y-144000000D03*
G04 #@! TD*
D14*
G04 #@! TO.C,R21*
X150250000Y-145500000D03*
X152250000Y-145500000D03*
G04 #@! TD*
G04 #@! TO.C,R12*
X155000000Y-128500000D03*
X157000000Y-128500000D03*
G04 #@! TD*
G04 #@! TO.C,R11*
X159500000Y-128500000D03*
X161500000Y-128500000D03*
G04 #@! TD*
G04 #@! TO.C,R3*
X147000000Y-74500000D03*
X149000000Y-74500000D03*
G04 #@! TD*
G04 #@! TO.C,R2*
X142500000Y-74500000D03*
X144500000Y-74500000D03*
G04 #@! TD*
D13*
G04 #@! TO.C,R1*
X149500000Y-79500000D03*
X149500000Y-81500000D03*
G04 #@! TD*
D23*
G04 #@! TO.C,Q1*
X144500000Y-80950000D03*
X144500000Y-79050000D03*
X142500000Y-80000000D03*
G04 #@! TD*
D24*
G04 #@! TO.C,L4*
X161950000Y-94500000D03*
X151050000Y-94500000D03*
G04 #@! TD*
G04 #@! TO.C,L3*
X115750000Y-111500000D03*
X126250000Y-111500000D03*
G04 #@! TD*
D25*
G04 #@! TO.C,L2*
X140000000Y-115750000D03*
X140000000Y-126250000D03*
G04 #@! TD*
G04 #@! TO.C,L1*
X153000000Y-115250000D03*
X153000000Y-125750000D03*
G04 #@! TD*
D15*
G04 #@! TO.C,D11*
X139000000Y-76800000D03*
X139000000Y-81200000D03*
G04 #@! TD*
G04 #@! TO.C,D10*
X159800000Y-86000000D03*
X164200000Y-86000000D03*
G04 #@! TD*
G04 #@! TO.C,D4*
X122200000Y-81500000D03*
X117800000Y-81500000D03*
G04 #@! TD*
G04 #@! TO.C,D2*
X138300000Y-112000000D03*
X142700000Y-112000000D03*
G04 #@! TD*
G04 #@! TO.C,D1*
X161500000Y-114800000D03*
X161500000Y-119200000D03*
G04 #@! TD*
D26*
G04 #@! TO.C,C_T4*
X155200000Y-105000000D03*
X153800000Y-105000000D03*
G04 #@! TD*
G04 #@! TO.C,C_T3*
X137300000Y-103000000D03*
X138700000Y-103000000D03*
G04 #@! TD*
G04 #@! TO.C,C_T2*
X114200000Y-103500000D03*
X112800000Y-103500000D03*
G04 #@! TD*
D27*
G04 #@! TO.C,C_T1*
X167000000Y-110200000D03*
X167000000Y-111600000D03*
G04 #@! TD*
D28*
G04 #@! TO.C,C_O3*
X162000000Y-71705000D03*
X162000000Y-78295000D03*
G04 #@! TD*
D29*
G04 #@! TO.C,C_O2*
X140000000Y-134000000D03*
X131000000Y-134000000D03*
G04 #@! TD*
D17*
G04 #@! TO.C,C_O1*
X152410000Y-134000000D03*
X159000000Y-134000000D03*
G04 #@! TD*
G04 #@! TO.C,C4*
X182295000Y-77500000D03*
X175705000Y-77500000D03*
G04 #@! TD*
G04 #@! TO.C,C3*
X115795000Y-92000000D03*
X109205000Y-92000000D03*
G04 #@! TD*
G04 #@! TO.C,C2*
X125205000Y-90000000D03*
X131795000Y-90000000D03*
G04 #@! TD*
G04 #@! TO.C,C1*
X175205000Y-86500000D03*
X181795000Y-86500000D03*
G04 #@! TD*
M02*
