G04 #@! TF.GenerationSoftware,KiCad,Pcbnew,9.0.6*
G04 #@! TF.CreationDate,2026-02-09T00:43:42+01:00*
G04 #@! TF.ProjectId,Smartlock archi electro,536d6172-746c-46f6-936b-206172636869,rev?*
G04 #@! TF.SameCoordinates,Original*
G04 #@! TF.FileFunction,Paste,Top*
G04 #@! TF.FilePolarity,Positive*
%FSLAX46Y46*%
G04 Gerber Fmt 4.6, Leading zero omitted, Abs format (unit mm)*
G04 Created by KiCad (PCBNEW 9.0.6) date 2026-02-09 00:43:42*
%MOMM*%
%LPD*%
G01*
G04 APERTURE LIST*
%ADD10C,0.000000*%
%ADD11R,1.377000X1.132500*%
%ADD12R,1.132500X1.377000*%
%ADD13R,2.000000X2.000000*%
%ADD14R,0.565500X0.540000*%
%ADD15R,3.610000X1.260000*%
%ADD16O,2.045000X0.588000*%
%ADD17R,1.701000X1.207500*%
%ADD18R,0.806500X0.864000*%
%ADD19R,1.250000X0.700000*%
%ADD20R,2.900000X5.400000*%
%ADD21R,5.400000X2.900000*%
%ADD22R,0.800000X0.900000*%
%ADD23R,0.900000X0.800000*%
%ADD24R,1.260000X3.610000*%
%ADD25R,4.500000X1.650000*%
G04 APERTURE END LIST*
D10*
G04 #@! TO.C,R31*
G36*
X156690000Y-73850000D02*
G01*
X156690000Y-75000000D01*
X156640000Y-75050000D01*
X156220000Y-75050000D01*
X156220000Y-74605000D01*
X155770000Y-74605000D01*
X155770000Y-75045000D01*
X155360000Y-75050000D01*
X155310000Y-75000000D01*
X155310000Y-73850000D01*
X155360000Y-73800000D01*
X156640000Y-73800000D01*
X156690000Y-73850000D01*
G37*
G36*
X155770000Y-76395000D02*
G01*
X156220000Y-76395000D01*
X156220000Y-75955000D01*
X156640000Y-75950000D01*
X156690000Y-76000000D01*
X156690000Y-77150000D01*
X156640000Y-77200000D01*
X155360000Y-77200000D01*
X155310000Y-77150000D01*
X155310000Y-76000000D01*
X155360000Y-75950000D01*
X155770000Y-75945000D01*
X155770000Y-76395000D01*
G37*
G04 #@! TO.C,R32*
G36*
X155050000Y-78860000D02*
G01*
X155050000Y-79280000D01*
X154605000Y-79280000D01*
X154605000Y-79730000D01*
X155045000Y-79730000D01*
X155050000Y-80140000D01*
X155000000Y-80190000D01*
X153850000Y-80190000D01*
X153800000Y-80140000D01*
X153800000Y-78860000D01*
X153850000Y-78810000D01*
X155000000Y-78810000D01*
X155050000Y-78860000D01*
G37*
G36*
X157200000Y-78860000D02*
G01*
X157200000Y-80140000D01*
X157150000Y-80190000D01*
X156000000Y-80190000D01*
X155950000Y-80140000D01*
X155945000Y-79730000D01*
X156395000Y-79730000D01*
X156395000Y-79280000D01*
X155955000Y-79280000D01*
X155950000Y-78860000D01*
X156000000Y-78810000D01*
X157150000Y-78810000D01*
X157200000Y-78860000D01*
G37*
G04 #@! TO.C,R42*
G36*
X125715500Y-74770000D02*
G01*
X125715500Y-75230000D01*
X125675500Y-75270000D01*
X125175000Y-75270000D01*
X125135000Y-75230000D01*
X125135000Y-74770000D01*
X125175000Y-74730000D01*
X125675500Y-74730000D01*
X125715500Y-74770000D01*
G37*
G36*
X124865000Y-74770000D02*
G01*
X124865000Y-75230000D01*
X124825000Y-75270000D01*
X124324500Y-75270000D01*
X124284500Y-75230000D01*
X124284500Y-74770000D01*
X124324500Y-74730000D01*
X124825000Y-74730000D01*
X124865000Y-74770000D01*
G37*
G04 #@! TO.C,R_SC4*
G36*
X167211000Y-96975000D02*
G01*
X167211000Y-97185500D01*
X167311000Y-97285500D01*
X167689000Y-97285500D01*
X167789000Y-97185500D01*
X167789000Y-96975000D01*
X167889000Y-96875000D01*
X168250500Y-96875000D01*
X168350500Y-96975000D01*
X168350500Y-97982500D01*
X168250500Y-98082500D01*
X166749500Y-98082500D01*
X166649500Y-97982500D01*
X166649500Y-96975000D01*
X166749500Y-96875000D01*
X167111000Y-96875000D01*
X167211000Y-96975000D01*
G37*
G36*
X168350500Y-94017500D02*
G01*
X168350500Y-95025000D01*
X168250500Y-95125000D01*
X167889000Y-95125000D01*
X167789000Y-95025000D01*
X167789000Y-94814500D01*
X167689000Y-94714500D01*
X167311000Y-94714500D01*
X167211000Y-94814500D01*
X167211000Y-95025000D01*
X167111000Y-95125000D01*
X166749500Y-95125000D01*
X166649500Y-95025000D01*
X166649500Y-94017500D01*
X166749500Y-93917500D01*
X168250500Y-93917500D01*
X168350500Y-94017500D01*
G37*
G04 #@! TO.C,R_SC3*
G36*
X114745000Y-86100000D02*
G01*
X114745000Y-86900000D01*
X114695000Y-86950000D01*
X113895000Y-86950000D01*
X113845000Y-86900000D01*
X113845000Y-86658000D01*
X114215000Y-86658000D01*
X114215000Y-86328000D01*
X113845000Y-86328000D01*
X113845000Y-86100000D01*
X113895000Y-86050000D01*
X114695000Y-86050000D01*
X114745000Y-86100000D01*
G37*
G36*
X113155000Y-86100000D02*
G01*
X113155000Y-86342000D01*
X112785000Y-86342000D01*
X112785000Y-86672000D01*
X113155000Y-86672000D01*
X113155000Y-86900000D01*
X113105000Y-86950000D01*
X112305000Y-86950000D01*
X112255000Y-86900000D01*
X112255000Y-86100000D01*
X112305000Y-86050000D01*
X113105000Y-86050000D01*
X113155000Y-86100000D01*
G37*
G04 #@! TO.C,R_SC2*
G36*
X121211000Y-95475000D02*
G01*
X121211000Y-95685500D01*
X121311000Y-95785500D01*
X121689000Y-95785500D01*
X121789000Y-95685500D01*
X121789000Y-95475000D01*
X121889000Y-95375000D01*
X122250500Y-95375000D01*
X122350500Y-95475000D01*
X122350500Y-96482500D01*
X122250500Y-96582500D01*
X120749500Y-96582500D01*
X120649500Y-96482500D01*
X120649500Y-95475000D01*
X120749500Y-95375000D01*
X121111000Y-95375000D01*
X121211000Y-95475000D01*
G37*
G36*
X122350500Y-92517500D02*
G01*
X122350500Y-93525000D01*
X122250500Y-93625000D01*
X121889000Y-93625000D01*
X121789000Y-93525000D01*
X121789000Y-93314500D01*
X121689000Y-93214500D01*
X121311000Y-93214500D01*
X121211000Y-93314500D01*
X121211000Y-93525000D01*
X121111000Y-93625000D01*
X120749500Y-93625000D01*
X120649500Y-93525000D01*
X120649500Y-92517500D01*
X120749500Y-92417500D01*
X122250500Y-92417500D01*
X122350500Y-92517500D01*
G37*
G04 #@! TO.C,R_SC1*
G36*
X170711000Y-97475000D02*
G01*
X170711000Y-97685500D01*
X170811000Y-97785500D01*
X171189000Y-97785500D01*
X171289000Y-97685500D01*
X171289000Y-97475000D01*
X171389000Y-97375000D01*
X171750500Y-97375000D01*
X171850500Y-97475000D01*
X171850500Y-98482500D01*
X171750500Y-98582500D01*
X170249500Y-98582500D01*
X170149500Y-98482500D01*
X170149500Y-97475000D01*
X170249500Y-97375000D01*
X170611000Y-97375000D01*
X170711000Y-97475000D01*
G37*
G36*
X171850500Y-94517500D02*
G01*
X171850500Y-95525000D01*
X171750500Y-95625000D01*
X171389000Y-95625000D01*
X171289000Y-95525000D01*
X171289000Y-95314500D01*
X171189000Y-95214500D01*
X170811000Y-95214500D01*
X170711000Y-95314500D01*
X170711000Y-95525000D01*
X170611000Y-95625000D01*
X170249500Y-95625000D01*
X170149500Y-95525000D01*
X170149500Y-94517500D01*
X170249500Y-94417500D01*
X171750500Y-94417500D01*
X171850500Y-94517500D01*
G37*
G04 #@! TO.C,R_PD1*
G36*
X147850500Y-77017500D02*
G01*
X147850500Y-78025000D01*
X147750500Y-78125000D01*
X147389000Y-78125000D01*
X147289000Y-78025000D01*
X147289000Y-77814500D01*
X147189000Y-77714500D01*
X146811000Y-77714500D01*
X146711000Y-77814500D01*
X146711000Y-78025000D01*
X146611000Y-78125000D01*
X146249500Y-78125000D01*
X146149500Y-78025000D01*
X146149500Y-77017500D01*
X146249500Y-76917500D01*
X147750500Y-76917500D01*
X147850500Y-77017500D01*
G37*
G36*
X146711000Y-79975000D02*
G01*
X146711000Y-80185500D01*
X146811000Y-80285500D01*
X147189000Y-80285500D01*
X147289000Y-80185500D01*
X147289000Y-79975000D01*
X147389000Y-79875000D01*
X147750500Y-79875000D01*
X147850500Y-79975000D01*
X147850500Y-80982500D01*
X147750500Y-81082500D01*
X146249500Y-81082500D01*
X146149500Y-80982500D01*
X146149500Y-79975000D01*
X146249500Y-79875000D01*
X146611000Y-79875000D01*
X146711000Y-79975000D01*
G37*
G04 #@! TO.C,R41*
G36*
X162300500Y-107467500D02*
G01*
X162300500Y-108475000D01*
X162200500Y-108575000D01*
X161839000Y-108575000D01*
X161739000Y-108475000D01*
X161739000Y-108264500D01*
X161639000Y-108164500D01*
X161261000Y-108164500D01*
X161161000Y-108264500D01*
X161161000Y-108475000D01*
X161061000Y-108575000D01*
X160699500Y-108575000D01*
X160599500Y-108475000D01*
X160599500Y-107467500D01*
X160699500Y-107367500D01*
X162200500Y-107367500D01*
X162300500Y-107467500D01*
G37*
G36*
X161161000Y-110425000D02*
G01*
X161161000Y-110635500D01*
X161261000Y-110735500D01*
X161639000Y-110735500D01*
X161739000Y-110635500D01*
X161739000Y-110425000D01*
X161839000Y-110325000D01*
X162200500Y-110325000D01*
X162300500Y-110425000D01*
X162300500Y-111432500D01*
X162200500Y-111532500D01*
X160699500Y-111532500D01*
X160599500Y-111432500D01*
X160599500Y-110425000D01*
X160699500Y-110325000D01*
X161061000Y-110325000D01*
X161161000Y-110425000D01*
G37*
G04 #@! TO.C,R40*
G36*
X165850500Y-95711500D02*
G01*
X165850500Y-96719000D01*
X165750500Y-96819000D01*
X165389000Y-96819000D01*
X165289000Y-96719000D01*
X165289000Y-96508500D01*
X165189000Y-96408500D01*
X164811000Y-96408500D01*
X164711000Y-96508500D01*
X164711000Y-96719000D01*
X164611000Y-96819000D01*
X164249500Y-96819000D01*
X164149500Y-96719000D01*
X164149500Y-95711500D01*
X164249500Y-95611500D01*
X165750500Y-95611500D01*
X165850500Y-95711500D01*
G37*
G36*
X164711000Y-98669000D02*
G01*
X164711000Y-98879500D01*
X164811000Y-98979500D01*
X165189000Y-98979500D01*
X165289000Y-98879500D01*
X165289000Y-98669000D01*
X165389000Y-98569000D01*
X165750500Y-98569000D01*
X165850500Y-98669000D01*
X165850500Y-99676500D01*
X165750500Y-99776500D01*
X164249500Y-99776500D01*
X164149500Y-99676500D01*
X164149500Y-98669000D01*
X164249500Y-98569000D01*
X164611000Y-98569000D01*
X164711000Y-98669000D01*
G37*
G04 #@! TO.C,R30*
G36*
X129711000Y-109975000D02*
G01*
X129711000Y-110185500D01*
X129811000Y-110285500D01*
X130189000Y-110285500D01*
X130289000Y-110185500D01*
X130289000Y-109975000D01*
X130389000Y-109875000D01*
X130750500Y-109875000D01*
X130850500Y-109975000D01*
X130850500Y-110982500D01*
X130750500Y-111082500D01*
X129249500Y-111082500D01*
X129149500Y-110982500D01*
X129149500Y-109975000D01*
X129249500Y-109875000D01*
X129611000Y-109875000D01*
X129711000Y-109975000D01*
G37*
G36*
X130850500Y-107017500D02*
G01*
X130850500Y-108025000D01*
X130750500Y-108125000D01*
X130389000Y-108125000D01*
X130289000Y-108025000D01*
X130289000Y-107814500D01*
X130189000Y-107714500D01*
X129811000Y-107714500D01*
X129711000Y-107814500D01*
X129711000Y-108025000D01*
X129611000Y-108125000D01*
X129249500Y-108125000D01*
X129149500Y-108025000D01*
X129149500Y-107017500D01*
X129249500Y-106917500D01*
X130750500Y-106917500D01*
X130850500Y-107017500D01*
G37*
G04 #@! TO.C,R22*
G36*
X148690000Y-141350000D02*
G01*
X148690000Y-142500000D01*
X148640000Y-142550000D01*
X148230000Y-142555000D01*
X148230000Y-142105000D01*
X147780000Y-142105000D01*
X147780000Y-142545000D01*
X147360000Y-142550000D01*
X147310000Y-142500000D01*
X147310000Y-141350000D01*
X147360000Y-141300000D01*
X148640000Y-141300000D01*
X148690000Y-141350000D01*
G37*
G36*
X147780000Y-143895000D02*
G01*
X148230000Y-143895000D01*
X148230000Y-143455000D01*
X148640000Y-143450000D01*
X148690000Y-143500000D01*
X148690000Y-144650000D01*
X148640000Y-144700000D01*
X147360000Y-144700000D01*
X147310000Y-144650000D01*
X147310000Y-143500000D01*
X147360000Y-143450000D01*
X147780000Y-143450000D01*
X147780000Y-143895000D01*
G37*
G04 #@! TO.C,R21*
G36*
X150800000Y-144860000D02*
G01*
X150805000Y-145270000D01*
X150355000Y-145270000D01*
X150355000Y-145720000D01*
X150795000Y-145720000D01*
X150800000Y-146140000D01*
X150750000Y-146190000D01*
X149600000Y-146190000D01*
X149550000Y-146140000D01*
X149550000Y-144860000D01*
X149600000Y-144810000D01*
X150750000Y-144810000D01*
X150800000Y-144860000D01*
G37*
G36*
X152950000Y-144860000D02*
G01*
X152950000Y-146140000D01*
X152900000Y-146190000D01*
X151750000Y-146190000D01*
X151700000Y-146140000D01*
X151700000Y-145720000D01*
X152145000Y-145720000D01*
X152145000Y-145270000D01*
X151705000Y-145270000D01*
X151700000Y-144860000D01*
X151750000Y-144810000D01*
X152900000Y-144810000D01*
X152950000Y-144860000D01*
G37*
G04 #@! TO.C,R12*
G36*
X155550000Y-127860000D02*
G01*
X155555000Y-128270000D01*
X155105000Y-128270000D01*
X155105000Y-128720000D01*
X155545000Y-128720000D01*
X155550000Y-129140000D01*
X155500000Y-129190000D01*
X154350000Y-129190000D01*
X154300000Y-129140000D01*
X154300000Y-127860000D01*
X154350000Y-127810000D01*
X155500000Y-127810000D01*
X155550000Y-127860000D01*
G37*
G36*
X157700000Y-127860000D02*
G01*
X157700000Y-129140000D01*
X157650000Y-129190000D01*
X156500000Y-129190000D01*
X156450000Y-129140000D01*
X156450000Y-128720000D01*
X156895000Y-128720000D01*
X156895000Y-128270000D01*
X156455000Y-128270000D01*
X156450000Y-127860000D01*
X156500000Y-127810000D01*
X157650000Y-127810000D01*
X157700000Y-127860000D01*
G37*
G04 #@! TO.C,R11*
G36*
X160050000Y-127860000D02*
G01*
X160055000Y-128270000D01*
X159605000Y-128270000D01*
X159605000Y-128720000D01*
X160045000Y-128720000D01*
X160050000Y-129140000D01*
X160000000Y-129190000D01*
X158850000Y-129190000D01*
X158800000Y-129140000D01*
X158800000Y-127860000D01*
X158850000Y-127810000D01*
X160000000Y-127810000D01*
X160050000Y-127860000D01*
G37*
G36*
X162200000Y-127860000D02*
G01*
X162200000Y-129140000D01*
X162150000Y-129190000D01*
X161000000Y-129190000D01*
X160950000Y-129140000D01*
X160950000Y-128720000D01*
X161395000Y-128720000D01*
X161395000Y-128270000D01*
X160955000Y-128270000D01*
X160950000Y-127860000D01*
X161000000Y-127810000D01*
X162150000Y-127810000D01*
X162200000Y-127860000D01*
G37*
G04 #@! TO.C,R3*
G36*
X147550000Y-73860000D02*
G01*
X147555000Y-74270000D01*
X147105000Y-74270000D01*
X147105000Y-74720000D01*
X147545000Y-74720000D01*
X147550000Y-75140000D01*
X147500000Y-75190000D01*
X146350000Y-75190000D01*
X146300000Y-75140000D01*
X146300000Y-73860000D01*
X146350000Y-73810000D01*
X147500000Y-73810000D01*
X147550000Y-73860000D01*
G37*
G36*
X149700000Y-73860000D02*
G01*
X149700000Y-75140000D01*
X149650000Y-75190000D01*
X148500000Y-75190000D01*
X148450000Y-75140000D01*
X148450000Y-74720000D01*
X148895000Y-74720000D01*
X148895000Y-74270000D01*
X148455000Y-74270000D01*
X148450000Y-73860000D01*
X148500000Y-73810000D01*
X149650000Y-73810000D01*
X149700000Y-73860000D01*
G37*
G04 #@! TO.C,R2*
G36*
X143050000Y-73860000D02*
G01*
X143055000Y-74270000D01*
X142605000Y-74270000D01*
X142605000Y-74720000D01*
X143045000Y-74720000D01*
X143050000Y-75140000D01*
X143000000Y-75190000D01*
X141850000Y-75190000D01*
X141800000Y-75140000D01*
X141800000Y-73860000D01*
X141850000Y-73810000D01*
X143000000Y-73810000D01*
X143050000Y-73860000D01*
G37*
G36*
X145200000Y-73860000D02*
G01*
X145200000Y-75140000D01*
X145150000Y-75190000D01*
X144000000Y-75190000D01*
X143950000Y-75140000D01*
X143950000Y-74720000D01*
X144395000Y-74720000D01*
X144395000Y-74270000D01*
X143955000Y-74270000D01*
X143950000Y-73860000D01*
X144000000Y-73810000D01*
X145150000Y-73810000D01*
X145200000Y-73860000D01*
G37*
G04 #@! TO.C,R1*
G36*
X150190000Y-78850000D02*
G01*
X150190000Y-80000000D01*
X150140000Y-80050000D01*
X149730000Y-80055000D01*
X149730000Y-79605000D01*
X149280000Y-79605000D01*
X149280000Y-80045000D01*
X148860000Y-80050000D01*
X148810000Y-80000000D01*
X148810000Y-78850000D01*
X148860000Y-78800000D01*
X150140000Y-78800000D01*
X150190000Y-78850000D01*
G37*
G36*
X149280000Y-81395000D02*
G01*
X149730000Y-81395000D01*
X149730000Y-80955000D01*
X150140000Y-80950000D01*
X150190000Y-81000000D01*
X150190000Y-82150000D01*
X150140000Y-82200000D01*
X148860000Y-82200000D01*
X148810000Y-82150000D01*
X148810000Y-81000000D01*
X148860000Y-80950000D01*
X149280000Y-80950000D01*
X149280000Y-81395000D01*
G37*
G04 #@! TD*
D11*
G04 #@! TO.C,R31*
X156000000Y-74500000D03*
X156000000Y-76500000D03*
G04 #@! TD*
D12*
G04 #@! TO.C,R32*
X154500000Y-79500000D03*
X156500000Y-79500000D03*
G04 #@! TD*
D13*
G04 #@! TO.C,D3*
X164200000Y-82500000D03*
X159800000Y-82500000D03*
G04 #@! TD*
G04 #@! TO.C,D12*
X167800000Y-79000000D03*
X172200000Y-79000000D03*
G04 #@! TD*
D14*
G04 #@! TO.C,R42*
X125433000Y-75000000D03*
X124567000Y-75000000D03*
G04 #@! TD*
D15*
G04 #@! TO.C,C_O4*
X121295000Y-75000000D03*
X114705000Y-75000000D03*
G04 #@! TD*
D16*
G04 #@! TO.C,U4*
X157430000Y-102095000D03*
X157430000Y-103365000D03*
X157430000Y-104635000D03*
X157430000Y-105905000D03*
X162570000Y-105905000D03*
X162570000Y-104635000D03*
X162570000Y-103365000D03*
X162570000Y-102095000D03*
G04 #@! TD*
G04 #@! TO.C,U3*
X135070000Y-105405000D03*
X135070000Y-104135000D03*
X135070000Y-102865000D03*
X135070000Y-101595000D03*
X129930000Y-101595000D03*
X129930000Y-102865000D03*
X129930000Y-104135000D03*
X129930000Y-105405000D03*
G04 #@! TD*
G04 #@! TO.C,U2*
X117930000Y-100095000D03*
X117930000Y-101365000D03*
X117930000Y-102635000D03*
X117930000Y-103905000D03*
X123070000Y-103905000D03*
X123070000Y-102635000D03*
X123070000Y-101365000D03*
X123070000Y-100095000D03*
G04 #@! TD*
G04 #@! TO.C,U1*
X168430000Y-103045000D03*
X168430000Y-104315000D03*
X168430000Y-105585000D03*
X168430000Y-106855000D03*
X173570000Y-106855000D03*
X173570000Y-105585000D03*
X173570000Y-104315000D03*
X173570000Y-103045000D03*
G04 #@! TD*
D17*
G04 #@! TO.C,R_SC4*
X167500000Y-97479000D03*
X167500000Y-94521000D03*
G04 #@! TD*
D18*
G04 #@! TO.C,R_SC3*
X114253500Y-86500000D03*
X112746500Y-86500000D03*
G04 #@! TD*
D17*
G04 #@! TO.C,R_SC2*
X121500000Y-95979000D03*
X121500000Y-93021000D03*
G04 #@! TD*
G04 #@! TO.C,R_SC1*
X171000000Y-97979000D03*
X171000000Y-95021000D03*
G04 #@! TD*
G04 #@! TO.C,R_PD1*
X147000000Y-77521000D03*
X147000000Y-80479000D03*
G04 #@! TD*
G04 #@! TO.C,R41*
X161450000Y-107971000D03*
X161450000Y-110929000D03*
G04 #@! TD*
G04 #@! TO.C,R40*
X165000000Y-96215000D03*
X165000000Y-99173000D03*
G04 #@! TD*
G04 #@! TO.C,R30*
X130000000Y-110479000D03*
X130000000Y-107521000D03*
G04 #@! TD*
D11*
G04 #@! TO.C,R22*
X148000000Y-142000000D03*
X148000000Y-144000000D03*
G04 #@! TD*
D12*
G04 #@! TO.C,R21*
X150250000Y-145500000D03*
X152250000Y-145500000D03*
G04 #@! TD*
G04 #@! TO.C,R12*
X155000000Y-128500000D03*
X157000000Y-128500000D03*
G04 #@! TD*
G04 #@! TO.C,R11*
X159500000Y-128500000D03*
X161500000Y-128500000D03*
G04 #@! TD*
G04 #@! TO.C,R3*
X147000000Y-74500000D03*
X149000000Y-74500000D03*
G04 #@! TD*
G04 #@! TO.C,R2*
X142500000Y-74500000D03*
X144500000Y-74500000D03*
G04 #@! TD*
D11*
G04 #@! TO.C,R1*
X149500000Y-79500000D03*
X149500000Y-81500000D03*
G04 #@! TD*
D19*
G04 #@! TO.C,Q1*
X144500000Y-80950000D03*
X144500000Y-79050000D03*
X142500000Y-80000000D03*
G04 #@! TD*
D20*
G04 #@! TO.C,L4*
X161950000Y-94500000D03*
X151050000Y-94500000D03*
G04 #@! TD*
G04 #@! TO.C,L3*
X115750000Y-111500000D03*
X126250000Y-111500000D03*
G04 #@! TD*
D21*
G04 #@! TO.C,L2*
X140000000Y-115750000D03*
X140000000Y-126250000D03*
G04 #@! TD*
G04 #@! TO.C,L1*
X153000000Y-115250000D03*
X153000000Y-125750000D03*
G04 #@! TD*
D13*
G04 #@! TO.C,D11*
X139000000Y-76800000D03*
X139000000Y-81200000D03*
G04 #@! TD*
G04 #@! TO.C,D10*
X159800000Y-86000000D03*
X164200000Y-86000000D03*
G04 #@! TD*
G04 #@! TO.C,D4*
X122200000Y-81500000D03*
X117800000Y-81500000D03*
G04 #@! TD*
G04 #@! TO.C,D2*
X138300000Y-112000000D03*
X142700000Y-112000000D03*
G04 #@! TD*
G04 #@! TO.C,D1*
X161500000Y-114800000D03*
X161500000Y-119200000D03*
G04 #@! TD*
D22*
G04 #@! TO.C,C_T4*
X155200000Y-105000000D03*
X153800000Y-105000000D03*
G04 #@! TD*
G04 #@! TO.C,C_T3*
X137300000Y-103000000D03*
X138700000Y-103000000D03*
G04 #@! TD*
G04 #@! TO.C,C_T2*
X114200000Y-103500000D03*
X112800000Y-103500000D03*
G04 #@! TD*
D23*
G04 #@! TO.C,C_T1*
X167000000Y-110200000D03*
X167000000Y-111600000D03*
G04 #@! TD*
D24*
G04 #@! TO.C,C_O3*
X162000000Y-71705000D03*
X162000000Y-78295000D03*
G04 #@! TD*
D25*
G04 #@! TO.C,C_O2*
X140000000Y-134000000D03*
X131000000Y-134000000D03*
G04 #@! TD*
D15*
G04 #@! TO.C,C_O1*
X152410000Y-134000000D03*
X159000000Y-134000000D03*
G04 #@! TD*
G04 #@! TO.C,C4*
X182295000Y-77500000D03*
X175705000Y-77500000D03*
G04 #@! TD*
G04 #@! TO.C,C3*
X115795000Y-92000000D03*
X109205000Y-92000000D03*
G04 #@! TD*
G04 #@! TO.C,C2*
X125205000Y-90000000D03*
X131795000Y-90000000D03*
G04 #@! TD*
G04 #@! TO.C,C1*
X175205000Y-86500000D03*
X181795000Y-86500000D03*
G04 #@! TD*
M02*
