%TF.GenerationSoftware,KiCad,Pcbnew,9.0.6*%
%TF.CreationDate,2026-02-09T00:43:42+01:00*%
%TF.ProjectId,Smartlock archi electro,536d6172-746c-46f6-936b-206172636869,rev?*%
%TF.SameCoordinates,Original*%
%TF.FileFunction,Drillmap*%
%TF.FilePolarity,Positive*%
%FSLAX45Y45*%
G04 Gerber Fmt 4.5, Leading zero omitted, Abs format (unit mm)*
G04 Created by KiCad (PCBNEW 9.0.6) date 2026-02-09 00:43:42*
%MOMM*%
%LPD*%
G01*
G04 APERTURE LIST*
%ADD10C,0.050000*%
%ADD11C,0.200000*%
%ADD12C,0.100000*%
%ADD13C,0.110000*%
G04 APERTURE END LIST*
D10*
X18950000Y-14300000D02*
G75*
G02*
X18450000Y-14800000I-500000J0D01*
G01*
X10650000Y-14800000D02*
G75*
G02*
X10150000Y-14300000I0J500000D01*
G01*
X10150000Y-6950000D02*
G75*
G02*
X10650000Y-6450000I500000J0D01*
G01*
X18450000Y-6450000D02*
G75*
G02*
X18950000Y-6950000I0J-500000D01*
G01*
X18450000Y-14800000D02*
X10650000Y-14800000D01*
X10150000Y-14300000D02*
X10150000Y-6950000D01*
X18950000Y-6950000D02*
X18950000Y-14300000D01*
X10650000Y-6450000D02*
X18450000Y-6450000D01*
D11*
D12*
X10585000Y-9185000D02*
X10615000Y-9215000D01*
X10615000Y-9185000D02*
X10585000Y-9215000D01*
X10964500Y-7485000D02*
X10994500Y-7515000D01*
X10994500Y-7485000D02*
X10964500Y-7515000D01*
X11035000Y-8635000D02*
X11065000Y-8665000D01*
X11065000Y-8635000D02*
X11035000Y-8665000D01*
X11085000Y-10335000D02*
X11115000Y-10365000D01*
X11115000Y-10335000D02*
X11085000Y-10365000D01*
X11485000Y-8135000D02*
X11515000Y-8165000D01*
X11515000Y-8135000D02*
X11485000Y-8165000D01*
X11585000Y-10085000D02*
X11615000Y-10115000D01*
X11615000Y-10085000D02*
X11585000Y-10115000D01*
X11787500Y-10482500D02*
X11817500Y-10512500D01*
X11817500Y-10482500D02*
X11787500Y-10512500D01*
X12285000Y-10635000D02*
X12315000Y-10665000D01*
X12315000Y-10635000D02*
X12285000Y-10665000D01*
X12635000Y-10248500D02*
X12665000Y-10278500D01*
X12665000Y-10248500D02*
X12635000Y-10278500D01*
X12685000Y-9285000D02*
X12715000Y-9315000D01*
X12715000Y-9285000D02*
X12685000Y-9315000D01*
X12735000Y-13385000D02*
X12765000Y-13415000D01*
X12765000Y-13385000D02*
X12735000Y-13415000D01*
X12835000Y-10398500D02*
X12865000Y-10428500D01*
X12865000Y-10398500D02*
X12835000Y-10428500D01*
X12985000Y-10885000D02*
X13015000Y-10915000D01*
X13015000Y-10885000D02*
X12985000Y-10915000D01*
X13482500Y-9987500D02*
X13512500Y-10017500D01*
X13512500Y-9987500D02*
X13482500Y-10017500D01*
X13485000Y-11185000D02*
X13515000Y-11215000D01*
X13515000Y-11185000D02*
X13485000Y-11215000D01*
X13535000Y-9385000D02*
X13565000Y-9415000D01*
X13565000Y-9385000D02*
X13535000Y-9415000D01*
X13635000Y-10425400D02*
X13665000Y-10455400D01*
X13665000Y-10425400D02*
X13635000Y-10455400D01*
X13935000Y-10185000D02*
X13965000Y-10215000D01*
X13965000Y-10185000D02*
X13935000Y-10215000D01*
X14882900Y-7737100D02*
X14912900Y-7767100D01*
X14912900Y-7737100D02*
X14882900Y-7767100D01*
X15035000Y-13885000D02*
X15065000Y-13915000D01*
X15065000Y-13885000D02*
X15035000Y-13915000D01*
X15235000Y-7435000D02*
X15265000Y-7465000D01*
X15265000Y-7435000D02*
X15235000Y-7465000D01*
X15285000Y-10485000D02*
X15315000Y-10515000D01*
X15315000Y-10485000D02*
X15285000Y-10515000D01*
X15285000Y-14535000D02*
X15315000Y-14565000D01*
X15315000Y-14535000D02*
X15285000Y-14565000D01*
X15585000Y-10285000D02*
X15615000Y-10315000D01*
X15615000Y-10285000D02*
X15585000Y-10315000D01*
X15585000Y-10685000D02*
X15615000Y-10715000D01*
X15615000Y-10685000D02*
X15585000Y-10715000D01*
X15635000Y-8485000D02*
X15665000Y-8515000D01*
X15665000Y-8485000D02*
X15635000Y-8515000D01*
X15735000Y-9785000D02*
X15765000Y-9815000D01*
X15765000Y-9785000D02*
X15735000Y-9815000D01*
X15885000Y-10785000D02*
X15915000Y-10815000D01*
X15915000Y-10785000D02*
X15885000Y-10815000D01*
X15985000Y-11235000D02*
X16015000Y-11265000D01*
X16015000Y-11235000D02*
X15985000Y-11265000D01*
X16235000Y-12835000D02*
X16265000Y-12865000D01*
X16265000Y-12835000D02*
X16235000Y-12865000D01*
X16285000Y-13385000D02*
X16315000Y-13415000D01*
X16315000Y-13385000D02*
X16285000Y-13415000D01*
X16335000Y-6885000D02*
X16365000Y-6915000D01*
X16365000Y-6885000D02*
X16335000Y-6915000D01*
X16335000Y-11885000D02*
X16365000Y-11915000D01*
X16365000Y-11885000D02*
X16335000Y-11915000D01*
X16385000Y-10435000D02*
X16415000Y-10465000D01*
X16415000Y-10435000D02*
X16385000Y-10465000D01*
X16685000Y-11285000D02*
X16715000Y-11315000D01*
X16715000Y-11285000D02*
X16685000Y-11315000D01*
X16735000Y-9835000D02*
X16765000Y-9865000D01*
X16765000Y-9835000D02*
X16735000Y-9865000D01*
X16935000Y-9235000D02*
X16965000Y-9265000D01*
X16965000Y-9235000D02*
X16935000Y-9265000D01*
X16935000Y-10785000D02*
X16965000Y-10815000D01*
X16965000Y-10785000D02*
X16935000Y-10815000D01*
X18535000Y-7785000D02*
X18565000Y-7815000D01*
X18565000Y-7785000D02*
X18535000Y-7815000D01*
X18635000Y-8735000D02*
X18665000Y-8765000D01*
X18665000Y-8735000D02*
X18635000Y-8765000D01*
X14200000Y-8650000D02*
G75*
G02*
X14100000Y-8650000I-50000J0D01*
G01*
X14100000Y-8650000D02*
G75*
G02*
X14200000Y-8650000I50000J0D01*
G01*
X14400000Y-7050000D02*
G75*
G02*
X14300000Y-7050000I-50000J0D01*
G01*
X14300000Y-7050000D02*
G75*
G02*
X14400000Y-7050000I50000J0D01*
G01*
X14450000Y-8650000D02*
G75*
G02*
X14350000Y-8650000I-50000J0D01*
G01*
X14350000Y-8650000D02*
G75*
G02*
X14450000Y-8650000I50000J0D01*
G01*
X14650000Y-7050000D02*
G75*
G02*
X14550000Y-7050000I-50000J0D01*
G01*
X14550000Y-7050000D02*
G75*
G02*
X14650000Y-7050000I50000J0D01*
G01*
X14700000Y-8650000D02*
G75*
G02*
X14600000Y-8650000I-50000J0D01*
G01*
X14600000Y-8650000D02*
G75*
G02*
X14700000Y-8650000I50000J0D01*
G01*
X14900000Y-7050000D02*
G75*
G02*
X14800000Y-7050000I-50000J0D01*
G01*
X14800000Y-7050000D02*
G75*
G02*
X14900000Y-7050000I50000J0D01*
G01*
X15150000Y-7050000D02*
G75*
G02*
X15050000Y-7050000I-50000J0D01*
G01*
X15050000Y-7050000D02*
G75*
G02*
X15150000Y-7050000I50000J0D01*
G01*
X15400000Y-7050000D02*
G75*
G02*
X15300000Y-7050000I-50000J0D01*
G01*
X15300000Y-7050000D02*
G75*
G02*
X15400000Y-7050000I50000J0D01*
G01*
X17024950Y-7000000D02*
G75*
G02*
X16924950Y-7000000I-50000J0D01*
G01*
X16924950Y-7000000D02*
G75*
G02*
X17024950Y-7000000I50000J0D01*
G01*
X17275000Y-7000000D02*
G75*
G02*
X17175000Y-7000000I-50000J0D01*
G01*
X17175000Y-7000000D02*
G75*
G02*
X17275000Y-7000000I50000J0D01*
G01*
X17525000Y-7000000D02*
G75*
G02*
X17425000Y-7000000I-50000J0D01*
G01*
X17425000Y-7000000D02*
G75*
G02*
X17525000Y-7000000I50000J0D01*
G01*
X17775050Y-7000000D02*
G75*
G02*
X17675050Y-7000000I-50000J0D01*
G01*
X17675050Y-7000000D02*
G75*
G02*
X17775050Y-7000000I50000J0D01*
G01*
D13*
X12850000Y-7919900D02*
X12850000Y-8029900D01*
X12795000Y-7974900D02*
X12905000Y-7974900D01*
X12850000Y-8170100D02*
X12850000Y-8280100D01*
X12795000Y-8225100D02*
X12905000Y-8225100D01*
X14074900Y-14195000D02*
X14074900Y-14305000D01*
X14019900Y-14250000D02*
X14129900Y-14250000D01*
X14325100Y-14195000D02*
X14325100Y-14305000D01*
X14270100Y-14250000D02*
X14380100Y-14250000D01*
D11*
X10408277Y-15113984D02*
X10408277Y-14913984D01*
X10408277Y-14913984D02*
X10455896Y-14913984D01*
X10455896Y-14913984D02*
X10484467Y-14923508D01*
X10484467Y-14923508D02*
X10503515Y-14942555D01*
X10503515Y-14942555D02*
X10513039Y-14961603D01*
X10513039Y-14961603D02*
X10522563Y-14999698D01*
X10522563Y-14999698D02*
X10522563Y-15028269D01*
X10522563Y-15028269D02*
X10513039Y-15066365D01*
X10513039Y-15066365D02*
X10503515Y-15085412D01*
X10503515Y-15085412D02*
X10484467Y-15104460D01*
X10484467Y-15104460D02*
X10455896Y-15113984D01*
X10455896Y-15113984D02*
X10408277Y-15113984D01*
X10608277Y-15113984D02*
X10608277Y-14980650D01*
X10608277Y-15018746D02*
X10617801Y-14999698D01*
X10617801Y-14999698D02*
X10627324Y-14990174D01*
X10627324Y-14990174D02*
X10646372Y-14980650D01*
X10646372Y-14980650D02*
X10665420Y-14980650D01*
X10732086Y-15113984D02*
X10732086Y-14980650D01*
X10732086Y-14913984D02*
X10722563Y-14923508D01*
X10722563Y-14923508D02*
X10732086Y-14933031D01*
X10732086Y-14933031D02*
X10741610Y-14923508D01*
X10741610Y-14923508D02*
X10732086Y-14913984D01*
X10732086Y-14913984D02*
X10732086Y-14933031D01*
X10855896Y-15113984D02*
X10836848Y-15104460D01*
X10836848Y-15104460D02*
X10827324Y-15085412D01*
X10827324Y-15085412D02*
X10827324Y-14913984D01*
X10960658Y-15113984D02*
X10941610Y-15104460D01*
X10941610Y-15104460D02*
X10932086Y-15085412D01*
X10932086Y-15085412D02*
X10932086Y-14913984D01*
X11189229Y-15113984D02*
X11189229Y-14913984D01*
X11189229Y-14913984D02*
X11255896Y-15056841D01*
X11255896Y-15056841D02*
X11322562Y-14913984D01*
X11322562Y-14913984D02*
X11322562Y-15113984D01*
X11503515Y-15113984D02*
X11503515Y-15009222D01*
X11503515Y-15009222D02*
X11493991Y-14990174D01*
X11493991Y-14990174D02*
X11474943Y-14980650D01*
X11474943Y-14980650D02*
X11436848Y-14980650D01*
X11436848Y-14980650D02*
X11417801Y-14990174D01*
X11503515Y-15104460D02*
X11484467Y-15113984D01*
X11484467Y-15113984D02*
X11436848Y-15113984D01*
X11436848Y-15113984D02*
X11417801Y-15104460D01*
X11417801Y-15104460D02*
X11408277Y-15085412D01*
X11408277Y-15085412D02*
X11408277Y-15066365D01*
X11408277Y-15066365D02*
X11417801Y-15047317D01*
X11417801Y-15047317D02*
X11436848Y-15037793D01*
X11436848Y-15037793D02*
X11484467Y-15037793D01*
X11484467Y-15037793D02*
X11503515Y-15028269D01*
X11598753Y-14980650D02*
X11598753Y-15180650D01*
X11598753Y-14990174D02*
X11617801Y-14980650D01*
X11617801Y-14980650D02*
X11655896Y-14980650D01*
X11655896Y-14980650D02*
X11674943Y-14990174D01*
X11674943Y-14990174D02*
X11684467Y-14999698D01*
X11684467Y-14999698D02*
X11693991Y-15018746D01*
X11693991Y-15018746D02*
X11693991Y-15075888D01*
X11693991Y-15075888D02*
X11684467Y-15094936D01*
X11684467Y-15094936D02*
X11674943Y-15104460D01*
X11674943Y-15104460D02*
X11655896Y-15113984D01*
X11655896Y-15113984D02*
X11617801Y-15113984D01*
X11617801Y-15113984D02*
X11598753Y-15104460D01*
X11779705Y-15094936D02*
X11789229Y-15104460D01*
X11789229Y-15104460D02*
X11779705Y-15113984D01*
X11779705Y-15113984D02*
X11770182Y-15104460D01*
X11770182Y-15104460D02*
X11779705Y-15094936D01*
X11779705Y-15094936D02*
X11779705Y-15113984D01*
X11779705Y-14990174D02*
X11789229Y-14999698D01*
X11789229Y-14999698D02*
X11779705Y-15009222D01*
X11779705Y-15009222D02*
X11770182Y-14999698D01*
X11770182Y-14999698D02*
X11779705Y-14990174D01*
X11779705Y-14990174D02*
X11779705Y-15009222D01*
D12*
X10117500Y-15427500D02*
X10147500Y-15457500D01*
X10147500Y-15427500D02*
X10117500Y-15457500D01*
D11*
X10446372Y-15333984D02*
X10465420Y-15333984D01*
X10465420Y-15333984D02*
X10484467Y-15343508D01*
X10484467Y-15343508D02*
X10493991Y-15353031D01*
X10493991Y-15353031D02*
X10503515Y-15372079D01*
X10503515Y-15372079D02*
X10513039Y-15410174D01*
X10513039Y-15410174D02*
X10513039Y-15457793D01*
X10513039Y-15457793D02*
X10503515Y-15495888D01*
X10503515Y-15495888D02*
X10493991Y-15514936D01*
X10493991Y-15514936D02*
X10484467Y-15524460D01*
X10484467Y-15524460D02*
X10465420Y-15533984D01*
X10465420Y-15533984D02*
X10446372Y-15533984D01*
X10446372Y-15533984D02*
X10427324Y-15524460D01*
X10427324Y-15524460D02*
X10417801Y-15514936D01*
X10417801Y-15514936D02*
X10408277Y-15495888D01*
X10408277Y-15495888D02*
X10398753Y-15457793D01*
X10398753Y-15457793D02*
X10398753Y-15410174D01*
X10398753Y-15410174D02*
X10408277Y-15372079D01*
X10408277Y-15372079D02*
X10417801Y-15353031D01*
X10417801Y-15353031D02*
X10427324Y-15343508D01*
X10427324Y-15343508D02*
X10446372Y-15333984D01*
X10598753Y-15514936D02*
X10608277Y-15524460D01*
X10608277Y-15524460D02*
X10598753Y-15533984D01*
X10598753Y-15533984D02*
X10589229Y-15524460D01*
X10589229Y-15524460D02*
X10598753Y-15514936D01*
X10598753Y-15514936D02*
X10598753Y-15533984D01*
X10674944Y-15333984D02*
X10798753Y-15333984D01*
X10798753Y-15333984D02*
X10732086Y-15410174D01*
X10732086Y-15410174D02*
X10760658Y-15410174D01*
X10760658Y-15410174D02*
X10779705Y-15419698D01*
X10779705Y-15419698D02*
X10789229Y-15429222D01*
X10789229Y-15429222D02*
X10798753Y-15448269D01*
X10798753Y-15448269D02*
X10798753Y-15495888D01*
X10798753Y-15495888D02*
X10789229Y-15514936D01*
X10789229Y-15514936D02*
X10779705Y-15524460D01*
X10779705Y-15524460D02*
X10760658Y-15533984D01*
X10760658Y-15533984D02*
X10703515Y-15533984D01*
X10703515Y-15533984D02*
X10684467Y-15524460D01*
X10684467Y-15524460D02*
X10674944Y-15514936D01*
X10922563Y-15333984D02*
X10941610Y-15333984D01*
X10941610Y-15333984D02*
X10960658Y-15343508D01*
X10960658Y-15343508D02*
X10970182Y-15353031D01*
X10970182Y-15353031D02*
X10979705Y-15372079D01*
X10979705Y-15372079D02*
X10989229Y-15410174D01*
X10989229Y-15410174D02*
X10989229Y-15457793D01*
X10989229Y-15457793D02*
X10979705Y-15495888D01*
X10979705Y-15495888D02*
X10970182Y-15514936D01*
X10970182Y-15514936D02*
X10960658Y-15524460D01*
X10960658Y-15524460D02*
X10941610Y-15533984D01*
X10941610Y-15533984D02*
X10922563Y-15533984D01*
X10922563Y-15533984D02*
X10903515Y-15524460D01*
X10903515Y-15524460D02*
X10893991Y-15514936D01*
X10893991Y-15514936D02*
X10884467Y-15495888D01*
X10884467Y-15495888D02*
X10874944Y-15457793D01*
X10874944Y-15457793D02*
X10874944Y-15410174D01*
X10874944Y-15410174D02*
X10884467Y-15372079D01*
X10884467Y-15372079D02*
X10893991Y-15353031D01*
X10893991Y-15353031D02*
X10903515Y-15343508D01*
X10903515Y-15343508D02*
X10922563Y-15333984D01*
X11113039Y-15333984D02*
X11132086Y-15333984D01*
X11132086Y-15333984D02*
X11151134Y-15343508D01*
X11151134Y-15343508D02*
X11160658Y-15353031D01*
X11160658Y-15353031D02*
X11170182Y-15372079D01*
X11170182Y-15372079D02*
X11179705Y-15410174D01*
X11179705Y-15410174D02*
X11179705Y-15457793D01*
X11179705Y-15457793D02*
X11170182Y-15495888D01*
X11170182Y-15495888D02*
X11160658Y-15514936D01*
X11160658Y-15514936D02*
X11151134Y-15524460D01*
X11151134Y-15524460D02*
X11132086Y-15533984D01*
X11132086Y-15533984D02*
X11113039Y-15533984D01*
X11113039Y-15533984D02*
X11093991Y-15524460D01*
X11093991Y-15524460D02*
X11084467Y-15514936D01*
X11084467Y-15514936D02*
X11074944Y-15495888D01*
X11074944Y-15495888D02*
X11065420Y-15457793D01*
X11065420Y-15457793D02*
X11065420Y-15410174D01*
X11065420Y-15410174D02*
X11074944Y-15372079D01*
X11074944Y-15372079D02*
X11084467Y-15353031D01*
X11084467Y-15353031D02*
X11093991Y-15343508D01*
X11093991Y-15343508D02*
X11113039Y-15333984D01*
X11265420Y-15533984D02*
X11265420Y-15400650D01*
X11265420Y-15419698D02*
X11274943Y-15410174D01*
X11274943Y-15410174D02*
X11293991Y-15400650D01*
X11293991Y-15400650D02*
X11322563Y-15400650D01*
X11322563Y-15400650D02*
X11341610Y-15410174D01*
X11341610Y-15410174D02*
X11351134Y-15429222D01*
X11351134Y-15429222D02*
X11351134Y-15533984D01*
X11351134Y-15429222D02*
X11360658Y-15410174D01*
X11360658Y-15410174D02*
X11379705Y-15400650D01*
X11379705Y-15400650D02*
X11408277Y-15400650D01*
X11408277Y-15400650D02*
X11427324Y-15410174D01*
X11427324Y-15410174D02*
X11436848Y-15429222D01*
X11436848Y-15429222D02*
X11436848Y-15533984D01*
X11532086Y-15533984D02*
X11532086Y-15400650D01*
X11532086Y-15419698D02*
X11541610Y-15410174D01*
X11541610Y-15410174D02*
X11560658Y-15400650D01*
X11560658Y-15400650D02*
X11589229Y-15400650D01*
X11589229Y-15400650D02*
X11608277Y-15410174D01*
X11608277Y-15410174D02*
X11617801Y-15429222D01*
X11617801Y-15429222D02*
X11617801Y-15533984D01*
X11617801Y-15429222D02*
X11627324Y-15410174D01*
X11627324Y-15410174D02*
X11646372Y-15400650D01*
X11646372Y-15400650D02*
X11674943Y-15400650D01*
X11674943Y-15400650D02*
X11693991Y-15410174D01*
X11693991Y-15410174D02*
X11703515Y-15429222D01*
X11703515Y-15429222D02*
X11703515Y-15533984D01*
X12093991Y-15324460D02*
X11922563Y-15581603D01*
X12351134Y-15333984D02*
X12370182Y-15333984D01*
X12370182Y-15333984D02*
X12389229Y-15343508D01*
X12389229Y-15343508D02*
X12398753Y-15353031D01*
X12398753Y-15353031D02*
X12408277Y-15372079D01*
X12408277Y-15372079D02*
X12417801Y-15410174D01*
X12417801Y-15410174D02*
X12417801Y-15457793D01*
X12417801Y-15457793D02*
X12408277Y-15495888D01*
X12408277Y-15495888D02*
X12398753Y-15514936D01*
X12398753Y-15514936D02*
X12389229Y-15524460D01*
X12389229Y-15524460D02*
X12370182Y-15533984D01*
X12370182Y-15533984D02*
X12351134Y-15533984D01*
X12351134Y-15533984D02*
X12332086Y-15524460D01*
X12332086Y-15524460D02*
X12322563Y-15514936D01*
X12322563Y-15514936D02*
X12313039Y-15495888D01*
X12313039Y-15495888D02*
X12303515Y-15457793D01*
X12303515Y-15457793D02*
X12303515Y-15410174D01*
X12303515Y-15410174D02*
X12313039Y-15372079D01*
X12313039Y-15372079D02*
X12322563Y-15353031D01*
X12322563Y-15353031D02*
X12332086Y-15343508D01*
X12332086Y-15343508D02*
X12351134Y-15333984D01*
X12503515Y-15514936D02*
X12513039Y-15524460D01*
X12513039Y-15524460D02*
X12503515Y-15533984D01*
X12503515Y-15533984D02*
X12493991Y-15524460D01*
X12493991Y-15524460D02*
X12503515Y-15514936D01*
X12503515Y-15514936D02*
X12503515Y-15533984D01*
X12636848Y-15333984D02*
X12655896Y-15333984D01*
X12655896Y-15333984D02*
X12674944Y-15343508D01*
X12674944Y-15343508D02*
X12684467Y-15353031D01*
X12684467Y-15353031D02*
X12693991Y-15372079D01*
X12693991Y-15372079D02*
X12703515Y-15410174D01*
X12703515Y-15410174D02*
X12703515Y-15457793D01*
X12703515Y-15457793D02*
X12693991Y-15495888D01*
X12693991Y-15495888D02*
X12684467Y-15514936D01*
X12684467Y-15514936D02*
X12674944Y-15524460D01*
X12674944Y-15524460D02*
X12655896Y-15533984D01*
X12655896Y-15533984D02*
X12636848Y-15533984D01*
X12636848Y-15533984D02*
X12617801Y-15524460D01*
X12617801Y-15524460D02*
X12608277Y-15514936D01*
X12608277Y-15514936D02*
X12598753Y-15495888D01*
X12598753Y-15495888D02*
X12589229Y-15457793D01*
X12589229Y-15457793D02*
X12589229Y-15410174D01*
X12589229Y-15410174D02*
X12598753Y-15372079D01*
X12598753Y-15372079D02*
X12608277Y-15353031D01*
X12608277Y-15353031D02*
X12617801Y-15343508D01*
X12617801Y-15343508D02*
X12636848Y-15333984D01*
X12893991Y-15533984D02*
X12779706Y-15533984D01*
X12836848Y-15533984D02*
X12836848Y-15333984D01*
X12836848Y-15333984D02*
X12817801Y-15362555D01*
X12817801Y-15362555D02*
X12798753Y-15381603D01*
X12798753Y-15381603D02*
X12779706Y-15391127D01*
X13084467Y-15533984D02*
X12970182Y-15533984D01*
X13027325Y-15533984D02*
X13027325Y-15333984D01*
X13027325Y-15333984D02*
X13008277Y-15362555D01*
X13008277Y-15362555D02*
X12989229Y-15381603D01*
X12989229Y-15381603D02*
X12970182Y-15391127D01*
X13198753Y-15419698D02*
X13179706Y-15410174D01*
X13179706Y-15410174D02*
X13170182Y-15400650D01*
X13170182Y-15400650D02*
X13160658Y-15381603D01*
X13160658Y-15381603D02*
X13160658Y-15372079D01*
X13160658Y-15372079D02*
X13170182Y-15353031D01*
X13170182Y-15353031D02*
X13179706Y-15343508D01*
X13179706Y-15343508D02*
X13198753Y-15333984D01*
X13198753Y-15333984D02*
X13236848Y-15333984D01*
X13236848Y-15333984D02*
X13255896Y-15343508D01*
X13255896Y-15343508D02*
X13265420Y-15353031D01*
X13265420Y-15353031D02*
X13274944Y-15372079D01*
X13274944Y-15372079D02*
X13274944Y-15381603D01*
X13274944Y-15381603D02*
X13265420Y-15400650D01*
X13265420Y-15400650D02*
X13255896Y-15410174D01*
X13255896Y-15410174D02*
X13236848Y-15419698D01*
X13236848Y-15419698D02*
X13198753Y-15419698D01*
X13198753Y-15419698D02*
X13179706Y-15429222D01*
X13179706Y-15429222D02*
X13170182Y-15438746D01*
X13170182Y-15438746D02*
X13160658Y-15457793D01*
X13160658Y-15457793D02*
X13160658Y-15495888D01*
X13160658Y-15495888D02*
X13170182Y-15514936D01*
X13170182Y-15514936D02*
X13179706Y-15524460D01*
X13179706Y-15524460D02*
X13198753Y-15533984D01*
X13198753Y-15533984D02*
X13236848Y-15533984D01*
X13236848Y-15533984D02*
X13255896Y-15524460D01*
X13255896Y-15524460D02*
X13265420Y-15514936D01*
X13265420Y-15514936D02*
X13274944Y-15495888D01*
X13274944Y-15495888D02*
X13274944Y-15457793D01*
X13274944Y-15457793D02*
X13265420Y-15438746D01*
X13265420Y-15438746D02*
X13255896Y-15429222D01*
X13255896Y-15429222D02*
X13236848Y-15419698D01*
X13351134Y-15333984D02*
X13351134Y-15372079D01*
X13427325Y-15333984D02*
X13427325Y-15372079D01*
X13722563Y-15610174D02*
X13713039Y-15600650D01*
X13713039Y-15600650D02*
X13693991Y-15572079D01*
X13693991Y-15572079D02*
X13684468Y-15553031D01*
X13684468Y-15553031D02*
X13674944Y-15524460D01*
X13674944Y-15524460D02*
X13665420Y-15476841D01*
X13665420Y-15476841D02*
X13665420Y-15438746D01*
X13665420Y-15438746D02*
X13674944Y-15391127D01*
X13674944Y-15391127D02*
X13684468Y-15362555D01*
X13684468Y-15362555D02*
X13693991Y-15343508D01*
X13693991Y-15343508D02*
X13713039Y-15314936D01*
X13713039Y-15314936D02*
X13722563Y-15305412D01*
X13884468Y-15400650D02*
X13884468Y-15533984D01*
X13836848Y-15324460D02*
X13789229Y-15467317D01*
X13789229Y-15467317D02*
X13913039Y-15467317D01*
X14027325Y-15333984D02*
X14046372Y-15333984D01*
X14046372Y-15333984D02*
X14065420Y-15343508D01*
X14065420Y-15343508D02*
X14074944Y-15353031D01*
X14074944Y-15353031D02*
X14084468Y-15372079D01*
X14084468Y-15372079D02*
X14093991Y-15410174D01*
X14093991Y-15410174D02*
X14093991Y-15457793D01*
X14093991Y-15457793D02*
X14084468Y-15495888D01*
X14084468Y-15495888D02*
X14074944Y-15514936D01*
X14074944Y-15514936D02*
X14065420Y-15524460D01*
X14065420Y-15524460D02*
X14046372Y-15533984D01*
X14046372Y-15533984D02*
X14027325Y-15533984D01*
X14027325Y-15533984D02*
X14008277Y-15524460D01*
X14008277Y-15524460D02*
X13998753Y-15514936D01*
X13998753Y-15514936D02*
X13989229Y-15495888D01*
X13989229Y-15495888D02*
X13979706Y-15457793D01*
X13979706Y-15457793D02*
X13979706Y-15410174D01*
X13979706Y-15410174D02*
X13989229Y-15372079D01*
X13989229Y-15372079D02*
X13998753Y-15353031D01*
X13998753Y-15353031D02*
X14008277Y-15343508D01*
X14008277Y-15343508D02*
X14027325Y-15333984D01*
X14332087Y-15533984D02*
X14332087Y-15333984D01*
X14417801Y-15533984D02*
X14417801Y-15429222D01*
X14417801Y-15429222D02*
X14408277Y-15410174D01*
X14408277Y-15410174D02*
X14389230Y-15400650D01*
X14389230Y-15400650D02*
X14360658Y-15400650D01*
X14360658Y-15400650D02*
X14341610Y-15410174D01*
X14341610Y-15410174D02*
X14332087Y-15419698D01*
X14541610Y-15533984D02*
X14522563Y-15524460D01*
X14522563Y-15524460D02*
X14513039Y-15514936D01*
X14513039Y-15514936D02*
X14503515Y-15495888D01*
X14503515Y-15495888D02*
X14503515Y-15438746D01*
X14503515Y-15438746D02*
X14513039Y-15419698D01*
X14513039Y-15419698D02*
X14522563Y-15410174D01*
X14522563Y-15410174D02*
X14541610Y-15400650D01*
X14541610Y-15400650D02*
X14570182Y-15400650D01*
X14570182Y-15400650D02*
X14589230Y-15410174D01*
X14589230Y-15410174D02*
X14598753Y-15419698D01*
X14598753Y-15419698D02*
X14608277Y-15438746D01*
X14608277Y-15438746D02*
X14608277Y-15495888D01*
X14608277Y-15495888D02*
X14598753Y-15514936D01*
X14598753Y-15514936D02*
X14589230Y-15524460D01*
X14589230Y-15524460D02*
X14570182Y-15533984D01*
X14570182Y-15533984D02*
X14541610Y-15533984D01*
X14722563Y-15533984D02*
X14703515Y-15524460D01*
X14703515Y-15524460D02*
X14693991Y-15505412D01*
X14693991Y-15505412D02*
X14693991Y-15333984D01*
X14874944Y-15524460D02*
X14855896Y-15533984D01*
X14855896Y-15533984D02*
X14817801Y-15533984D01*
X14817801Y-15533984D02*
X14798753Y-15524460D01*
X14798753Y-15524460D02*
X14789230Y-15505412D01*
X14789230Y-15505412D02*
X14789230Y-15429222D01*
X14789230Y-15429222D02*
X14798753Y-15410174D01*
X14798753Y-15410174D02*
X14817801Y-15400650D01*
X14817801Y-15400650D02*
X14855896Y-15400650D01*
X14855896Y-15400650D02*
X14874944Y-15410174D01*
X14874944Y-15410174D02*
X14884468Y-15429222D01*
X14884468Y-15429222D02*
X14884468Y-15448269D01*
X14884468Y-15448269D02*
X14789230Y-15467317D01*
X14960658Y-15524460D02*
X14979706Y-15533984D01*
X14979706Y-15533984D02*
X15017801Y-15533984D01*
X15017801Y-15533984D02*
X15036849Y-15524460D01*
X15036849Y-15524460D02*
X15046372Y-15505412D01*
X15046372Y-15505412D02*
X15046372Y-15495888D01*
X15046372Y-15495888D02*
X15036849Y-15476841D01*
X15036849Y-15476841D02*
X15017801Y-15467317D01*
X15017801Y-15467317D02*
X14989230Y-15467317D01*
X14989230Y-15467317D02*
X14970182Y-15457793D01*
X14970182Y-15457793D02*
X14960658Y-15438746D01*
X14960658Y-15438746D02*
X14960658Y-15429222D01*
X14960658Y-15429222D02*
X14970182Y-15410174D01*
X14970182Y-15410174D02*
X14989230Y-15400650D01*
X14989230Y-15400650D02*
X15017801Y-15400650D01*
X15017801Y-15400650D02*
X15036849Y-15410174D01*
X15113039Y-15610174D02*
X15122563Y-15600650D01*
X15122563Y-15600650D02*
X15141611Y-15572079D01*
X15141611Y-15572079D02*
X15151134Y-15553031D01*
X15151134Y-15553031D02*
X15160658Y-15524460D01*
X15160658Y-15524460D02*
X15170182Y-15476841D01*
X15170182Y-15476841D02*
X15170182Y-15438746D01*
X15170182Y-15438746D02*
X15160658Y-15391127D01*
X15160658Y-15391127D02*
X15151134Y-15362555D01*
X15151134Y-15362555D02*
X15141611Y-15343508D01*
X15141611Y-15343508D02*
X15122563Y-15314936D01*
X15122563Y-15314936D02*
X15113039Y-15305412D01*
D12*
X10147500Y-15706500D02*
G75*
G02*
X10047500Y-15706500I-50000J0D01*
G01*
X10047500Y-15706500D02*
G75*
G02*
X10147500Y-15706500I50000J0D01*
G01*
D11*
X10513039Y-15797984D02*
X10398753Y-15797984D01*
X10455896Y-15797984D02*
X10455896Y-15597984D01*
X10455896Y-15597984D02*
X10436848Y-15626555D01*
X10436848Y-15626555D02*
X10417801Y-15645603D01*
X10417801Y-15645603D02*
X10398753Y-15655127D01*
X10598753Y-15778936D02*
X10608277Y-15788460D01*
X10608277Y-15788460D02*
X10598753Y-15797984D01*
X10598753Y-15797984D02*
X10589229Y-15788460D01*
X10589229Y-15788460D02*
X10598753Y-15778936D01*
X10598753Y-15778936D02*
X10598753Y-15797984D01*
X10732086Y-15597984D02*
X10751134Y-15597984D01*
X10751134Y-15597984D02*
X10770182Y-15607508D01*
X10770182Y-15607508D02*
X10779705Y-15617031D01*
X10779705Y-15617031D02*
X10789229Y-15636079D01*
X10789229Y-15636079D02*
X10798753Y-15674174D01*
X10798753Y-15674174D02*
X10798753Y-15721793D01*
X10798753Y-15721793D02*
X10789229Y-15759888D01*
X10789229Y-15759888D02*
X10779705Y-15778936D01*
X10779705Y-15778936D02*
X10770182Y-15788460D01*
X10770182Y-15788460D02*
X10751134Y-15797984D01*
X10751134Y-15797984D02*
X10732086Y-15797984D01*
X10732086Y-15797984D02*
X10713039Y-15788460D01*
X10713039Y-15788460D02*
X10703515Y-15778936D01*
X10703515Y-15778936D02*
X10693991Y-15759888D01*
X10693991Y-15759888D02*
X10684467Y-15721793D01*
X10684467Y-15721793D02*
X10684467Y-15674174D01*
X10684467Y-15674174D02*
X10693991Y-15636079D01*
X10693991Y-15636079D02*
X10703515Y-15617031D01*
X10703515Y-15617031D02*
X10713039Y-15607508D01*
X10713039Y-15607508D02*
X10732086Y-15597984D01*
X10922563Y-15597984D02*
X10941610Y-15597984D01*
X10941610Y-15597984D02*
X10960658Y-15607508D01*
X10960658Y-15607508D02*
X10970182Y-15617031D01*
X10970182Y-15617031D02*
X10979705Y-15636079D01*
X10979705Y-15636079D02*
X10989229Y-15674174D01*
X10989229Y-15674174D02*
X10989229Y-15721793D01*
X10989229Y-15721793D02*
X10979705Y-15759888D01*
X10979705Y-15759888D02*
X10970182Y-15778936D01*
X10970182Y-15778936D02*
X10960658Y-15788460D01*
X10960658Y-15788460D02*
X10941610Y-15797984D01*
X10941610Y-15797984D02*
X10922563Y-15797984D01*
X10922563Y-15797984D02*
X10903515Y-15788460D01*
X10903515Y-15788460D02*
X10893991Y-15778936D01*
X10893991Y-15778936D02*
X10884467Y-15759888D01*
X10884467Y-15759888D02*
X10874944Y-15721793D01*
X10874944Y-15721793D02*
X10874944Y-15674174D01*
X10874944Y-15674174D02*
X10884467Y-15636079D01*
X10884467Y-15636079D02*
X10893991Y-15617031D01*
X10893991Y-15617031D02*
X10903515Y-15607508D01*
X10903515Y-15607508D02*
X10922563Y-15597984D01*
X11113039Y-15597984D02*
X11132086Y-15597984D01*
X11132086Y-15597984D02*
X11151134Y-15607508D01*
X11151134Y-15607508D02*
X11160658Y-15617031D01*
X11160658Y-15617031D02*
X11170182Y-15636079D01*
X11170182Y-15636079D02*
X11179705Y-15674174D01*
X11179705Y-15674174D02*
X11179705Y-15721793D01*
X11179705Y-15721793D02*
X11170182Y-15759888D01*
X11170182Y-15759888D02*
X11160658Y-15778936D01*
X11160658Y-15778936D02*
X11151134Y-15788460D01*
X11151134Y-15788460D02*
X11132086Y-15797984D01*
X11132086Y-15797984D02*
X11113039Y-15797984D01*
X11113039Y-15797984D02*
X11093991Y-15788460D01*
X11093991Y-15788460D02*
X11084467Y-15778936D01*
X11084467Y-15778936D02*
X11074944Y-15759888D01*
X11074944Y-15759888D02*
X11065420Y-15721793D01*
X11065420Y-15721793D02*
X11065420Y-15674174D01*
X11065420Y-15674174D02*
X11074944Y-15636079D01*
X11074944Y-15636079D02*
X11084467Y-15617031D01*
X11084467Y-15617031D02*
X11093991Y-15607508D01*
X11093991Y-15607508D02*
X11113039Y-15597984D01*
X11265420Y-15797984D02*
X11265420Y-15664650D01*
X11265420Y-15683698D02*
X11274943Y-15674174D01*
X11274943Y-15674174D02*
X11293991Y-15664650D01*
X11293991Y-15664650D02*
X11322563Y-15664650D01*
X11322563Y-15664650D02*
X11341610Y-15674174D01*
X11341610Y-15674174D02*
X11351134Y-15693222D01*
X11351134Y-15693222D02*
X11351134Y-15797984D01*
X11351134Y-15693222D02*
X11360658Y-15674174D01*
X11360658Y-15674174D02*
X11379705Y-15664650D01*
X11379705Y-15664650D02*
X11408277Y-15664650D01*
X11408277Y-15664650D02*
X11427324Y-15674174D01*
X11427324Y-15674174D02*
X11436848Y-15693222D01*
X11436848Y-15693222D02*
X11436848Y-15797984D01*
X11532086Y-15797984D02*
X11532086Y-15664650D01*
X11532086Y-15683698D02*
X11541610Y-15674174D01*
X11541610Y-15674174D02*
X11560658Y-15664650D01*
X11560658Y-15664650D02*
X11589229Y-15664650D01*
X11589229Y-15664650D02*
X11608277Y-15674174D01*
X11608277Y-15674174D02*
X11617801Y-15693222D01*
X11617801Y-15693222D02*
X11617801Y-15797984D01*
X11617801Y-15693222D02*
X11627324Y-15674174D01*
X11627324Y-15674174D02*
X11646372Y-15664650D01*
X11646372Y-15664650D02*
X11674943Y-15664650D01*
X11674943Y-15664650D02*
X11693991Y-15674174D01*
X11693991Y-15674174D02*
X11703515Y-15693222D01*
X11703515Y-15693222D02*
X11703515Y-15797984D01*
X12093991Y-15588460D02*
X11922563Y-15845603D01*
X12351134Y-15597984D02*
X12370182Y-15597984D01*
X12370182Y-15597984D02*
X12389229Y-15607508D01*
X12389229Y-15607508D02*
X12398753Y-15617031D01*
X12398753Y-15617031D02*
X12408277Y-15636079D01*
X12408277Y-15636079D02*
X12417801Y-15674174D01*
X12417801Y-15674174D02*
X12417801Y-15721793D01*
X12417801Y-15721793D02*
X12408277Y-15759888D01*
X12408277Y-15759888D02*
X12398753Y-15778936D01*
X12398753Y-15778936D02*
X12389229Y-15788460D01*
X12389229Y-15788460D02*
X12370182Y-15797984D01*
X12370182Y-15797984D02*
X12351134Y-15797984D01*
X12351134Y-15797984D02*
X12332086Y-15788460D01*
X12332086Y-15788460D02*
X12322563Y-15778936D01*
X12322563Y-15778936D02*
X12313039Y-15759888D01*
X12313039Y-15759888D02*
X12303515Y-15721793D01*
X12303515Y-15721793D02*
X12303515Y-15674174D01*
X12303515Y-15674174D02*
X12313039Y-15636079D01*
X12313039Y-15636079D02*
X12322563Y-15617031D01*
X12322563Y-15617031D02*
X12332086Y-15607508D01*
X12332086Y-15607508D02*
X12351134Y-15597984D01*
X12503515Y-15778936D02*
X12513039Y-15788460D01*
X12513039Y-15788460D02*
X12503515Y-15797984D01*
X12503515Y-15797984D02*
X12493991Y-15788460D01*
X12493991Y-15788460D02*
X12503515Y-15778936D01*
X12503515Y-15778936D02*
X12503515Y-15797984D01*
X12636848Y-15597984D02*
X12655896Y-15597984D01*
X12655896Y-15597984D02*
X12674944Y-15607508D01*
X12674944Y-15607508D02*
X12684467Y-15617031D01*
X12684467Y-15617031D02*
X12693991Y-15636079D01*
X12693991Y-15636079D02*
X12703515Y-15674174D01*
X12703515Y-15674174D02*
X12703515Y-15721793D01*
X12703515Y-15721793D02*
X12693991Y-15759888D01*
X12693991Y-15759888D02*
X12684467Y-15778936D01*
X12684467Y-15778936D02*
X12674944Y-15788460D01*
X12674944Y-15788460D02*
X12655896Y-15797984D01*
X12655896Y-15797984D02*
X12636848Y-15797984D01*
X12636848Y-15797984D02*
X12617801Y-15788460D01*
X12617801Y-15788460D02*
X12608277Y-15778936D01*
X12608277Y-15778936D02*
X12598753Y-15759888D01*
X12598753Y-15759888D02*
X12589229Y-15721793D01*
X12589229Y-15721793D02*
X12589229Y-15674174D01*
X12589229Y-15674174D02*
X12598753Y-15636079D01*
X12598753Y-15636079D02*
X12608277Y-15617031D01*
X12608277Y-15617031D02*
X12617801Y-15607508D01*
X12617801Y-15607508D02*
X12636848Y-15597984D01*
X12770182Y-15597984D02*
X12893991Y-15597984D01*
X12893991Y-15597984D02*
X12827325Y-15674174D01*
X12827325Y-15674174D02*
X12855896Y-15674174D01*
X12855896Y-15674174D02*
X12874944Y-15683698D01*
X12874944Y-15683698D02*
X12884467Y-15693222D01*
X12884467Y-15693222D02*
X12893991Y-15712269D01*
X12893991Y-15712269D02*
X12893991Y-15759888D01*
X12893991Y-15759888D02*
X12884467Y-15778936D01*
X12884467Y-15778936D02*
X12874944Y-15788460D01*
X12874944Y-15788460D02*
X12855896Y-15797984D01*
X12855896Y-15797984D02*
X12798753Y-15797984D01*
X12798753Y-15797984D02*
X12779706Y-15788460D01*
X12779706Y-15788460D02*
X12770182Y-15778936D01*
X12989229Y-15797984D02*
X13027325Y-15797984D01*
X13027325Y-15797984D02*
X13046372Y-15788460D01*
X13046372Y-15788460D02*
X13055896Y-15778936D01*
X13055896Y-15778936D02*
X13074944Y-15750365D01*
X13074944Y-15750365D02*
X13084467Y-15712269D01*
X13084467Y-15712269D02*
X13084467Y-15636079D01*
X13084467Y-15636079D02*
X13074944Y-15617031D01*
X13074944Y-15617031D02*
X13065420Y-15607508D01*
X13065420Y-15607508D02*
X13046372Y-15597984D01*
X13046372Y-15597984D02*
X13008277Y-15597984D01*
X13008277Y-15597984D02*
X12989229Y-15607508D01*
X12989229Y-15607508D02*
X12979706Y-15617031D01*
X12979706Y-15617031D02*
X12970182Y-15636079D01*
X12970182Y-15636079D02*
X12970182Y-15683698D01*
X12970182Y-15683698D02*
X12979706Y-15702746D01*
X12979706Y-15702746D02*
X12989229Y-15712269D01*
X12989229Y-15712269D02*
X13008277Y-15721793D01*
X13008277Y-15721793D02*
X13046372Y-15721793D01*
X13046372Y-15721793D02*
X13065420Y-15712269D01*
X13065420Y-15712269D02*
X13074944Y-15702746D01*
X13074944Y-15702746D02*
X13084467Y-15683698D01*
X13255896Y-15664650D02*
X13255896Y-15797984D01*
X13208277Y-15588460D02*
X13160658Y-15731317D01*
X13160658Y-15731317D02*
X13284467Y-15731317D01*
X13351134Y-15597984D02*
X13351134Y-15636079D01*
X13427325Y-15597984D02*
X13427325Y-15636079D01*
X13722563Y-15874174D02*
X13713039Y-15864650D01*
X13713039Y-15864650D02*
X13693991Y-15836079D01*
X13693991Y-15836079D02*
X13684468Y-15817031D01*
X13684468Y-15817031D02*
X13674944Y-15788460D01*
X13674944Y-15788460D02*
X13665420Y-15740841D01*
X13665420Y-15740841D02*
X13665420Y-15702746D01*
X13665420Y-15702746D02*
X13674944Y-15655127D01*
X13674944Y-15655127D02*
X13684468Y-15626555D01*
X13684468Y-15626555D02*
X13693991Y-15607508D01*
X13693991Y-15607508D02*
X13713039Y-15578936D01*
X13713039Y-15578936D02*
X13722563Y-15569412D01*
X13903515Y-15797984D02*
X13789229Y-15797984D01*
X13846372Y-15797984D02*
X13846372Y-15597984D01*
X13846372Y-15597984D02*
X13827325Y-15626555D01*
X13827325Y-15626555D02*
X13808277Y-15645603D01*
X13808277Y-15645603D02*
X13789229Y-15655127D01*
X13979706Y-15617031D02*
X13989229Y-15607508D01*
X13989229Y-15607508D02*
X14008277Y-15597984D01*
X14008277Y-15597984D02*
X14055896Y-15597984D01*
X14055896Y-15597984D02*
X14074944Y-15607508D01*
X14074944Y-15607508D02*
X14084468Y-15617031D01*
X14084468Y-15617031D02*
X14093991Y-15636079D01*
X14093991Y-15636079D02*
X14093991Y-15655127D01*
X14093991Y-15655127D02*
X14084468Y-15683698D01*
X14084468Y-15683698D02*
X13970182Y-15797984D01*
X13970182Y-15797984D02*
X14093991Y-15797984D01*
X14332087Y-15797984D02*
X14332087Y-15597984D01*
X14417801Y-15797984D02*
X14417801Y-15693222D01*
X14417801Y-15693222D02*
X14408277Y-15674174D01*
X14408277Y-15674174D02*
X14389230Y-15664650D01*
X14389230Y-15664650D02*
X14360658Y-15664650D01*
X14360658Y-15664650D02*
X14341610Y-15674174D01*
X14341610Y-15674174D02*
X14332087Y-15683698D01*
X14541610Y-15797984D02*
X14522563Y-15788460D01*
X14522563Y-15788460D02*
X14513039Y-15778936D01*
X14513039Y-15778936D02*
X14503515Y-15759888D01*
X14503515Y-15759888D02*
X14503515Y-15702746D01*
X14503515Y-15702746D02*
X14513039Y-15683698D01*
X14513039Y-15683698D02*
X14522563Y-15674174D01*
X14522563Y-15674174D02*
X14541610Y-15664650D01*
X14541610Y-15664650D02*
X14570182Y-15664650D01*
X14570182Y-15664650D02*
X14589230Y-15674174D01*
X14589230Y-15674174D02*
X14598753Y-15683698D01*
X14598753Y-15683698D02*
X14608277Y-15702746D01*
X14608277Y-15702746D02*
X14608277Y-15759888D01*
X14608277Y-15759888D02*
X14598753Y-15778936D01*
X14598753Y-15778936D02*
X14589230Y-15788460D01*
X14589230Y-15788460D02*
X14570182Y-15797984D01*
X14570182Y-15797984D02*
X14541610Y-15797984D01*
X14722563Y-15797984D02*
X14703515Y-15788460D01*
X14703515Y-15788460D02*
X14693991Y-15769412D01*
X14693991Y-15769412D02*
X14693991Y-15597984D01*
X14874944Y-15788460D02*
X14855896Y-15797984D01*
X14855896Y-15797984D02*
X14817801Y-15797984D01*
X14817801Y-15797984D02*
X14798753Y-15788460D01*
X14798753Y-15788460D02*
X14789230Y-15769412D01*
X14789230Y-15769412D02*
X14789230Y-15693222D01*
X14789230Y-15693222D02*
X14798753Y-15674174D01*
X14798753Y-15674174D02*
X14817801Y-15664650D01*
X14817801Y-15664650D02*
X14855896Y-15664650D01*
X14855896Y-15664650D02*
X14874944Y-15674174D01*
X14874944Y-15674174D02*
X14884468Y-15693222D01*
X14884468Y-15693222D02*
X14884468Y-15712269D01*
X14884468Y-15712269D02*
X14789230Y-15731317D01*
X14960658Y-15788460D02*
X14979706Y-15797984D01*
X14979706Y-15797984D02*
X15017801Y-15797984D01*
X15017801Y-15797984D02*
X15036849Y-15788460D01*
X15036849Y-15788460D02*
X15046372Y-15769412D01*
X15046372Y-15769412D02*
X15046372Y-15759888D01*
X15046372Y-15759888D02*
X15036849Y-15740841D01*
X15036849Y-15740841D02*
X15017801Y-15731317D01*
X15017801Y-15731317D02*
X14989230Y-15731317D01*
X14989230Y-15731317D02*
X14970182Y-15721793D01*
X14970182Y-15721793D02*
X14960658Y-15702746D01*
X14960658Y-15702746D02*
X14960658Y-15693222D01*
X14960658Y-15693222D02*
X14970182Y-15674174D01*
X14970182Y-15674174D02*
X14989230Y-15664650D01*
X14989230Y-15664650D02*
X15017801Y-15664650D01*
X15017801Y-15664650D02*
X15036849Y-15674174D01*
X15113039Y-15874174D02*
X15122563Y-15864650D01*
X15122563Y-15864650D02*
X15141611Y-15836079D01*
X15141611Y-15836079D02*
X15151134Y-15817031D01*
X15151134Y-15817031D02*
X15160658Y-15788460D01*
X15160658Y-15788460D02*
X15170182Y-15740841D01*
X15170182Y-15740841D02*
X15170182Y-15702746D01*
X15170182Y-15702746D02*
X15160658Y-15655127D01*
X15160658Y-15655127D02*
X15151134Y-15626555D01*
X15151134Y-15626555D02*
X15141611Y-15607508D01*
X15141611Y-15607508D02*
X15122563Y-15578936D01*
X15122563Y-15578936D02*
X15113039Y-15569412D01*
D13*
X10092500Y-15915500D02*
X10092500Y-16025500D01*
X10037500Y-15970500D02*
X10147500Y-15970500D01*
D11*
X10513039Y-16061984D02*
X10398753Y-16061984D01*
X10455896Y-16061984D02*
X10455896Y-15861984D01*
X10455896Y-15861984D02*
X10436848Y-15890555D01*
X10436848Y-15890555D02*
X10417801Y-15909603D01*
X10417801Y-15909603D02*
X10398753Y-15919127D01*
X10598753Y-16042936D02*
X10608277Y-16052460D01*
X10608277Y-16052460D02*
X10598753Y-16061984D01*
X10598753Y-16061984D02*
X10589229Y-16052460D01*
X10589229Y-16052460D02*
X10598753Y-16042936D01*
X10598753Y-16042936D02*
X10598753Y-16061984D01*
X10798753Y-16061984D02*
X10684467Y-16061984D01*
X10741610Y-16061984D02*
X10741610Y-15861984D01*
X10741610Y-15861984D02*
X10722563Y-15890555D01*
X10722563Y-15890555D02*
X10703515Y-15909603D01*
X10703515Y-15909603D02*
X10684467Y-15919127D01*
X10922563Y-15861984D02*
X10941610Y-15861984D01*
X10941610Y-15861984D02*
X10960658Y-15871508D01*
X10960658Y-15871508D02*
X10970182Y-15881031D01*
X10970182Y-15881031D02*
X10979705Y-15900079D01*
X10979705Y-15900079D02*
X10989229Y-15938174D01*
X10989229Y-15938174D02*
X10989229Y-15985793D01*
X10989229Y-15985793D02*
X10979705Y-16023888D01*
X10979705Y-16023888D02*
X10970182Y-16042936D01*
X10970182Y-16042936D02*
X10960658Y-16052460D01*
X10960658Y-16052460D02*
X10941610Y-16061984D01*
X10941610Y-16061984D02*
X10922563Y-16061984D01*
X10922563Y-16061984D02*
X10903515Y-16052460D01*
X10903515Y-16052460D02*
X10893991Y-16042936D01*
X10893991Y-16042936D02*
X10884467Y-16023888D01*
X10884467Y-16023888D02*
X10874944Y-15985793D01*
X10874944Y-15985793D02*
X10874944Y-15938174D01*
X10874944Y-15938174D02*
X10884467Y-15900079D01*
X10884467Y-15900079D02*
X10893991Y-15881031D01*
X10893991Y-15881031D02*
X10903515Y-15871508D01*
X10903515Y-15871508D02*
X10922563Y-15861984D01*
X11113039Y-15861984D02*
X11132086Y-15861984D01*
X11132086Y-15861984D02*
X11151134Y-15871508D01*
X11151134Y-15871508D02*
X11160658Y-15881031D01*
X11160658Y-15881031D02*
X11170182Y-15900079D01*
X11170182Y-15900079D02*
X11179705Y-15938174D01*
X11179705Y-15938174D02*
X11179705Y-15985793D01*
X11179705Y-15985793D02*
X11170182Y-16023888D01*
X11170182Y-16023888D02*
X11160658Y-16042936D01*
X11160658Y-16042936D02*
X11151134Y-16052460D01*
X11151134Y-16052460D02*
X11132086Y-16061984D01*
X11132086Y-16061984D02*
X11113039Y-16061984D01*
X11113039Y-16061984D02*
X11093991Y-16052460D01*
X11093991Y-16052460D02*
X11084467Y-16042936D01*
X11084467Y-16042936D02*
X11074944Y-16023888D01*
X11074944Y-16023888D02*
X11065420Y-15985793D01*
X11065420Y-15985793D02*
X11065420Y-15938174D01*
X11065420Y-15938174D02*
X11074944Y-15900079D01*
X11074944Y-15900079D02*
X11084467Y-15881031D01*
X11084467Y-15881031D02*
X11093991Y-15871508D01*
X11093991Y-15871508D02*
X11113039Y-15861984D01*
X11265420Y-16061984D02*
X11265420Y-15928650D01*
X11265420Y-15947698D02*
X11274943Y-15938174D01*
X11274943Y-15938174D02*
X11293991Y-15928650D01*
X11293991Y-15928650D02*
X11322563Y-15928650D01*
X11322563Y-15928650D02*
X11341610Y-15938174D01*
X11341610Y-15938174D02*
X11351134Y-15957222D01*
X11351134Y-15957222D02*
X11351134Y-16061984D01*
X11351134Y-15957222D02*
X11360658Y-15938174D01*
X11360658Y-15938174D02*
X11379705Y-15928650D01*
X11379705Y-15928650D02*
X11408277Y-15928650D01*
X11408277Y-15928650D02*
X11427324Y-15938174D01*
X11427324Y-15938174D02*
X11436848Y-15957222D01*
X11436848Y-15957222D02*
X11436848Y-16061984D01*
X11532086Y-16061984D02*
X11532086Y-15928650D01*
X11532086Y-15947698D02*
X11541610Y-15938174D01*
X11541610Y-15938174D02*
X11560658Y-15928650D01*
X11560658Y-15928650D02*
X11589229Y-15928650D01*
X11589229Y-15928650D02*
X11608277Y-15938174D01*
X11608277Y-15938174D02*
X11617801Y-15957222D01*
X11617801Y-15957222D02*
X11617801Y-16061984D01*
X11617801Y-15957222D02*
X11627324Y-15938174D01*
X11627324Y-15938174D02*
X11646372Y-15928650D01*
X11646372Y-15928650D02*
X11674943Y-15928650D01*
X11674943Y-15928650D02*
X11693991Y-15938174D01*
X11693991Y-15938174D02*
X11703515Y-15957222D01*
X11703515Y-15957222D02*
X11703515Y-16061984D01*
X12093991Y-15852460D02*
X11922563Y-16109603D01*
X12351134Y-15861984D02*
X12370182Y-15861984D01*
X12370182Y-15861984D02*
X12389229Y-15871508D01*
X12389229Y-15871508D02*
X12398753Y-15881031D01*
X12398753Y-15881031D02*
X12408277Y-15900079D01*
X12408277Y-15900079D02*
X12417801Y-15938174D01*
X12417801Y-15938174D02*
X12417801Y-15985793D01*
X12417801Y-15985793D02*
X12408277Y-16023888D01*
X12408277Y-16023888D02*
X12398753Y-16042936D01*
X12398753Y-16042936D02*
X12389229Y-16052460D01*
X12389229Y-16052460D02*
X12370182Y-16061984D01*
X12370182Y-16061984D02*
X12351134Y-16061984D01*
X12351134Y-16061984D02*
X12332086Y-16052460D01*
X12332086Y-16052460D02*
X12322563Y-16042936D01*
X12322563Y-16042936D02*
X12313039Y-16023888D01*
X12313039Y-16023888D02*
X12303515Y-15985793D01*
X12303515Y-15985793D02*
X12303515Y-15938174D01*
X12303515Y-15938174D02*
X12313039Y-15900079D01*
X12313039Y-15900079D02*
X12322563Y-15881031D01*
X12322563Y-15881031D02*
X12332086Y-15871508D01*
X12332086Y-15871508D02*
X12351134Y-15861984D01*
X12503515Y-16042936D02*
X12513039Y-16052460D01*
X12513039Y-16052460D02*
X12503515Y-16061984D01*
X12503515Y-16061984D02*
X12493991Y-16052460D01*
X12493991Y-16052460D02*
X12503515Y-16042936D01*
X12503515Y-16042936D02*
X12503515Y-16061984D01*
X12636848Y-15861984D02*
X12655896Y-15861984D01*
X12655896Y-15861984D02*
X12674944Y-15871508D01*
X12674944Y-15871508D02*
X12684467Y-15881031D01*
X12684467Y-15881031D02*
X12693991Y-15900079D01*
X12693991Y-15900079D02*
X12703515Y-15938174D01*
X12703515Y-15938174D02*
X12703515Y-15985793D01*
X12703515Y-15985793D02*
X12693991Y-16023888D01*
X12693991Y-16023888D02*
X12684467Y-16042936D01*
X12684467Y-16042936D02*
X12674944Y-16052460D01*
X12674944Y-16052460D02*
X12655896Y-16061984D01*
X12655896Y-16061984D02*
X12636848Y-16061984D01*
X12636848Y-16061984D02*
X12617801Y-16052460D01*
X12617801Y-16052460D02*
X12608277Y-16042936D01*
X12608277Y-16042936D02*
X12598753Y-16023888D01*
X12598753Y-16023888D02*
X12589229Y-15985793D01*
X12589229Y-15985793D02*
X12589229Y-15938174D01*
X12589229Y-15938174D02*
X12598753Y-15900079D01*
X12598753Y-15900079D02*
X12608277Y-15881031D01*
X12608277Y-15881031D02*
X12617801Y-15871508D01*
X12617801Y-15871508D02*
X12636848Y-15861984D01*
X12874944Y-15928650D02*
X12874944Y-16061984D01*
X12827325Y-15852460D02*
X12779706Y-15995317D01*
X12779706Y-15995317D02*
X12903515Y-15995317D01*
X12960658Y-15861984D02*
X13084467Y-15861984D01*
X13084467Y-15861984D02*
X13017801Y-15938174D01*
X13017801Y-15938174D02*
X13046372Y-15938174D01*
X13046372Y-15938174D02*
X13065420Y-15947698D01*
X13065420Y-15947698D02*
X13074944Y-15957222D01*
X13074944Y-15957222D02*
X13084467Y-15976269D01*
X13084467Y-15976269D02*
X13084467Y-16023888D01*
X13084467Y-16023888D02*
X13074944Y-16042936D01*
X13074944Y-16042936D02*
X13065420Y-16052460D01*
X13065420Y-16052460D02*
X13046372Y-16061984D01*
X13046372Y-16061984D02*
X12989229Y-16061984D01*
X12989229Y-16061984D02*
X12970182Y-16052460D01*
X12970182Y-16052460D02*
X12960658Y-16042936D01*
X13151134Y-15861984D02*
X13274944Y-15861984D01*
X13274944Y-15861984D02*
X13208277Y-15938174D01*
X13208277Y-15938174D02*
X13236848Y-15938174D01*
X13236848Y-15938174D02*
X13255896Y-15947698D01*
X13255896Y-15947698D02*
X13265420Y-15957222D01*
X13265420Y-15957222D02*
X13274944Y-15976269D01*
X13274944Y-15976269D02*
X13274944Y-16023888D01*
X13274944Y-16023888D02*
X13265420Y-16042936D01*
X13265420Y-16042936D02*
X13255896Y-16052460D01*
X13255896Y-16052460D02*
X13236848Y-16061984D01*
X13236848Y-16061984D02*
X13179706Y-16061984D01*
X13179706Y-16061984D02*
X13160658Y-16052460D01*
X13160658Y-16052460D02*
X13151134Y-16042936D01*
X13351134Y-15861984D02*
X13351134Y-15900079D01*
X13427325Y-15861984D02*
X13427325Y-15900079D01*
X13722563Y-16138174D02*
X13713039Y-16128650D01*
X13713039Y-16128650D02*
X13693991Y-16100079D01*
X13693991Y-16100079D02*
X13684468Y-16081031D01*
X13684468Y-16081031D02*
X13674944Y-16052460D01*
X13674944Y-16052460D02*
X13665420Y-16004841D01*
X13665420Y-16004841D02*
X13665420Y-15966746D01*
X13665420Y-15966746D02*
X13674944Y-15919127D01*
X13674944Y-15919127D02*
X13684468Y-15890555D01*
X13684468Y-15890555D02*
X13693991Y-15871508D01*
X13693991Y-15871508D02*
X13713039Y-15842936D01*
X13713039Y-15842936D02*
X13722563Y-15833412D01*
X13884468Y-15928650D02*
X13884468Y-16061984D01*
X13836848Y-15852460D02*
X13789229Y-15995317D01*
X13789229Y-15995317D02*
X13913039Y-15995317D01*
X14141610Y-16061984D02*
X14141610Y-15861984D01*
X14227325Y-16061984D02*
X14227325Y-15957222D01*
X14227325Y-15957222D02*
X14217801Y-15938174D01*
X14217801Y-15938174D02*
X14198753Y-15928650D01*
X14198753Y-15928650D02*
X14170182Y-15928650D01*
X14170182Y-15928650D02*
X14151134Y-15938174D01*
X14151134Y-15938174D02*
X14141610Y-15947698D01*
X14351134Y-16061984D02*
X14332087Y-16052460D01*
X14332087Y-16052460D02*
X14322563Y-16042936D01*
X14322563Y-16042936D02*
X14313039Y-16023888D01*
X14313039Y-16023888D02*
X14313039Y-15966746D01*
X14313039Y-15966746D02*
X14322563Y-15947698D01*
X14322563Y-15947698D02*
X14332087Y-15938174D01*
X14332087Y-15938174D02*
X14351134Y-15928650D01*
X14351134Y-15928650D02*
X14379706Y-15928650D01*
X14379706Y-15928650D02*
X14398753Y-15938174D01*
X14398753Y-15938174D02*
X14408277Y-15947698D01*
X14408277Y-15947698D02*
X14417801Y-15966746D01*
X14417801Y-15966746D02*
X14417801Y-16023888D01*
X14417801Y-16023888D02*
X14408277Y-16042936D01*
X14408277Y-16042936D02*
X14398753Y-16052460D01*
X14398753Y-16052460D02*
X14379706Y-16061984D01*
X14379706Y-16061984D02*
X14351134Y-16061984D01*
X14532087Y-16061984D02*
X14513039Y-16052460D01*
X14513039Y-16052460D02*
X14503515Y-16033412D01*
X14503515Y-16033412D02*
X14503515Y-15861984D01*
X14684468Y-16052460D02*
X14665420Y-16061984D01*
X14665420Y-16061984D02*
X14627325Y-16061984D01*
X14627325Y-16061984D02*
X14608277Y-16052460D01*
X14608277Y-16052460D02*
X14598753Y-16033412D01*
X14598753Y-16033412D02*
X14598753Y-15957222D01*
X14598753Y-15957222D02*
X14608277Y-15938174D01*
X14608277Y-15938174D02*
X14627325Y-15928650D01*
X14627325Y-15928650D02*
X14665420Y-15928650D01*
X14665420Y-15928650D02*
X14684468Y-15938174D01*
X14684468Y-15938174D02*
X14693991Y-15957222D01*
X14693991Y-15957222D02*
X14693991Y-15976269D01*
X14693991Y-15976269D02*
X14598753Y-15995317D01*
X14770182Y-16052460D02*
X14789230Y-16061984D01*
X14789230Y-16061984D02*
X14827325Y-16061984D01*
X14827325Y-16061984D02*
X14846372Y-16052460D01*
X14846372Y-16052460D02*
X14855896Y-16033412D01*
X14855896Y-16033412D02*
X14855896Y-16023888D01*
X14855896Y-16023888D02*
X14846372Y-16004841D01*
X14846372Y-16004841D02*
X14827325Y-15995317D01*
X14827325Y-15995317D02*
X14798753Y-15995317D01*
X14798753Y-15995317D02*
X14779706Y-15985793D01*
X14779706Y-15985793D02*
X14770182Y-15966746D01*
X14770182Y-15966746D02*
X14770182Y-15957222D01*
X14770182Y-15957222D02*
X14779706Y-15938174D01*
X14779706Y-15938174D02*
X14798753Y-15928650D01*
X14798753Y-15928650D02*
X14827325Y-15928650D01*
X14827325Y-15928650D02*
X14846372Y-15938174D01*
X14922563Y-16138174D02*
X14932087Y-16128650D01*
X14932087Y-16128650D02*
X14951134Y-16100079D01*
X14951134Y-16100079D02*
X14960658Y-16081031D01*
X14960658Y-16081031D02*
X14970182Y-16052460D01*
X14970182Y-16052460D02*
X14979706Y-16004841D01*
X14979706Y-16004841D02*
X14979706Y-15966746D01*
X14979706Y-15966746D02*
X14970182Y-15919127D01*
X14970182Y-15919127D02*
X14960658Y-15890555D01*
X14960658Y-15890555D02*
X14951134Y-15871508D01*
X14951134Y-15871508D02*
X14932087Y-15842936D01*
X14932087Y-15842936D02*
X14922563Y-15833412D01*
M02*
