%TF.GenerationSoftware,KiCad,Pcbnew,9.0.6*%
%TF.CreationDate,2026-02-09T00:43:42+01:00*%
%TF.ProjectId,Smartlock archi electro,536d6172-746c-46f6-936b-206172636869,rev?*%
%TF.SameCoordinates,Original*%
%TF.FileFunction,Drillmap*%
%TF.FilePolarity,Positive*%
%FSLAX45Y45*%
G04 Gerber Fmt 4.5, Leading zero omitted, Abs format (unit mm)*
G04 Created by KiCad (PCBNEW 9.0.6) date 2026-02-09 00:43:42*
%MOMM*%
%LPD*%
G01*
G04 APERTURE LIST*
%ADD10C,0.050000*%
%ADD11C,0.200000*%
G04 APERTURE END LIST*
D10*
X18950000Y-14300000D02*
G75*
G02*
X18450000Y-14800000I-500000J0D01*
G01*
X10650000Y-14800000D02*
G75*
G02*
X10150000Y-14300000I0J500000D01*
G01*
X10150000Y-6950000D02*
G75*
G02*
X10650000Y-6450000I500000J0D01*
G01*
X18450000Y-6450000D02*
G75*
G02*
X18950000Y-6950000I0J-500000D01*
G01*
X18450000Y-14800000D02*
X10650000Y-14800000D01*
X10150000Y-14300000D02*
X10150000Y-6950000D01*
X18950000Y-6950000D02*
X18950000Y-14300000D01*
X10650000Y-6450000D02*
X18450000Y-6450000D01*
D11*
X10408277Y-15113984D02*
X10408277Y-14913984D01*
X10408277Y-14913984D02*
X10455896Y-14913984D01*
X10455896Y-14913984D02*
X10484467Y-14923508D01*
X10484467Y-14923508D02*
X10503515Y-14942555D01*
X10503515Y-14942555D02*
X10513039Y-14961603D01*
X10513039Y-14961603D02*
X10522563Y-14999698D01*
X10522563Y-14999698D02*
X10522563Y-15028269D01*
X10522563Y-15028269D02*
X10513039Y-15066365D01*
X10513039Y-15066365D02*
X10503515Y-15085412D01*
X10503515Y-15085412D02*
X10484467Y-15104460D01*
X10484467Y-15104460D02*
X10455896Y-15113984D01*
X10455896Y-15113984D02*
X10408277Y-15113984D01*
X10608277Y-15113984D02*
X10608277Y-14980650D01*
X10608277Y-15018746D02*
X10617801Y-14999698D01*
X10617801Y-14999698D02*
X10627324Y-14990174D01*
X10627324Y-14990174D02*
X10646372Y-14980650D01*
X10646372Y-14980650D02*
X10665420Y-14980650D01*
X10732086Y-15113984D02*
X10732086Y-14980650D01*
X10732086Y-14913984D02*
X10722563Y-14923508D01*
X10722563Y-14923508D02*
X10732086Y-14933031D01*
X10732086Y-14933031D02*
X10741610Y-14923508D01*
X10741610Y-14923508D02*
X10732086Y-14913984D01*
X10732086Y-14913984D02*
X10732086Y-14933031D01*
X10855896Y-15113984D02*
X10836848Y-15104460D01*
X10836848Y-15104460D02*
X10827324Y-15085412D01*
X10827324Y-15085412D02*
X10827324Y-14913984D01*
X10960658Y-15113984D02*
X10941610Y-15104460D01*
X10941610Y-15104460D02*
X10932086Y-15085412D01*
X10932086Y-15085412D02*
X10932086Y-14913984D01*
X11189229Y-15113984D02*
X11189229Y-14913984D01*
X11189229Y-14913984D02*
X11255896Y-15056841D01*
X11255896Y-15056841D02*
X11322562Y-14913984D01*
X11322562Y-14913984D02*
X11322562Y-15113984D01*
X11503515Y-15113984D02*
X11503515Y-15009222D01*
X11503515Y-15009222D02*
X11493991Y-14990174D01*
X11493991Y-14990174D02*
X11474943Y-14980650D01*
X11474943Y-14980650D02*
X11436848Y-14980650D01*
X11436848Y-14980650D02*
X11417801Y-14990174D01*
X11503515Y-15104460D02*
X11484467Y-15113984D01*
X11484467Y-15113984D02*
X11436848Y-15113984D01*
X11436848Y-15113984D02*
X11417801Y-15104460D01*
X11417801Y-15104460D02*
X11408277Y-15085412D01*
X11408277Y-15085412D02*
X11408277Y-15066365D01*
X11408277Y-15066365D02*
X11417801Y-15047317D01*
X11417801Y-15047317D02*
X11436848Y-15037793D01*
X11436848Y-15037793D02*
X11484467Y-15037793D01*
X11484467Y-15037793D02*
X11503515Y-15028269D01*
X11598753Y-14980650D02*
X11598753Y-15180650D01*
X11598753Y-14990174D02*
X11617801Y-14980650D01*
X11617801Y-14980650D02*
X11655896Y-14980650D01*
X11655896Y-14980650D02*
X11674943Y-14990174D01*
X11674943Y-14990174D02*
X11684467Y-14999698D01*
X11684467Y-14999698D02*
X11693991Y-15018746D01*
X11693991Y-15018746D02*
X11693991Y-15075888D01*
X11693991Y-15075888D02*
X11684467Y-15094936D01*
X11684467Y-15094936D02*
X11674943Y-15104460D01*
X11674943Y-15104460D02*
X11655896Y-15113984D01*
X11655896Y-15113984D02*
X11617801Y-15113984D01*
X11617801Y-15113984D02*
X11598753Y-15104460D01*
X11779705Y-15094936D02*
X11789229Y-15104460D01*
X11789229Y-15104460D02*
X11779705Y-15113984D01*
X11779705Y-15113984D02*
X11770182Y-15104460D01*
X11770182Y-15104460D02*
X11779705Y-15094936D01*
X11779705Y-15094936D02*
X11779705Y-15113984D01*
X11779705Y-14990174D02*
X11789229Y-14999698D01*
X11789229Y-14999698D02*
X11779705Y-15009222D01*
X11779705Y-15009222D02*
X11770182Y-14999698D01*
X11770182Y-14999698D02*
X11779705Y-14990174D01*
X11779705Y-14990174D02*
X11779705Y-15009222D01*
M02*
